<svg width="147" height="147" viewBox="0 0 147 147" fill="none" xmlns="http://www.w3.org/2000/svg">
<path d="M62.9132 21.5967C58.195 21.5967 53.8473 24.1548 51.5558 28.2794L47.626 35.3533H36.1179C26.4099 35.3533 18.54 43.2232 18.54 52.9311V104.9C18.54 114.608 26.4099 122.478 36.1179 122.478H70.4979C69.4827 120.044 68.7028 117.487 68.1865 114.836H36.1179C30.6307 114.836 26.1826 110.387 26.1826 104.9V52.9311C26.1826 47.444 30.6307 42.9958 36.1179 42.9958H52.1228L58.2365 31.9909C59.1802 30.2926 60.9704 29.2392 62.9132 29.2392H84.2193C86.162 29.2392 87.9522 30.2926 88.8959 31.9909L95.0096 42.9958H111.015C116.502 42.9958 120.95 47.444 120.95 52.9311V69.8972C123.647 70.8925 126.207 72.1719 128.592 73.6992V52.9311C128.592 43.2232 120.722 35.3533 111.015 35.3533H99.5065L95.5767 28.2794C93.2852 24.1548 88.9375 21.5967 84.2193 21.5967H62.9132Z" fill="#E0E0E0"/>
<path d="M73.566 52.1668C84.3505 52.1668 93.5044 59.1472 96.7564 68.8364C94.2653 69.5126 91.8713 70.4251 89.6003 71.5483C87.4481 64.7427 81.0831 59.8093 73.566 59.8093C64.28 59.8093 56.7524 67.3369 56.7524 76.6229C56.7524 84.698 62.4452 91.4436 70.0363 93.0653C69.1382 95.4266 68.4583 97.8957 68.0221 100.448C57.1859 97.9364 49.1099 88.2227 49.1099 76.6229C49.1099 63.1161 60.0592 52.1668 73.566 52.1668Z" fill="#E0E0E0"/>
<path d="M140.82 107.193C140.82 125.765 125.765 140.82 107.193 140.82C88.6214 140.82 73.5659 125.765 73.5659 107.193C73.5659 88.6214 88.6214 73.5659 107.193 73.5659C125.765 73.5659 140.82 88.6214 140.82 107.193ZM110.25 88.8509C110.25 87.1626 108.881 85.7939 107.193 85.7939C105.505 85.7939 104.136 87.1626 104.136 88.8509V104.136H88.851C87.1626 104.136 85.794 105.505 85.794 107.193C85.794 108.881 87.1626 110.25 88.851 110.25H104.136V125.535C104.136 127.223 105.505 128.592 107.193 128.592C108.881 128.592 110.25 127.223 110.25 125.535V110.25H125.535C127.223 110.25 128.592 108.881 128.592 107.193C128.592 105.505 127.223 104.136 125.535 104.136H110.25V88.8509Z" fill="#E0E0E0"/>
</svg>
