<svg width="358" height="337" viewBox="0 0 358 337" fill="none" xmlns="http://www.w3.org/2000/svg">
<path d="M52.5919 236.107C52.5919 242.892 47.0907 248.394 40.3045 248.394C33.5183 248.394 28.0172 242.892 28.0172 236.107C28.0172 229.321 33.5183 223.819 40.3045 223.819C47.0907 223.819 52.5919 229.321 52.5919 236.107Z" fill="#F5F5F5"/>
<path d="M76.5656 235.903C76.5656 242.689 71.0644 248.19 64.2782 248.19C57.492 248.19 51.9908 242.689 51.9908 235.903C51.9908 229.117 57.492 223.616 64.2782 223.616C71.0644 223.616 76.5656 229.117 76.5656 235.903Z" fill="#F5F5F5"/>
<path d="M28.6185 235.903C28.6185 242.689 23.1173 248.19 16.3312 248.19C9.54496 248.19 4.04376 242.689 4.04376 235.903C4.04376 229.117 9.54496 223.616 16.3312 223.616C23.1173 223.616 28.6185 229.117 28.6185 235.903Z" fill="#F5F5F5"/>
<path d="M2.25705e-08 238.548H80.2561C80.2561 238.548 79.431 271.643 57.8837 275.691L57.5482 282.719H21.4052V275.565C21.4052 275.565 -0.000802603 270.086 2.25705e-08 238.548Z" fill="#F5F5F5"/>
<path d="M57.8839 275.691C57.8839 275.807 49.6915 275.9 39.5889 275.9C29.4814 275.9 21.2914 275.807 21.2914 275.691C21.2914 275.575 29.4814 275.482 39.5889 275.482C49.6915 275.482 57.8839 275.575 57.8839 275.691Z" fill="white"/>
<path d="M77.1484 255.602C77.1484 255.602 76.9751 255.63 76.6348 255.664C76.2792 255.695 75.7767 255.738 75.1218 255.794C73.7983 255.869 71.7973 256.042 69.2955 255.511C68.0547 255.245 66.6822 254.79 65.3715 253.942C64.0745 253.098 62.8015 251.873 62.043 250.196C61.6722 249.359 61.4659 248.413 61.482 247.428C61.5229 246.446 61.8416 245.43 62.4973 244.599C62.8256 244.188 63.247 243.829 63.7494 243.6C64.2527 243.379 64.8281 243.3 65.3876 243.383C66.5072 243.573 67.5009 244.337 68.0756 245.357C68.6559 246.392 68.7522 247.653 68.5371 248.838C68.3228 250.034 67.8115 251.175 67.1541 252.241C65.8089 254.351 63.7221 256.132 61.1786 257.068C58.6471 258.031 55.6662 258.021 52.9766 256.98C51.6322 256.462 50.3584 255.701 49.2516 254.712C48.1777 253.708 47.1511 252.522 46.7225 251.005C46.509 250.259 46.497 249.43 46.7346 248.668C46.9649 247.909 47.4682 247.189 48.2066 246.802C49.7083 246.034 51.5896 246.604 52.67 247.816C53.7848 249.033 54.2816 250.65 54.5425 252.238C54.8009 253.845 54.7335 255.51 54.3956 257.126C53.715 260.351 51.9324 263.447 49.2042 265.531C47.8502 266.577 46.2698 267.347 44.594 267.79C42.9133 268.216 41.1475 268.328 39.4058 268.137C35.92 267.774 32.6067 266.09 30.3915 263.47C29.2919 262.162 28.4716 260.599 28.1811 258.915C27.8777 257.238 28.2445 255.444 29.2068 254.059C30.1331 252.671 31.7255 251.637 33.4407 251.725C35.1093 251.824 36.7017 252.827 37.3864 254.346C37.746 255.099 37.7684 255.984 37.5501 256.766C37.319 257.552 36.8542 258.246 36.282 258.79C35.135 259.891 33.6734 260.544 32.2143 260.93C26.3342 262.534 20.0786 260.75 16.2508 256.942C15.3046 255.981 14.5292 254.856 14.0862 253.615C13.6287 252.381 13.5645 251.029 13.8695 249.8C14.168 248.572 14.8446 247.435 15.8423 246.709C16.8311 245.965 18.0977 245.721 19.247 245.879C20.4044 246.033 21.4767 246.62 22.1758 247.49C22.8749 248.355 23.2513 249.429 23.261 250.479C23.2794 251.533 22.903 252.541 22.3219 253.329C21.7424 254.127 20.9847 254.729 20.2086 255.197C18.6435 256.144 16.9933 256.592 15.5004 256.968C13.9963 257.329 12.5957 257.54 11.3316 257.661C8.79927 257.898 6.82 257.766 5.49406 257.626C4.16572 257.479 3.48108 257.321 3.48108 257.321C3.48108 257.321 3.65685 257.333 3.99556 257.378C4.33347 257.425 4.83832 257.485 5.50209 257.543C6.82642 257.655 8.79927 257.759 11.3155 257.499C12.5716 257.367 13.9618 257.145 15.453 256.775C16.9355 256.39 18.564 255.932 20.0866 254.997C20.8427 254.536 21.5707 253.946 22.1188 253.183C22.6694 252.426 23.0178 251.475 22.9953 250.483C22.9817 249.493 22.6197 248.477 21.9591 247.669C21.2994 246.856 20.2977 246.314 19.2077 246.171C18.1242 246.028 16.9403 246.262 16.0253 246.957C15.0999 247.637 14.4626 248.709 14.1825 249.877C13.8976 251.048 13.961 252.324 14.4016 253.502C14.8278 254.686 15.5766 255.768 16.4981 256.698C20.2319 260.398 26.3776 262.14 32.1115 260.559C33.533 260.182 34.9336 259.543 36.0075 258.509C36.5444 257.998 36.9626 257.361 37.1689 256.657C37.3623 255.95 37.343 255.181 37.022 254.509C36.4168 253.15 34.9328 252.211 33.4214 252.13C32.6613 252.077 31.9028 252.316 31.2286 252.689C30.5665 253.088 29.9798 253.633 29.5447 254.29C28.645 255.594 28.3015 257.258 28.588 258.846C28.8633 260.438 29.6475 261.94 30.7101 263.203C32.8499 265.732 36.0637 267.37 39.4523 267.722C41.1443 267.908 42.8603 267.798 44.4896 267.385C46.1141 266.956 47.6391 266.212 48.9506 265.202C51.5928 263.187 53.3313 260.174 53.9943 257.042C54.3242 255.473 54.3908 253.856 54.1428 252.301C53.894 250.758 53.4044 249.206 52.3778 248.088C51.3994 246.974 49.6762 246.484 48.3912 247.149C47.7595 247.478 47.3157 248.1 47.1062 248.783C46.8919 249.471 46.8983 250.211 47.0941 250.903C47.4826 252.303 48.465 253.46 49.5036 254.432C50.5719 255.391 51.8055 256.131 53.1082 256.637C55.7183 257.652 58.6014 257.669 61.0582 256.743C63.5295 255.843 65.5674 254.115 66.8821 252.069C67.5242 251.036 68.0242 249.928 68.2321 248.783C68.444 247.649 68.3501 246.457 67.8179 245.502C67.2898 244.55 66.3587 243.835 65.3434 243.661C64.8362 243.583 64.3193 243.651 63.8602 243.85C63.4035 244.055 63.0134 244.382 62.7052 244.766C62.0872 245.538 61.775 246.506 61.7316 247.438C61.7115 248.377 61.9034 249.292 62.2565 250.102C62.9805 251.728 64.2141 252.938 65.4799 253.776C66.7593 254.616 68.1029 255.077 69.3309 255.352C71.7989 255.903 73.7935 255.757 75.117 255.71C75.7719 255.672 76.276 255.643 76.6316 255.622C76.9727 255.602 77.1484 255.602 77.1484 255.602Z" fill="white"/>
<path d="M318.581 96.9017C318.27 97.9539 312.92 106.38 305.211 109.248C297.5 112.116 291.762 115.281 293.905 119.06C296.047 122.838 305.521 120.777 305.521 120.777C305.521 120.777 286.3 141.673 304.394 153.612C326.461 168.173 349.521 116.053 349.521 116.053L318.581 96.9017Z" fill="#F5F5F5"/>
<path d="M345.889 123.206C345.829 123.305 338.553 118.969 329.642 113.524C320.727 108.077 313.551 103.583 313.611 103.485C313.671 103.386 320.945 107.721 329.86 113.167C338.771 118.612 345.948 123.107 345.889 123.206Z" fill="#F5F5F5"/>
<path d="M342.473 129.455C342.413 129.555 334.555 124.943 324.922 119.156C315.287 113.368 307.527 108.597 307.586 108.498C307.645 108.399 315.502 113.01 325.137 118.798C334.77 124.585 342.532 129.357 342.473 129.455Z" fill="#F5F5F5"/>
<path d="M338.349 135.378C338.289 135.478 329.466 130.286 318.643 123.784C307.816 117.28 299.091 111.929 299.15 111.83C299.209 111.731 308.032 116.921 318.858 123.426C329.68 129.927 338.408 135.28 338.349 135.378Z" fill="#F5F5F5"/>
<path d="M333.202 142.707C333.141 142.805 326.301 138.633 317.929 133.392C309.554 128.149 302.816 123.821 302.877 123.723C302.939 123.625 309.775 127.795 318.151 133.038C326.524 138.28 333.263 142.609 333.202 142.707Z" fill="#F5F5F5"/>
<path d="M327.153 149.784C327.089 149.88 320.721 145.772 312.932 140.608C305.139 135.443 298.876 131.179 298.941 131.083C299.004 130.987 305.37 135.094 313.162 140.26C320.952 145.423 327.217 149.688 327.153 149.784Z" fill="#F5F5F5"/>
<path d="M319.431 154.694C319.416 154.719 319.074 154.557 318.467 154.24C317.858 153.926 316.989 153.451 315.922 152.85C313.791 151.649 310.881 149.922 307.736 147.907C304.59 145.89 301.807 143.966 299.824 142.529C298.833 141.812 298.039 141.219 297.5 140.799C296.959 140.378 296.668 140.135 296.685 140.112C296.703 140.088 297.025 140.287 297.595 140.666C298.229 141.096 299.034 141.639 299.994 142.288C302.017 143.66 304.821 145.541 307.961 147.555C311.1 149.567 313.98 151.33 316.072 152.595C317.062 153.196 317.891 153.701 318.546 154.099C319.129 154.458 319.445 154.668 319.431 154.694Z" fill="#F5F5F5"/>
<path d="M301.334 121.252C301.304 121.353 299.27 120.707 297.07 119.298C294.862 117.901 293.418 116.331 293.495 116.261C293.581 116.169 295.129 117.576 297.294 118.946C299.451 120.329 301.381 121.135 301.334 121.252Z" fill="#F5F5F5"/>
<path d="M348.087 114.966C348.099 114.974 348.003 115.13 347.811 115.418C347.591 115.739 347.306 116.153 346.954 116.666C346.202 117.746 345.095 119.294 343.709 121.194C340.939 124.994 337.029 130.186 332.567 135.807C328.101 141.428 323.928 146.412 320.854 149.971C319.317 151.751 318.061 153.18 317.178 154.156C316.759 154.615 316.419 154.987 316.157 155.274C315.92 155.527 315.79 155.654 315.779 155.646C315.768 155.635 315.877 155.489 316.093 155.219C316.341 154.918 316.66 154.53 317.056 154.049C317.932 153.002 319.144 151.553 320.628 149.78C323.644 146.173 327.777 141.164 332.239 135.547C336.698 129.93 340.642 124.771 343.472 121.018C344.863 119.171 345.999 117.661 346.822 116.571C347.201 116.076 347.506 115.678 347.743 115.368C347.958 115.097 348.076 114.957 348.087 114.966Z" fill="#F5F5F5"/>
<path d="M341.832 110.507C341.923 110.578 334.259 120.58 324.715 132.844C315.168 145.113 307.358 154.998 307.267 154.927C307.175 154.856 314.838 144.857 324.386 132.588C333.929 120.324 341.741 110.437 341.832 110.507Z" fill="#F5F5F5"/>
<path d="M333.107 105.562C333.12 105.57 333.033 105.74 332.857 106.058C332.656 106.411 332.396 106.871 332.072 107.441C331.379 108.636 330.342 110.344 328.996 112.416C326.317 116.566 322.333 122.117 317.638 128.009C312.945 133.909 308.508 139.089 305.305 142.843C303.718 144.685 302.423 146.188 301.489 147.271C301.054 147.762 300.705 148.157 300.436 148.46C300.191 148.73 300.057 148.866 300.047 148.857C300.035 148.848 300.148 148.693 300.372 148.406C300.624 148.089 300.954 147.678 301.365 147.166C302.273 146.062 303.534 144.53 305.079 142.652C308.224 138.85 312.624 133.641 317.31 127.75C322 121.864 326.012 116.354 328.748 112.253C330.123 110.206 331.197 108.524 331.933 107.357C332.285 106.803 332.567 106.358 332.786 106.016C332.984 105.712 333.094 105.555 333.107 105.562Z" fill="#F5F5F5"/>
<path d="M325.947 101.461C326.038 101.532 319.506 110.179 311.358 120.773C303.208 131.371 296.529 139.903 296.437 139.832C296.346 139.761 302.877 131.116 311.027 120.519C319.175 109.924 325.856 101.391 325.947 101.461Z" fill="#F5F5F5"/>
<path d="M320.561 97.9538C320.585 97.9698 320.34 98.3791 319.874 99.1079C319.644 99.4755 319.354 99.9178 318.986 100.41C318.622 100.905 318.227 101.484 317.729 102.078C316.777 103.298 315.547 104.676 314.097 106.123C312.628 107.551 310.929 109.036 309.028 110.444C307.115 111.837 305.19 113.015 303.388 113.989C301.574 114.941 299.891 115.702 298.441 116.246C297.726 116.543 297.055 116.747 296.473 116.947C295.895 117.15 295.385 117.295 294.966 117.404C294.131 117.631 293.667 117.742 293.659 117.715C293.652 117.687 294.101 117.523 294.918 117.249C295.329 117.116 295.828 116.949 296.398 116.726C296.968 116.506 297.628 116.284 298.331 115.972C299.759 115.396 301.415 114.612 303.205 113.65C304.982 112.665 306.884 111.488 308.781 110.107C310.665 108.711 312.356 107.248 313.828 105.847C315.281 104.427 316.525 103.08 317.501 101.891C318.009 101.314 318.419 100.75 318.798 100.271C319.182 99.7942 319.491 99.3672 319.74 99.0156C320.245 98.3173 320.537 97.9377 320.561 97.9538Z" fill="#F5F5F5"/>
<path d="M358 97.2742H255.367V86.4379H358V97.2742Z" fill="#F5F5F5"/>
<path d="M287.904 96.9017C287.594 97.9539 282.244 106.38 274.534 109.248C266.824 112.116 261.086 115.281 263.228 119.06C265.371 122.838 274.844 120.777 274.844 120.777C274.844 120.777 255.623 141.673 273.718 153.612C295.784 168.173 318.844 116.053 318.844 116.053L287.904 96.9017Z" fill="#F5F5F5"/>
<path d="M315.212 123.206C315.152 123.305 307.877 118.969 298.965 113.524C290.05 108.077 282.874 103.583 282.935 103.485C282.995 103.386 290.268 107.721 299.183 113.167C308.095 118.612 315.272 123.107 315.212 123.206Z" fill="#F5F5F5"/>
<path d="M311.796 129.455C311.736 129.555 303.879 124.943 294.246 119.156C284.611 113.368 276.85 108.597 276.91 108.498C276.969 108.399 284.826 113.01 294.461 118.798C304.093 124.585 311.855 129.357 311.796 129.455Z" fill="#F5F5F5"/>
<path d="M307.672 135.378C307.613 135.478 298.789 130.286 287.966 123.784C277.139 117.28 268.414 111.929 268.473 111.83C268.533 111.731 277.355 116.921 288.182 123.426C299.004 129.927 307.731 135.28 307.672 135.378Z" fill="#F5F5F5"/>
<path d="M302.525 142.707C302.464 142.805 295.625 138.633 287.253 133.392C278.877 128.149 272.14 123.821 272.201 123.723C272.262 123.625 279.098 127.795 287.475 133.038C295.847 138.28 302.586 142.609 302.525 142.707Z" fill="#F5F5F5"/>
<path d="M296.477 149.784C296.413 149.88 290.045 145.772 282.255 140.608C274.462 135.443 268.2 131.179 268.264 131.083C268.327 130.987 274.694 135.094 282.486 140.26C290.276 145.423 296.54 149.688 296.477 149.784Z" fill="#F5F5F5"/>
<path d="M288.754 154.694C288.739 154.719 288.397 154.557 287.79 154.24C287.181 153.926 286.312 153.451 285.246 152.85C283.114 151.649 280.204 149.922 277.059 147.907C273.913 145.89 271.13 143.966 269.148 142.529C268.157 141.812 267.363 141.219 266.823 140.799C266.283 140.378 265.992 140.135 266.008 140.112C266.026 140.088 266.349 140.287 266.918 140.666C267.553 141.096 268.357 141.639 269.317 142.288C271.341 143.66 274.144 145.541 277.284 147.555C280.423 149.567 283.303 151.33 285.395 152.595C286.385 153.196 287.215 153.701 287.87 154.099C288.453 154.458 288.768 154.668 288.754 154.694Z" fill="#F5F5F5"/>
<path d="M270.658 121.252C270.627 121.353 268.594 120.707 266.394 119.298C264.186 117.901 262.741 116.331 262.818 116.261C262.905 116.169 264.452 117.576 266.618 118.946C268.774 120.329 270.705 121.135 270.658 121.252Z" fill="#F5F5F5"/>
<path d="M317.411 114.966C317.423 114.974 317.327 115.13 317.135 115.418C316.914 115.739 316.629 116.153 316.277 116.666C315.525 117.746 314.418 119.294 313.033 121.194C310.262 124.994 306.352 130.186 301.89 135.807C297.424 141.428 293.251 146.412 290.177 149.971C288.64 151.751 287.384 153.18 286.502 154.156C286.082 154.615 285.743 154.987 285.48 155.274C285.243 155.527 285.114 155.654 285.103 155.646C285.092 155.635 285.2 155.489 285.417 155.219C285.664 154.918 285.983 154.53 286.379 154.049C287.255 153.002 288.467 151.553 289.951 149.78C292.967 146.173 297.1 141.164 301.562 135.547C306.022 129.93 309.966 124.771 312.795 121.018C314.186 119.171 315.323 117.661 316.145 116.571C316.524 116.076 316.829 115.678 317.067 115.368C317.281 115.097 317.399 114.957 317.411 114.966Z" fill="#F5F5F5"/>
<path d="M311.155 110.507C311.246 110.578 303.582 120.58 294.038 132.844C284.491 145.113 276.681 154.998 276.59 154.927C276.499 154.856 284.161 144.857 293.709 132.588C303.252 120.324 311.065 110.437 311.155 110.507Z" fill="#F5F5F5"/>
<path d="M302.43 105.562C302.443 105.57 302.356 105.74 302.18 106.058C301.98 106.411 301.72 106.871 301.396 107.441C300.703 108.636 299.665 110.344 298.319 112.416C295.64 116.566 291.657 122.117 286.962 128.009C282.269 133.909 277.831 139.089 274.629 142.843C273.042 144.685 271.746 146.188 270.812 147.271C270.378 147.762 270.028 148.157 269.759 148.46C269.514 148.73 269.381 148.866 269.371 148.857C269.359 148.848 269.472 148.693 269.695 148.406C269.948 148.089 270.277 147.678 270.688 147.166C271.596 146.062 272.857 144.53 274.402 142.652C277.547 138.85 281.947 133.641 286.633 127.75C291.324 121.864 295.335 116.354 298.072 112.253C299.447 110.206 300.521 108.524 301.256 107.357C301.609 106.803 301.891 106.358 302.109 106.016C302.308 105.712 302.417 105.555 302.43 105.562Z" fill="#F5F5F5"/>
<path d="M295.27 101.461C295.362 101.532 288.83 110.179 280.682 120.773C272.531 131.371 265.853 139.903 265.76 139.832C265.669 139.761 272.201 131.116 280.35 120.519C288.498 109.924 295.179 101.391 295.27 101.461Z" fill="#F5F5F5"/>
<path d="M289.884 97.9538C289.908 97.9698 289.663 98.3791 289.198 99.1079C288.968 99.4755 288.677 99.9178 288.309 100.41C287.946 100.905 287.55 101.484 287.053 102.078C286.101 103.298 284.87 104.676 283.42 106.123C281.951 107.551 280.253 109.036 278.352 110.444C276.439 111.837 274.513 113.015 272.711 113.989C270.897 114.941 269.214 115.702 267.764 116.246C267.049 116.543 266.378 116.747 265.797 116.947C265.218 117.15 264.709 117.295 264.289 117.404C263.454 117.631 262.991 117.742 262.983 117.715C262.975 117.687 263.424 117.523 264.242 117.249C264.652 117.116 265.151 116.949 265.721 116.726C266.291 116.506 266.951 116.284 267.655 115.972C269.082 115.396 270.738 114.612 272.529 113.65C274.306 112.665 276.208 111.488 278.104 110.107C279.989 108.711 281.68 107.248 283.151 105.847C284.604 104.427 285.848 103.08 286.824 101.891C287.333 101.314 287.742 100.75 288.122 100.271C288.505 99.7942 288.814 99.3672 289.064 99.0156C289.568 98.3173 289.86 97.9377 289.884 97.9538Z" fill="#F5F5F5"/>
<path d="M310.025 38.7771H303.461V32.2132H310.025V38.7771Z" fill="#F5F5F5"/>
<path d="M337.483 86.1216H276.307V47.5113H337.483V86.1216Z" fill="#F5F5F5"/>
<path d="M276.308 47.5115C276.308 47.5115 285.673 37.7283 309.154 38.1192C332.636 38.5108 337.483 47.5115 337.483 47.5115H276.308Z" fill="#F5F5F5"/>
<path d="M337.247 48.1396C337.247 48.2552 323.495 48.3491 306.534 48.3491C289.568 48.3491 275.818 48.2552 275.818 48.1396C275.818 48.0241 289.568 47.931 306.534 47.931C323.495 47.931 337.247 48.0241 337.247 48.1396Z" fill="#F5F5F5"/>
<path d="M351.065 53.4258H337.247V48.1405H351.065C352.289 48.1405 353.283 49.1333 353.283 50.3581V51.2073C353.283 52.4329 352.289 53.4258 351.065 53.4258Z" fill="#F5F5F5"/>
<path d="M262.716 48.14H276.534V53.4253H262.716C261.492 53.4253 260.498 52.4324 260.498 51.2076V50.3585C260.498 49.1329 261.492 48.14 262.716 48.14Z" fill="#F5F5F5"/>
<path d="M313.585 34.1055H300.204C299.328 34.1055 298.617 33.3943 298.617 32.5171V31.9095C298.617 31.0322 299.328 30.3211 300.204 30.3211H313.585C314.462 30.3211 315.173 31.0322 315.173 31.9095V32.5171C315.173 33.3943 314.462 34.1055 313.585 34.1055Z" fill="#F5F5F5"/>
<path d="M318.411 64.0831L316.46 60.9079C300.792 35.4117 272.578 19.9636 242.69 21.4886C238.491 21.7029 234.307 22.2399 230.183 23.1115C202.694 28.9217 178.775 49.4489 168.861 75.7381C163.03 91.199 161.401 109 150.336 121.273C135.936 137.245 111.487 137.746 89.9919 137.085C68.4967 136.423 44.0319 136.988 29.7011 153.022C20.7269 163.064 17.8744 177.345 18.5975 190.794C20.5142 226.4 45.6396 258.237 77.5937 274.062C109.547 289.886 147.169 291.304 182.141 284.343C231.132 274.591 277.722 247.81 305.725 206.446C333.73 165.082 340.817 108.728 318.411 64.0831Z" fill="#F5F5F5"/>
<path d="M355.565 282.509C355.565 282.625 276.323 282.719 178.595 282.719C80.8324 282.719 1.60681 282.625 1.60681 282.509C1.60681 282.394 80.8324 282.3 178.595 282.3C276.323 282.3 355.565 282.394 355.565 282.509Z" fill="#263238"/>
<path d="M237.914 165.16C237.596 166.531 230.764 228.719 230.764 228.719L224.584 237.505L222.91 250.958L235.726 282.721H140.738C140.738 282.721 139.231 265.938 139.361 261.45C139.491 256.961 141.779 240.499 141.779 240.499L141.559 223.785L137.962 150.911L170.151 140.529C189.598 137.183 218.216 151.732 218.216 151.732L237.914 165.16Z" fill="#76B7AF"/>
<path d="M225.571 118.81C229.8 118.545 233.043 115.008 235.375 111.47C237.553 108.168 239.417 104.454 239.436 100.498C239.454 97.0624 238.083 93.7909 236.736 90.6302C235.349 87.3756 233.937 84.0792 231.757 81.2933C229.577 78.5073 226.5 76.2431 222.989 75.8073" fill="#263238"/>
<path d="M176.134 135.377L176.176 134.331L178.658 73.6128L180.029 70.168L210.399 65.967C220.322 65.1941 228.877 72.8471 229.23 82.7949C229.62 93.847 229.661 107.355 228.128 115.552C225.042 132.032 212.297 133.789 212.297 133.789C212.297 133.789 212.078 138.104 211.842 144.336C211.663 149.044 207.507 162.616 202.796 162.749C200.773 162.805 195.251 161.052 192.617 160.668C176.006 158.242 176.134 135.377 176.134 135.377Z" fill="#FFBE9D"/>
<path d="M223.624 92.4277C223.632 93.5498 222.689 94.4824 221.518 94.5129C220.347 94.5434 219.391 93.6613 219.382 92.5392C219.373 91.4172 220.316 90.4829 221.485 90.4524C222.657 90.4211 223.615 91.3064 223.624 92.4277Z" fill="#263238"/>
<path d="M226.107 89.7356C225.837 90.0045 224.261 88.7709 221.977 88.7139C219.695 88.624 217.987 89.7525 217.747 89.4668C217.629 89.3391 217.909 88.8471 218.654 88.3351C219.388 87.8262 220.627 87.3446 222.05 87.3904C223.473 87.4377 224.656 87.9947 225.328 88.5494C226.017 89.108 226.241 89.6153 226.107 89.7356Z" fill="#263238"/>
<path d="M201.268 92.2084C201.277 93.3305 200.333 94.2632 199.162 94.2937C197.992 94.3242 197.035 93.4421 197.027 92.32C197.018 91.1979 197.961 90.2637 199.13 90.2332C200.302 90.2019 201.259 91.0864 201.268 92.2084Z" fill="#263238"/>
<path d="M203.641 89.5426C203.37 89.8123 201.792 88.5778 199.51 88.5208C197.229 88.4309 195.519 89.5602 195.279 89.2737C195.162 89.1461 195.441 88.6541 196.188 88.1428C196.921 87.6331 198.161 87.1524 199.583 87.1973C201.006 87.2447 202.188 87.8017 202.862 88.3563C203.548 88.9149 203.774 89.4222 203.641 89.5426Z" fill="#263238"/>
<path d="M211.464 106.712C211.457 106.582 212.885 106.377 215.193 106.145C215.778 106.101 216.333 106 216.442 105.605C216.592 105.187 216.364 104.552 216.1 103.865C215.591 102.438 215.059 100.944 214.498 99.3763C212.277 92.9858 210.687 87.7374 210.945 87.6507C211.203 87.5632 213.212 92.672 215.433 99.0625C215.967 100.638 216.478 102.14 216.963 103.576C217.166 104.245 217.524 105.008 217.202 105.874C217.033 106.306 216.596 106.61 216.22 106.7C215.843 106.805 215.514 106.801 215.225 106.811C212.907 106.871 211.469 106.842 211.464 106.712Z" fill="#263238"/>
<path d="M212.297 133.788C212.297 133.788 201.141 134.199 190.291 127.264C190.291 127.264 195.357 138.783 211.965 137.69L212.297 133.788Z" fill="#EB996E"/>
<path d="M210.347 112.191C209.555 111.082 208.132 110.446 206.699 110.56C205.704 110.64 204.689 111.09 204.065 111.881C203.441 112.672 203.283 113.814 203.808 114.599C204.401 115.483 205.683 115.719 206.783 115.439C207.882 115.158 208.839 114.467 209.751 113.777C210.002 113.585 210.261 113.386 210.422 113.119C210.583 112.852 210.626 112.499 210.441 112.269" fill="#EB996E"/>
<path d="M204.698 108.107C205.07 108.095 205.007 110.576 207.081 112.394C209.15 114.218 211.802 114.012 211.811 114.36C211.841 114.516 211.209 114.825 210.093 114.825C208.997 114.832 207.409 114.436 206.14 113.325C204.875 112.209 204.357 110.754 204.301 109.734C204.235 108.695 204.528 108.088 204.698 108.107Z" fill="#263238"/>
<path d="M204.478 80.6066C204.235 81.2214 201.963 80.8642 199.274 81.113C196.58 81.3089 194.396 82.0328 194.057 81.4662C193.905 81.1949 194.298 80.6218 195.189 80.0439C196.071 79.4676 197.47 78.9355 199.083 78.8007C200.696 78.669 202.163 78.9652 203.127 79.389C204.101 79.8128 204.583 80.3144 204.478 80.6066Z" fill="#263238"/>
<path d="M225.45 83.101C225.033 83.6082 223.475 83.0271 221.584 82.9493C219.694 82.8056 218.079 83.2013 217.725 82.6491C217.571 82.381 217.838 81.8673 218.551 81.3962C219.254 80.9259 220.419 80.5575 221.719 80.6329C223.018 80.71 224.132 81.2116 224.775 81.7606C225.43 82.312 225.634 82.853 225.45 83.101Z" fill="#263238"/>
<path d="M175.968 92.1636C175.968 92.1636 171.909 94.3387 167.629 99.7099C164.996 103.014 163.285 107.285 163.943 111.458C164.854 117.24 169.87 121.354 174.53 124.896C177.215 125.287 179.212 122.323 179.632 119.641C180.051 116.96 179.675 114.062 180.945 111.663C182.085 109.512 184.335 108.194 185.836 106.278C188.63 102.711 188.439 97.6953 187.757 93.2166C187.075 88.7372 187.783 81.9646 193.514 75.5974C193.514 75.5974 179.52 81.0865 175.968 92.1636Z" fill="#263238"/>
<path d="M171.006 107.076C173.452 103.6 172.807 98.4964 170.025 95.2826C167.245 92.0689 162.738 90.6675 158.504 91.0311C155.419 91.296 152.302 92.504 150.31 94.8741C148.317 97.2443 147.714 100.889 149.369 103.506C150.285 104.953 151.877 106.322 151.51 107.994C151.156 109.604 149.252 110.215 147.899 111.155C145.532 112.801 144.615 116.126 145.523 118.861C146.43 121.596 148.952 123.647 151.761 124.294C154.569 124.941 157.59 124.281 160.065 122.806C160.049 125.379 162.828 127.344 165.391 127.126C167.955 126.908 170.126 125.045 171.499 122.869C173.438 119.796 174.107 116.058 174.022 112.426C173.938 108.793 173.147 105.219 172.359 101.672" fill="#263238"/>
<path d="M175.248 125.686C175.239 125.698 175.109 125.615 174.868 125.447C174.593 125.247 174.249 124.999 173.829 124.694C172.937 124.026 171.646 123.054 170.144 121.737C168.649 120.417 166.924 118.736 165.444 116.522C163.962 114.323 162.822 111.502 162.697 108.405C162.649 106.864 162.858 105.337 163.394 103.972C163.912 102.6 164.729 101.42 165.636 100.444C167.478 98.499 169.536 97.2485 171.161 96.1128C172.812 95.0028 174.078 94.0164 174.893 93.2635C175.305 92.8919 175.607 92.5845 175.805 92.3694C176.01 92.1599 176.123 92.054 176.134 92.0628C176.145 92.0724 176.053 92.196 175.868 92.4256C175.688 92.6599 175.404 92.9874 175.005 93.3807C174.219 94.1769 172.963 95.2115 171.329 96.3552C169.722 97.523 167.694 98.7984 165.919 100.705C165.045 101.661 164.268 102.8 163.777 104.117C163.267 105.427 163.069 106.899 163.115 108.391C163.236 111.39 164.332 114.147 165.765 116.308C167.2 118.493 168.882 120.178 170.341 121.516C171.809 122.853 173.069 123.859 173.929 124.565C174.33 124.895 174.657 125.165 174.92 125.381C175.144 125.57 175.257 125.675 175.248 125.686Z" fill="#455A64"/>
<path d="M163.446 104.736C163.379 104.775 162.955 103.89 161.902 102.759C160.868 101.635 159.1 100.308 156.82 99.7472C154.537 99.191 152.355 99.5506 150.919 100.071C149.463 100.586 148.679 101.175 148.637 101.108C148.622 101.088 148.801 100.922 149.163 100.669C149.524 100.417 150.081 100.094 150.814 99.7938C152.264 99.187 154.532 98.7592 156.919 99.3411C159.304 99.9278 161.117 101.355 162.122 102.563C162.635 103.168 162.979 103.711 163.182 104.102C163.387 104.494 163.468 104.724 163.446 104.736Z" fill="#455A64"/>
<path d="M150.566 109.133C150.52 109.128 150.816 108.337 151.897 107.661C152.429 107.328 153.141 107.058 153.95 106.919C154.762 106.776 155.658 106.751 156.592 106.77C158.467 106.819 160.141 107.16 161.311 107.512C162.484 107.866 163.165 108.201 163.146 108.249C163.124 108.309 162.41 108.074 161.235 107.797C160.063 107.523 158.416 107.235 156.581 107.188C154.746 107.121 153.077 107.32 152.045 107.916C150.998 108.482 150.622 109.178 150.566 109.133Z" fill="#455A64"/>
<path d="M147.807 122.253C147.806 122.177 148.956 122.203 150.755 121.852C152.547 121.51 154.994 120.699 157.282 119.1C159.572 117.502 161.178 115.485 162.117 113.921C163.067 112.353 163.438 111.264 163.509 111.292C163.534 111.301 163.467 111.581 163.292 112.07C163.119 112.56 162.822 113.254 162.372 114.07C161.484 115.698 159.873 117.802 157.521 119.442C155.171 121.084 152.642 121.87 150.808 122.142C149.886 122.285 149.132 122.324 148.612 122.317C148.093 122.312 147.807 122.279 147.807 122.253Z" fill="#455A64"/>
<path d="M164.25 104.476C164.282 104.438 164.738 104.91 165.751 105.464C166.751 106.022 168.391 106.568 170.452 106.497C171.475 106.457 172.6 106.278 173.733 105.864C174.864 105.452 176.004 104.816 177.066 103.968C179.206 102.284 181.005 99.7931 182.346 96.9438C183.687 94.0808 184.545 91.1713 185.404 88.5547C186.247 85.931 187.117 83.5881 188.063 81.7188C188.998 79.8438 189.979 78.4449 190.738 77.5556C191.113 77.1069 191.429 76.7786 191.652 76.5667C191.874 76.354 191.996 76.2481 192.007 76.2577C192.034 76.285 191.576 76.7417 190.865 77.6575C190.151 78.5709 189.221 79.9771 188.328 81.8488C187.425 83.7157 186.592 86.0465 185.77 88.6727C184.932 91.2909 184.083 94.2189 182.724 97.122C181.364 100.014 179.518 102.556 177.303 104.272C176.205 105.134 175.025 105.778 173.849 106.192C172.674 106.603 171.513 106.771 170.459 106.792C168.339 106.827 166.667 106.219 165.672 105.607C165.414 105.463 165.2 105.313 165.021 105.174C164.837 105.043 164.689 104.922 164.58 104.812C164.354 104.602 164.241 104.487 164.25 104.476Z" fill="#455A64"/>
<path d="M187.811 89.5978C187.851 89.6226 187.519 90.0825 187.149 91.0184C186.776 91.9535 186.463 93.3837 186.342 95.1872C186.179 96.9811 186.247 99.1731 185.628 101.542C185 103.894 183.561 106.288 181.418 108.114C179.294 109.964 176.683 111.005 174.256 111.202C171.823 111.426 169.623 110.936 167.937 110.232C166.234 109.54 165.033 108.63 164.275 107.954C163.895 107.612 163.62 107.328 163.449 107.12C163.272 106.918 163.185 106.808 163.195 106.798C163.232 106.764 163.595 107.197 164.381 107.83C165.161 108.46 166.367 109.316 168.047 109.958C169.71 110.613 171.861 111.057 174.219 110.819C176.57 110.606 179.083 109.591 181.146 107.797C183.224 106.027 184.628 103.712 185.257 101.439C185.878 99.1546 185.848 96.9667 186.047 95.1616C186.207 93.346 186.571 91.8884 186.998 90.9558C187.213 90.4911 187.404 90.1419 187.563 89.9236C187.715 89.7013 187.799 89.5897 187.811 89.5978Z" fill="#455A64"/>
<path d="M235.371 110.398C235.344 110.364 235.641 110.145 236.073 109.654C236.508 109.168 237.063 108.389 237.477 107.3C237.884 106.215 238.151 104.826 238.047 103.292C237.945 101.762 237.454 100.111 236.675 98.5093C235.085 95.2964 232.897 92.834 231.467 90.951C230.747 90.0071 230.227 89.1941 229.904 88.6138C229.579 88.0335 229.437 87.694 229.458 87.6827C229.487 87.6667 229.678 87.9797 230.042 88.5287C230.406 89.0785 230.955 89.8554 231.699 90.7688C233.176 92.5924 235.424 95.0436 237.051 98.3271C237.849 99.9669 238.346 101.674 238.431 103.27C238.518 104.864 238.209 106.299 237.752 107.409C237.288 108.524 236.673 109.304 236.191 109.765C235.949 109.997 235.75 110.163 235.602 110.261C235.458 110.363 235.38 110.41 235.371 110.398Z" fill="#455A64"/>
<path d="M232.993 115.094C232.912 115.029 234.072 114.196 234.981 112.224C235.424 111.247 235.757 109.983 235.774 108.561C235.809 107.14 235.464 105.588 234.838 104.063C234.221 102.529 233.375 101.186 232.678 99.9087C231.98 98.6373 231.378 97.4791 230.889 96.4975C230.399 95.5159 230.024 94.7109 229.782 94.1474C229.54 93.5832 229.429 93.2613 229.454 93.2501C229.481 93.238 229.642 93.5366 229.929 94.0768C230.259 94.694 230.667 95.4573 231.151 96.3611C231.672 97.3218 232.301 98.4631 233.014 99.7208C233.72 100.974 234.591 102.332 235.225 103.905C235.868 105.467 236.218 107.09 236.158 108.57C236.12 110.047 235.742 111.354 235.248 112.35C234.763 113.357 234.164 114.047 233.732 114.484C233.514 114.705 233.331 114.86 233.201 114.958C233.074 115.058 233.002 115.106 232.993 115.094Z" fill="#455A64"/>
<path d="M175.186 94.2947C180.681 84.9128 188.373 76.1842 198.949 73.6584C209.525 71.1317 220.317 72.8822 229.459 78.7687V60.2746L216.254 17.6552L205.962 12.2311L181.657 26.1133L175.367 77.3777L175.186 94.2947Z" fill="#76B7AF"/>
<g opacity="0.699997">
<g opacity="0.699997">
<path opacity="0.699997" d="M175.186 94.2947C180.681 84.9128 188.373 76.1842 198.949 73.6584C209.525 71.1317 220.317 72.8822 229.459 78.7687V60.2746L216.254 17.6552L205.962 12.2311L181.657 26.1133L175.367 77.3777L175.186 94.2947Z" fill="white"/>
</g>
</g>
<path d="M228.941 60.9449C228.933 60.9577 228.733 60.8622 228.358 60.6704C227.981 60.4858 227.447 60.1704 226.717 59.8453C225.285 59.1502 223.158 58.228 220.408 57.484C217.664 56.7335 214.303 56.1532 210.538 56.0625C208.658 56.0208 206.682 56.0874 204.643 56.2824C202.604 56.4911 200.494 56.7504 198.435 57.4125C194.301 58.7264 190.634 60.7434 187.539 62.8696C184.436 65.0022 181.965 67.3619 180.123 69.525C178.259 71.6864 177.159 73.7291 176.398 75.1241C176.086 75.8232 175.838 76.381 175.652 76.8C175.478 77.1828 175.381 77.3827 175.367 77.3778C175.354 77.373 175.424 77.1643 175.573 76.7695C175.725 76.3778 175.936 75.7903 176.251 75.0534C176.972 73.628 178.043 71.542 179.897 69.3363C181.726 67.1275 184.2 64.7229 187.318 62.5542C190.431 60.3911 194.12 58.346 198.312 57.0128C200.413 56.3386 202.559 56.0778 204.604 55.8747C206.659 55.6837 208.653 55.6251 210.55 55.6773C214.345 55.7896 217.732 56.406 220.488 57.1998C223.25 57.9856 225.374 58.956 226.79 59.6992C227.512 60.0484 228.035 60.3887 228.4 60.5974C228.762 60.8133 228.948 60.9329 228.941 60.9449Z" fill="#263238"/>
<path d="M212.883 55.9956C212.768 56.014 211.047 46.2758 209.038 34.246C207.026 22.2123 205.49 12.4443 205.604 12.4251C205.717 12.4066 207.44 22.1433 209.449 34.177C211.46 46.2068 212.997 55.9763 212.883 55.9956Z" fill="#263238"/>
<path d="M196.775 57.7544C196.659 57.7512 196.841 48.5098 197.182 37.1157C197.522 25.7184 197.891 16.485 198.006 16.4882C198.122 16.4914 197.939 25.7313 197.599 37.1285C197.26 48.5218 196.89 57.7576 196.775 57.7544Z" fill="#263238"/>
<path d="M183.065 65.4319C183.051 65.4311 183.048 65.2786 183.056 64.9904C183.07 64.6549 183.087 64.2384 183.109 63.7295C183.162 62.6355 183.265 61.0536 183.42 59.1008C183.724 55.1952 184.255 49.808 185 43.8774C185.748 37.9444 186.569 32.5933 187.242 28.7342C187.575 26.8039 187.868 25.246 188.086 24.1721C188.192 23.6745 188.278 23.266 188.348 22.9385C188.412 22.6568 188.452 22.5099 188.467 22.5131C188.481 22.5155 188.468 22.6672 188.431 22.9529C188.382 23.2844 188.321 23.697 188.247 24.201C188.069 25.3416 187.829 26.8914 187.533 28.7816C186.935 32.6503 186.163 38.0022 185.415 43.9287C184.671 49.8545 184.093 55.2313 183.715 59.1273C183.532 61.0303 183.381 62.5922 183.271 63.7416C183.217 64.248 183.174 64.663 183.14 64.9961C183.105 65.2826 183.08 65.4327 183.065 65.4319Z" fill="#263238"/>
<path d="M215.227 59.1131C215.285 59.1196 215.259 59.8299 215.183 60.9736C215.088 62.2771 214.979 63.7796 214.857 65.4386C214.731 67.0985 214.617 68.601 214.517 69.9036C214.422 71.0466 214.343 71.7529 214.284 71.7505C214.228 71.7481 214.203 71.0369 214.222 69.8892C214.242 68.7406 214.31 67.1555 214.441 65.4081C214.572 63.6616 214.739 62.0837 214.889 60.9447C215.04 59.8066 215.17 59.1067 215.227 59.1131Z" fill="#263238"/>
<path d="M138.629 241.642C137.618 240.161 134.9 238.847 133.118 238.652C126.952 237.98 121.331 240.635 116.474 244.494L115.518 246.231C112.901 248.272 110.173 250.601 109.359 253.819C108.545 257.037 108.314 260.706 108.247 264.025C108.215 265.543 108.914 267.251 110.325 268.9C111.45 270.213 113.115 270.924 114.835 271.092C118.079 271.408 121.376 270.552 124.232 268.983C127.09 267.414 129.529 265.16 131.597 262.642C135.377 258.038 137.985 252.478 139.109 246.628C139.433 244.942 139.597 243.059 138.629 241.642Z" fill="#76B7AF"/>
<g opacity="0.399994">
<g opacity="0.399994">
<path opacity="0.399994" d="M138.629 241.642C137.618 240.161 134.9 238.847 133.118 238.652C126.952 237.98 121.331 240.635 116.474 244.494L115.518 246.231C112.901 248.272 110.173 250.601 109.359 253.819C108.545 257.037 108.314 260.706 108.247 264.025C108.215 265.543 108.914 267.251 110.325 268.9C111.45 270.213 113.115 270.924 114.835 271.092C118.079 271.408 121.376 270.552 124.232 268.983C127.09 267.414 129.529 265.16 131.597 262.642C135.377 258.038 137.985 252.478 139.109 246.628C139.433 244.942 139.597 243.059 138.629 241.642Z" fill="black"/>
</g>
</g>
<path d="M137.962 150.911C136.994 151.234 88.8941 219.408 87.6043 223.923C86.3145 228.438 79.2658 239.264 89.2168 249.399C99.1388 259.504 108.879 266.839 108.879 266.839C106.648 249.657 123.56 235.804 135.331 239.401L126.302 233.275L146.941 205.864" fill="#76B7AF"/>
<path d="M237.914 165.161C237.914 165.161 245.482 174.618 247.375 180.747C248.992 185.981 257.566 210.19 257.566 210.19L273.194 248.918C273.194 248.918 270.819 252.341 270.25 255.24C270.023 256.391 268.037 274.184 263.303 281.757L238.237 270.552L235.078 248.115L230.764 228.719L235.229 176.669L237.914 165.161Z" fill="#76B7AF"/>
<path d="M167.564 141.074C167.564 141.074 174.012 135.145 175.771 134.315C175.771 134.315 177.81 141.269 183.771 144.562C189.731 147.856 193.622 151.404 193.622 151.874V160.501C193.622 160.501 169.11 153.801 167.564 141.074Z" fill="#76B7AF"/>
<path d="M171.665 184.968L219.341 182.087L217.139 154.855L215.063 150.236L211.836 144.446C211.836 144.446 211.722 147.408 209.584 149.734C205.653 154.01 199.897 154.855 199.897 154.855L198.955 160.501L174.817 150.522C174.817 150.522 171.665 183.399 171.665 184.183" fill="#76B7AF"/>
<path d="M199.897 154.855C199.905 154.855 199.892 154.98 199.86 155.223C199.821 155.489 199.77 155.847 199.703 156.306C199.55 157.285 199.331 158.693 199.046 160.516L199.035 160.59L198.958 160.593C194.571 160.727 187.755 160.936 179.346 161.193C178.293 161.223 177.213 161.253 176.111 161.285C175.56 161.301 175.002 161.317 174.44 161.333C173.866 161.342 173.333 161.358 172.812 161.542C171.783 161.897 170.899 162.744 170.546 163.822C170.352 164.365 170.329 164.914 170.358 165.53C170.369 166.135 170.381 166.744 170.392 167.358C170.497 172.268 170.607 177.468 170.721 182.849C171.087 197.923 171.32 211.574 171.251 221.455C171.229 226.395 171.167 230.393 171.106 233.155C171.069 234.515 171.04 235.582 171.019 236.335C171.005 236.681 170.995 236.954 170.986 237.161C170.977 237.348 170.969 237.443 170.961 237.442C170.953 237.442 170.948 237.347 170.944 237.161C170.941 236.953 170.939 236.679 170.936 236.333C170.936 235.58 170.94 234.514 170.943 233.152C170.946 230.365 170.95 226.375 170.956 221.455C170.949 211.576 170.668 197.933 170.303 182.859C170.195 177.477 170.09 172.276 169.992 167.364C169.981 166.751 169.972 166.142 169.961 165.538C169.932 164.951 169.958 164.277 170.175 163.696C170.57 162.502 171.55 161.569 172.69 161.181C173.259 160.979 173.881 160.965 174.43 160.959C174.993 160.944 175.55 160.931 176.101 160.918C177.203 160.891 178.283 160.866 179.337 160.841C187.747 160.655 194.565 160.506 198.953 160.409L198.865 160.486C199.186 158.669 199.436 157.266 199.609 156.29C199.695 155.834 199.762 155.479 199.812 155.215C199.86 154.974 199.888 154.853 199.897 154.855Z" fill="#263238"/>
<path d="M178.016 171.02C178.016 172.148 177.101 173.062 175.974 173.062C174.846 173.062 173.932 172.148 173.932 171.02C173.932 169.893 174.846 168.978 175.974 168.978C177.101 168.978 178.016 169.893 178.016 171.02Z" fill="#263238"/>
<path d="M187.375 168.83C187.388 168.952 185.077 169.252 182.286 169.903C179.492 170.544 177.284 171.29 177.242 171.174C177.201 171.075 179.366 170.144 182.191 169.496C185.014 168.838 187.368 168.722 187.375 168.83Z" fill="#263238"/>
<path d="M183.954 172.877C183.915 172.992 182.351 172.536 180.393 172.129C178.435 171.716 176.82 171.505 176.83 171.386C176.836 171.276 178.49 171.3 180.479 171.72C182.468 172.133 183.993 172.774 183.954 172.877Z" fill="#263238"/>
<path d="M178.016 194.073C178.016 195.201 177.101 196.115 175.974 196.115C174.846 196.115 173.932 195.201 173.932 194.073C173.932 192.945 174.846 192.03 175.974 192.03C177.101 192.03 178.016 192.945 178.016 194.073Z" fill="#263238"/>
<path d="M187.375 191.882C187.388 192.004 185.077 192.304 182.286 192.955C179.492 193.597 177.284 194.342 177.242 194.227C177.201 194.127 179.366 193.197 182.191 192.549C185.014 191.89 187.368 191.775 187.375 191.882Z" fill="#263238"/>
<path d="M183.954 195.93C183.915 196.045 182.351 195.589 180.393 195.182C178.435 194.768 176.82 194.558 176.83 194.438C176.836 194.328 178.49 194.353 180.479 194.773C182.468 195.186 183.993 195.827 183.954 195.93Z" fill="#263238"/>
<path d="M178.016 217.125C178.016 218.253 177.101 219.168 175.974 219.168C174.846 219.168 173.932 218.253 173.932 217.125C173.932 215.997 174.846 215.083 175.974 215.083C177.101 215.083 178.016 215.997 178.016 217.125Z" fill="#263238"/>
<path d="M187.375 214.935C187.388 215.057 185.077 215.356 182.286 216.008C179.492 216.649 177.284 217.395 177.242 217.28C177.201 217.18 179.366 216.25 182.191 215.6C185.014 214.943 187.368 214.828 187.375 214.935Z" fill="#263238"/>
<path d="M183.954 218.983C183.915 219.097 182.351 218.641 180.393 218.234C178.435 217.821 176.82 217.611 176.83 217.49C176.836 217.38 178.49 217.405 180.479 217.826C182.468 218.238 183.993 218.879 183.954 218.983Z" fill="#263238"/>
<path d="M144.031 212.078C144.016 212.074 144.056 211.873 144.144 211.495C144.245 211.079 144.379 210.531 144.545 209.846C144.901 208.416 145.429 206.349 146.032 203.785C146.633 201.223 147.302 198.157 147.822 194.719C148.343 191.284 148.683 187.465 148.558 183.46C148.404 179.459 147.717 175.675 146.651 172.375C145.578 169.078 144.168 166.26 142.683 164.1C141.206 161.932 139.752 160.363 138.664 159.378C138.146 158.856 137.676 158.526 137.393 158.26C137.1 158.007 136.95 157.868 136.958 157.857C136.967 157.845 137.134 157.961 137.445 158.195C137.746 158.439 138.234 158.751 138.773 159.257C139.901 160.212 141.404 161.763 142.927 163.933C144.459 166.094 145.913 168.931 147.017 172.257C148.115 175.583 148.82 179.406 148.976 183.446C149.102 187.485 148.747 191.329 148.202 194.777C147.659 198.229 146.958 201.296 146.319 203.855C145.679 206.414 145.107 208.47 144.703 209.888C144.504 210.564 144.346 211.105 144.225 211.518C144.111 211.889 144.045 212.082 144.031 212.078Z" fill="#263238"/>
<path d="M143.29 211.375C143.262 211.381 143.166 210.999 143.017 210.306C142.864 209.612 142.684 208.601 142.5 207.345C142.129 204.834 141.815 201.327 141.867 197.447C141.926 193.567 142.34 190.071 142.782 187.571C143.002 186.321 143.21 185.314 143.383 184.627C143.552 183.936 143.659 183.559 143.687 183.566C143.715 183.571 143.662 183.961 143.543 184.659C143.419 185.355 143.256 186.367 143.073 187.617C142.707 190.119 142.343 193.598 142.285 197.453C142.233 201.309 142.499 204.796 142.793 207.306C142.939 208.562 143.073 209.578 143.178 210.278C143.277 210.979 143.318 211.369 143.29 211.375Z" fill="#263238"/>
<path d="M97.6397 232.286C97.6349 232.25 98.0884 232.17 98.887 231.973C99.6816 231.757 100.805 231.351 102.116 230.675C103.431 230.005 104.916 229.059 106.606 228.053C108.299 227.078 110.235 225.973 112.531 225.592C114.824 225.153 117.08 225.737 118.84 226.625C120.632 227.517 121.982 228.709 123.093 229.691C124.194 230.698 124.992 231.605 125.524 232.243C126.053 232.884 126.322 233.257 126.301 233.274C126.278 233.294 125.967 232.956 125.402 232.351C124.835 231.748 124.01 230.878 122.896 229.911C121.768 228.964 120.414 227.813 118.67 226.97C116.945 226.126 114.794 225.584 112.6 226.004C110.4 226.366 108.492 227.434 106.8 228.386C105.11 229.368 103.596 230.296 102.248 230.939C100.903 231.59 99.7426 231.961 98.9247 232.132C98.5178 232.224 98.1903 232.241 97.9744 232.272C97.7561 232.296 97.6413 232.302 97.6397 232.286Z" fill="#263238"/>
<path d="M114.264 215.588C114.276 215.561 114.547 215.667 115.028 215.881C115.271 215.984 115.563 216.121 115.886 216.311C116.21 216.498 116.593 216.692 116.976 216.966C117.773 217.474 118.658 218.176 119.566 219.035C120.457 219.912 121.36 220.956 122.168 222.155C122.962 223.364 123.576 224.601 124.04 225.76C124.483 226.931 124.788 228.017 124.949 228.948C125.053 229.41 125.084 229.837 125.131 230.209C125.182 230.579 125.196 230.901 125.197 231.165C125.208 231.692 125.201 231.982 125.172 231.983C125.09 231.988 125.063 230.823 124.659 229.009C124.465 228.1 124.135 227.042 123.682 225.904C123.208 224.774 122.596 223.569 121.82 222.386C121.029 221.214 120.154 220.185 119.297 219.31C118.421 218.452 117.573 217.741 116.809 217.21C115.293 216.137 114.229 215.662 114.264 215.588Z" fill="#263238"/>
<g opacity="0.399994">
<g opacity="0.399994">
<path opacity="0.399994" d="M124.816 230.986C121.996 224.333 115.135 219.594 107.914 219.313C106.941 219.274 105.929 219.32 105.059 219.756C104.188 220.193 103.496 221.111 103.595 222.08C103.643 222.554 103.87 223.01 103.819 223.483C103.703 224.556 102.378 224.937 101.34 225.233C99.3355 225.804 97.5112 226.992 96.1772 228.595C95.4797 229.433 94.9203 230.696 95.5905 231.557C96.1403 232.263 97.199 232.262 98.081 232.106C101.387 231.526 104.333 229.743 107.357 228.284C110.38 226.824 113.774 225.646 117.049 226.385C120.669 227.201 123.357 230.157 125.792 232.958" fill="black"/>
</g>
</g>
<path d="M230.763 228.719C230.774 228.729 230.67 228.849 230.464 229.069C230.222 229.318 229.92 229.631 229.548 230.015C229.151 230.426 228.656 230.921 228.051 231.464C227.452 232.012 226.786 232.657 225.994 233.306C224.45 234.648 222.52 236.144 220.303 237.696C218.068 239.222 215.533 240.792 212.768 242.248C209.992 243.687 207.256 244.873 204.726 245.835C202.186 246.771 199.856 247.5 197.873 248.001C196.888 248.281 195.978 248.46 195.186 248.64C194.394 248.825 193.706 248.949 193.141 249.04C192.615 249.127 192.185 249.197 191.842 249.252C191.544 249.296 191.387 249.312 191.384 249.298C191.382 249.283 191.534 249.239 191.826 249.169C192.165 249.094 192.589 248.998 193.11 248.881C193.668 248.766 194.35 248.618 195.133 248.412C195.918 248.21 196.82 248.013 197.795 247.716C199.761 247.18 202.07 246.426 204.59 245.476C207.1 244.497 209.814 243.309 212.574 241.878C215.324 240.429 217.85 238.879 220.085 237.378C222.304 235.851 224.241 234.387 225.803 233.079C226.604 232.447 227.282 231.821 227.895 231.292C228.511 230.766 229.022 230.291 229.436 229.898C229.828 229.538 230.149 229.243 230.405 229.009C230.629 228.808 230.753 228.708 230.763 228.719Z" fill="#263238"/>
<path d="M238.237 175.936C238.251 175.939 238.233 176.124 238.185 176.477C238.125 176.871 238.048 177.38 237.952 178.013C237.734 179.395 237.432 181.31 237.062 183.655C236.328 188.422 235.358 195.014 234.358 202.305C233.382 209.579 232.499 216.162 231.851 220.986C231.535 223.34 231.277 225.262 231.092 226.649C230.999 227.282 230.926 227.792 230.868 228.187C230.813 228.537 230.777 228.721 230.763 228.719C230.749 228.717 230.757 228.53 230.785 228.176C230.822 227.78 230.87 227.266 230.93 226.629C231.084 225.239 231.298 223.311 231.558 220.95C232.115 216.158 232.939 209.542 233.944 202.247C234.944 194.954 235.961 188.365 236.771 183.608C237.184 181.231 237.523 179.308 237.792 177.985C237.919 177.357 238.022 176.852 238.101 176.461C238.177 176.115 238.223 175.933 238.237 175.936Z" fill="#263238"/>
<path d="M211.074 255.294C211.05 255.277 211.206 255.006 211.509 254.526C211.812 254.046 212.264 253.363 212.836 252.527C213.979 250.854 215.607 248.576 217.481 246.116C219.356 243.657 221.121 241.483 222.431 239.938C223.086 239.165 223.625 238.547 224.007 238.128C224.389 237.709 224.61 237.486 224.633 237.505C224.654 237.523 224.475 237.782 224.133 238.232C223.729 238.751 223.238 239.382 222.661 240.125C221.41 241.716 219.685 243.915 217.813 246.37C215.943 248.825 214.28 251.071 213.077 252.699C212.515 253.452 212.036 254.093 211.642 254.619C211.299 255.07 211.097 255.311 211.074 255.294Z" fill="#263238"/>
<path d="M262.745 238.584C262.73 238.613 262.28 238.408 261.46 238.054C260.642 237.698 259.453 237.192 257.948 236.67C254.957 235.633 250.622 234.477 245.773 234.622C244.573 234.679 243.406 234.879 242.376 235.323C241.344 235.76 240.452 236.409 239.708 237.13C238.215 238.588 237.313 240.287 236.694 241.74C236.073 243.203 235.702 244.443 235.426 245.291C235.156 246.143 235 246.613 234.971 246.605C234.944 246.597 235.047 246.114 235.269 245.247C235.499 244.382 235.827 243.124 236.421 241.627C237.014 240.141 237.907 238.382 239.438 236.855C240.202 236.1 241.129 235.413 242.216 234.947C243.301 234.472 244.522 234.263 245.754 234.204C250.696 234.057 255.059 235.277 258.048 236.392C259.552 236.954 260.729 237.504 261.529 237.906C261.931 238.103 262.235 238.274 262.441 238.388C262.647 238.504 262.752 238.571 262.745 238.584Z" fill="#263238"/>
<path d="M256.738 225.983C256.738 226.067 255.478 226.028 253.497 226.371C252.505 226.533 251.345 226.838 250.094 227.273C248.851 227.736 247.523 228.343 246.212 229.134C244.911 229.942 243.765 230.849 242.788 231.746C241.83 232.662 241.032 233.557 240.435 234.365C239.23 235.975 238.692 237.115 238.617 237.076C238.591 237.064 238.714 236.775 238.961 236.262C239.08 236.002 239.237 235.691 239.454 235.349C239.666 235.005 239.886 234.597 240.197 234.192C240.771 233.349 241.561 232.417 242.522 231.467C243.503 230.538 244.666 229.602 245.993 228.778C247.33 227.971 248.693 227.361 249.966 226.911C251.248 226.486 252.438 226.206 253.45 226.078C253.952 225.987 254.416 225.975 254.818 225.943C255.222 225.905 255.57 225.907 255.855 225.919C256.425 225.933 256.738 225.955 256.738 225.983Z" fill="#263238"/>
<path d="M263.191 276.844C262.514 271.601 258.856 266.9 254.029 264.741C250.206 263.03 244.921 262.638 241.287 264.722C237.653 266.804 232.79 271.993 233.772 276.065L242.111 290.072C246.306 293.292 252.546 293.412 256.986 290.54C261.426 287.67 263.868 282.087 263.191 276.844Z" fill="#76B7AF"/>
<g opacity="0.399994">
<g opacity="0.399994">
<path opacity="0.399994" d="M263.191 276.844C262.514 271.601 258.856 266.9 254.029 264.741C250.206 263.03 244.921 262.638 241.287 264.722C237.653 266.804 232.79 271.993 233.772 276.065L242.111 290.072C246.306 293.292 252.546 293.412 256.986 290.54C261.426 287.67 263.868 282.087 263.191 276.844Z" fill="black"/>
</g>
</g>
<path d="M260.594 287.055C260.563 287.036 260.886 286.493 261.414 285.493C261.9 284.472 262.546 282.947 262.855 280.951C263.15 278.97 263.126 276.5 262.241 273.981C262.052 273.342 261.751 272.729 261.475 272.091C261.137 271.484 260.818 270.847 260.392 270.261C259.579 269.07 258.593 267.922 257.397 266.96C256.211 265.989 254.911 265.229 253.572 264.686C252.219 264.171 250.848 263.876 249.527 263.737C246.871 263.514 244.456 263.949 242.57 264.656C240.676 265.355 239.265 266.221 238.362 266.901C237.456 267.58 236.992 268.01 236.964 267.978C236.954 267.968 237.062 267.853 237.279 267.645C237.504 267.448 237.802 267.111 238.263 266.772C239.144 266.045 240.551 265.126 242.466 264.379C244.373 263.624 246.836 263.145 249.561 263.354C250.916 263.485 252.327 263.779 253.721 264.304C255.101 264.857 256.445 265.639 257.663 266.638C258.891 267.625 259.902 268.807 260.732 270.032C261.167 270.635 261.491 271.29 261.833 271.916C262.114 272.572 262.417 273.202 262.607 273.859C263.493 276.449 263.486 278.983 263.147 280.998C262.793 283.029 262.093 284.561 261.558 285.567C261.286 286.069 261.023 286.431 260.865 286.685C260.699 286.937 260.607 287.063 260.594 287.055Z" fill="#263238"/>
<path d="M237.656 267.36C237.542 267.378 236.567 261.882 235.477 255.085C234.387 248.285 233.596 242.761 233.711 242.742C233.824 242.725 234.8 248.22 235.89 255.019C236.979 261.816 237.77 267.342 237.656 267.36Z" fill="#263238"/>
<g opacity="0.399994">
<g opacity="0.399994">
<path opacity="0.399994" d="M232.221 235.272L236.481 234.98C239.243 230.671 243.777 227.536 248.785 226.475C249.955 226.226 251.185 226.09 252.338 226.404C253.493 226.72 254.562 227.566 254.856 228.726C255.151 229.885 254.445 231.288 253.269 231.507C255.636 232.11 257.716 233.757 258.844 235.924C259.084 236.385 259.26 237.008 258.893 237.376C258.653 237.618 258.275 237.639 257.934 237.634C255.965 237.604 254.017 237.196 252.049 237.103C250.08 237.01 247.999 237.272 246.405 238.429C244.817 239.581 243.932 241.446 243.169 243.252C240.497 249.58 238.452 256.656 237.233 263.414C236.25 259.505 236.157 255.354 235.444 251.681C234.422 246.425 233.436 241.046 232.221 235.272Z" fill="black"/>
</g>
</g>
<g opacity="0.399994">
<g opacity="0.399994">
<path opacity="0.399994" d="M139.778 270.716C145.088 276.382 152.247 279.026 159.911 280.276C167.573 281.526 175.4 281.088 183.151 280.646C185.062 280.537 187.331 280.202 188.161 278.478C188.752 277.255 188.35 275.801 187.87 274.531C184.457 265.485 177.694 258.177 171.088 251.117C168.672 248.534 166.096 245.851 162.716 244.81C159 243.667 154.777 244.678 151.253 243.038C147.021 241.068 145.291 236.076 143.982 231.595C142.634 226.979 142.634 226.979 141.286 222.362C141.88 232.42 141.779 240.499 141.779 240.499C141.779 240.499 139.002 259.086 139.343 263.304C139.685 267.522 139.778 270.716 139.778 270.716Z" fill="black"/>
</g>
</g>
<path d="M192.617 155.98C192.609 156.008 192.234 155.924 191.563 155.747C190.889 155.578 189.927 155.279 188.756 154.864C186.413 154.038 183.252 152.642 180.021 150.64C176.793 148.63 174.14 146.415 172.362 144.681C171.47 143.815 170.777 143.086 170.325 142.557C169.87 142.034 169.628 141.735 169.65 141.716C169.671 141.697 169.953 141.957 170.444 142.446C170.93 142.938 171.651 143.632 172.564 144.466C174.384 146.134 177.042 148.292 180.241 150.285C183.444 152.269 186.557 153.694 188.86 154.587C190.011 155.035 190.953 155.375 191.609 155.592C192.265 155.815 192.625 155.952 192.617 155.98Z" fill="#263238"/>
<path d="M214.994 151.523C215.018 151.538 214.91 151.748 214.691 152.118C214.479 152.491 214.125 153.003 213.651 153.607C212.706 154.815 211.189 156.34 209.217 157.628C207.241 158.909 205.231 159.68 203.743 160.053C202.999 160.242 202.387 160.358 201.961 160.402C201.534 160.451 201.299 160.466 201.295 160.437C201.283 160.365 202.215 160.214 203.662 159.769C205.108 159.328 207.054 158.532 208.989 157.278C210.919 156.017 212.435 154.56 213.424 153.417C214.416 152.275 214.933 151.484 214.994 151.523Z" fill="#263238"/>
<path d="M218.711 156.473C218.808 156.503 217.97 158.643 216.098 160.721C214.241 162.811 212.207 163.88 212.167 163.787C212.093 163.679 213.979 162.478 215.786 160.441C217.61 158.421 218.595 156.412 218.711 156.473Z" fill="#263238"/>
<path d="M176.609 251.911C176.609 251.911 176.794 251.872 177.113 251.81C178.888 251.461 184.797 250.39 185.75 251.342C186.873 252.465 194.874 260.327 194.874 260.327C194.874 260.327 193.33 262.854 188.277 260.327C183.223 257.8 176.609 251.911 176.609 251.911Z" fill="#FFBE9D"/>
<path d="M165.259 235.953C167.065 234.749 169.5 235.18 170.782 236.932L195.172 269.282L188.926 273.838L164.293 241.802C162.862 239.94 163.305 237.256 165.259 235.953Z" fill="#263238"/>
<path d="M109.485 257.615C109.485 257.615 138.452 262.315 142.442 262.636C146.432 262.954 157.443 274.604 160.635 275.722C163.826 276.838 172.444 276.679 172.444 276.679C172.444 276.679 188.084 277.493 188.562 276.687C189.041 275.881 189.998 276.04 188.562 273.009C187.126 269.976 185.37 267.742 185.37 267.742C185.37 267.742 189.36 272.688 190.478 272.848C191.595 273.009 193.988 273.295 193.829 271.157C193.67 269.019 189.52 260.241 189.52 260.241C189.52 260.241 187.764 256.143 184.573 255.24C181.381 254.336 167.497 247.634 167.497 247.634H152.655L135.331 239.402C135.331 239.402 124.849 236.033 114.869 247.035C112.907 249.199 111.478 251.793 110.532 254.556L109.485 257.615Z" fill="#FFBE9D"/>
<path d="M192.307 266.839C192.281 266.851 192.129 266.55 191.877 265.997C191.598 265.36 191.254 264.573 190.846 263.641C190.413 262.609 189.914 261.423 189.366 260.122C188.898 258.803 188.137 257.384 186.838 256.432C186.19 255.958 185.467 255.617 184.762 255.293C184.052 254.976 183.367 254.671 182.71 254.377C181.399 253.801 180.211 253.3 179.211 252.882C178.274 252.494 177.481 252.165 176.84 251.899C176.281 251.663 175.975 251.524 175.985 251.496C175.995 251.469 176.32 251.557 176.897 251.746C177.474 251.935 178.303 252.226 179.32 252.608C180.336 252.99 181.539 253.465 182.862 254.023C183.525 254.311 184.215 254.61 184.93 254.92C185.642 255.241 186.393 255.589 187.084 256.095C188.483 257.121 189.268 258.632 189.73 259.996C190.245 261.304 190.715 262.497 191.122 263.534C191.48 264.483 191.783 265.285 192.027 265.936C192.232 266.507 192.334 266.828 192.307 266.839Z" fill="#EB996E"/>
<path d="M177.742 258.803C177.776 258.762 178.377 259.195 179.273 259.99C180.168 260.783 181.345 261.951 182.521 263.35C183.695 264.753 184.639 266.115 185.264 267.136C185.889 268.157 186.211 268.824 186.164 268.852C186.111 268.884 185.7 268.27 185.017 267.299C184.334 266.327 183.362 265.006 182.201 263.619C181.037 262.233 179.907 261.046 179.07 260.204C178.233 259.361 177.701 258.85 177.742 258.803Z" fill="#EB996E"/>
<path d="M186.024 276.91C186.012 276.934 185.793 276.853 185.413 276.669C185.038 276.479 184.505 276.174 183.893 275.732C182.655 274.861 181.158 273.393 179.663 271.664C178.161 269.942 176.824 268.367 175.869 267.215C174.916 266.061 174.347 265.329 174.391 265.291C174.435 265.254 175.082 265.917 176.092 267.021C177.103 268.123 178.477 269.669 179.977 271.388C181.467 273.112 182.902 274.583 184.071 275.497C185.231 276.424 186.057 276.848 186.024 276.91Z" fill="#EB996E"/>
<path d="M177.425 276.894C177.397 276.942 176.822 276.667 175.932 276.147C175.044 275.627 173.846 274.851 172.593 273.901C171.341 272.947 170.271 272.008 169.522 271.302C168.775 270.596 168.343 270.127 168.38 270.086C168.467 269.989 170.368 271.675 172.846 273.567C175.328 275.455 177.49 276.784 177.425 276.894Z" fill="#EB996E"/>
<path d="M224.948 288.932C224.948 288.932 222.402 284.999 222.05 283.593C221.698 282.186 222.05 275.504 217.361 276.558V277.042C217.477 277.613 217.361 291.212 217.361 291.212L224.948 288.932Z" fill="#FFBE9D"/>
<path d="M164.889 296.049C164.889 296.049 160.556 335.976 207.303 334.812C245.416 333.862 244.745 296.714 244.745 296.714L164.889 296.049Z" fill="#76B7AF"/>
<path d="M247.677 296.424C247.677 302.241 228.174 306.956 204.117 306.956C180.059 306.956 160.556 302.241 160.556 296.424C160.556 290.608 180.059 285.894 204.117 285.894C228.174 285.894 247.677 290.608 247.677 296.424Z" fill="#76B7AF"/>
<g opacity="0.399994">
<g opacity="0.399994">
<path opacity="0.399994" d="M244.745 296.049C244.745 299.724 226.845 302.703 204.764 302.703C182.684 302.703 164.784 299.724 164.784 296.049C164.784 292.374 182.684 289.394 204.764 289.394C226.845 289.394 244.745 292.374 244.745 296.049Z" fill="black"/>
</g>
</g>
<path d="M246.198 299.435C246.202 299.441 246.143 299.485 246.022 299.563C245.88 299.652 245.702 299.762 245.482 299.9C245.008 300.201 244.286 300.606 243.339 301.093C241.443 302.063 238.586 303.28 234.897 304.259C231.212 305.252 226.743 306.051 221.75 306.714C216.748 307.331 211.203 307.563 205.396 307.519C199.588 307.471 194.053 307.277 189.035 306.839C184.017 306.394 179.527 305.669 175.821 304.783C172.109 303.914 169.187 302.896 167.214 302.098C166.217 301.723 165.473 301.36 164.961 301.132C164.725 301.022 164.536 300.933 164.383 300.861C164.255 300.799 164.19 300.763 164.193 300.756C164.196 300.75 164.266 300.773 164.401 300.823C164.558 300.884 164.753 300.96 164.995 301.055C165.517 301.258 166.27 301.596 167.273 301.946C169.259 302.695 172.182 303.666 175.887 304.495C179.588 305.34 184.065 306.032 189.068 306.455C194.073 306.871 199.599 307.052 205.399 307.102C211.196 307.144 216.719 306.925 221.704 306.333C226.68 305.692 231.151 304.925 234.822 303.973C238.501 303.036 241.356 301.869 243.266 300.948C244.221 300.485 244.953 300.103 245.44 299.827C245.669 299.705 245.852 299.605 246 299.526C246.128 299.46 246.195 299.428 246.198 299.435Z" fill="#263238"/>
<path d="M219.509 295.15C219.509 295.15 224.277 279.169 225.918 277.042C227.275 275.286 236.884 268.018 240.181 265.547C240.997 264.935 241.915 264.489 242.902 264.228C246.171 263.363 249.43 262.79 254.81 265.119C260.553 267.604 262.146 273.028 262.146 273.028L244.207 284.178L243.508 291.726L229.07 288.043C229.07 288.043 229.252 287.275 228.646 285.84C228.646 285.84 224.07 296.964 219.509 295.15Z" fill="#FFBE9D"/>
<path d="M202.203 283.803C200.38 281.359 198.861 279.073 197.653 277.112C196.47 275.135 195.593 273.488 195.02 272.333C194.459 271.171 194.128 270.535 194.088 270.552C194.048 270.569 194.302 271.237 194.797 272.436C195.304 273.628 196.128 275.319 197.269 277.339C198.436 279.343 199.928 281.672 201.735 284.148C203.534 286.629 205.642 289.257 207.885 291.98C211.01 295.737 213.903 299.246 216.253 302.321C216.468 302.312 216.685 302.301 216.9 302.291C214.55 299.095 211.592 295.451 208.373 291.579C206.132 288.858 204.019 286.252 202.203 283.803Z" fill="#F5F5F5"/>
<path d="M190.734 272.353C190.694 272.372 190.972 273.033 191.494 274.213C192.013 275.396 192.769 277.105 193.656 279.234C195.435 283.49 197.714 289.451 199.703 296.203C200.33 298.456 200.996 300.646 201.782 302.679C201.989 302.677 202.212 302.676 202.427 302.673C201.632 300.612 200.963 298.377 200.308 296.024C198.31 289.242 195.955 283.28 194.066 279.057C193.123 276.944 192.304 275.26 191.716 274.108C191.124 272.957 190.772 272.335 190.734 272.353Z" fill="#F5F5F5"/>
<path d="M192.31 270.437C192.272 270.458 192.581 271.11 193.171 272.273C193.764 273.433 194.635 275.105 195.737 277.159C197.946 281.262 201.038 286.915 204.802 292.959C206.981 296.474 209.17 299.697 211.195 302.509C211.419 302.502 211.645 302.495 211.869 302.488C209.828 299.591 207.588 296.256 205.338 292.625C201.585 286.599 198.434 280.988 196.128 276.943C195.011 274.993 194.088 273.379 193.387 272.155C192.73 271.028 192.349 270.417 192.31 270.437Z" fill="#F5F5F5"/>
<path d="M227.411 297.876C225.83 293.941 223.176 290.693 220.307 288.127C217.431 285.538 214.351 283.53 211.473 281.7C208.585 279.879 205.878 278.223 203.522 276.544C198.801 273.199 195.531 269.79 193.426 267.339C192.373 266.11 191.599 265.118 191.081 264.439C190.841 264.124 190.646 263.87 190.492 263.667C190.357 263.495 190.283 263.41 190.274 263.415C190.266 263.422 190.321 263.519 190.44 263.704C190.58 263.917 190.758 264.183 190.978 264.515C191.465 265.218 192.209 266.238 193.238 267.497C195.293 270.006 198.536 273.487 203.262 276.907C205.618 278.62 208.322 280.305 211.192 282.141C214.052 283.986 217.096 285.995 219.917 288.559C222.737 291.105 225.302 294.265 226.84 298.114C227.287 299.199 227.662 300.338 227.909 301.503C228.117 301.48 228.327 301.46 228.531 301.437C228.274 300.2 227.877 299.007 227.411 297.876Z" fill="#F5F5F5"/>
<path d="M225.965 300.518C225.096 298.258 223.684 295.703 221.68 293.204C219.683 290.695 217.096 288.284 214.217 285.999C211.333 283.717 208.454 281.737 205.884 279.883C203.309 278.034 201.047 276.301 199.237 274.738C197.428 273.174 196.062 271.799 195.159 270.812C194.252 269.827 193.784 269.25 193.742 269.283C193.725 269.297 193.824 269.455 194.028 269.745C194.228 270.038 194.549 270.451 194.974 270.973C195.826 272.017 197.155 273.453 198.941 275.072C200.728 276.69 202.979 278.474 205.542 280.353C208.099 282.238 210.963 284.23 213.824 286.493C216.681 288.76 219.242 291.126 221.228 293.569C223.221 296.005 224.645 298.486 225.55 300.683C225.692 301.03 225.815 301.364 225.934 301.694C226.072 301.681 226.211 301.669 226.349 301.655C226.23 301.282 226.115 300.912 225.965 300.518Z" fill="#F5F5F5"/>
<path d="M204.916 296.805C201.839 291.161 199.244 285.951 197.406 282.159C196.531 280.341 195.803 278.829 195.241 277.662C194.73 276.601 194.428 276.021 194.388 276.039C194.348 276.056 194.574 276.669 195.017 277.763C195.463 278.856 196.136 280.425 197.002 282.349C198.739 286.194 201.278 291.449 204.362 297.107C205.408 299.028 206.444 300.865 207.451 302.602C207.681 302.597 207.909 302.592 208.142 302.587C207.1 300.764 206.017 298.827 204.916 296.805Z" fill="#F5F5F5"/>
<path d="M211.335 289.596C206.258 284.624 202.03 279.763 199.088 276.154C197.616 274.35 196.458 272.862 195.652 271.837C194.852 270.808 194.396 270.247 194.36 270.273C194.327 270.297 194.713 270.908 195.453 271.984C196.201 273.055 197.307 274.587 198.739 276.432C201.6 280.123 205.794 285.053 210.893 290.047C213.429 292.556 216.002 294.776 218.163 296.951C219.869 298.651 221.287 300.35 222.374 301.977C222.553 301.964 222.73 301.951 222.91 301.937C221.821 300.186 220.36 298.355 218.578 296.543C216.413 294.32 213.858 292.092 211.335 289.596Z" fill="#F5F5F5"/>
<path d="M198.156 300.646C197.087 297.424 196.365 294.328 195.686 291.51C194.389 285.861 193.18 281.291 191.887 278.295C190.648 275.28 189.578 273.811 189.578 273.811C189.569 273.816 189.614 273.92 189.711 274.117C189.828 274.343 189.975 274.627 190.156 274.979C190.536 275.742 191.081 276.876 191.659 278.387C192.873 281.392 194.009 285.945 195.252 291.611C195.904 294.439 196.601 297.548 197.659 300.811C197.869 301.428 198.094 302.058 198.334 302.69C198.519 302.691 198.706 302.691 198.908 302.691C198.638 302.003 198.387 301.318 198.156 300.646Z" fill="#F5F5F5"/>
<path d="M230.502 290.956C230.502 290.948 230.567 290.944 230.693 290.943C230.819 290.938 231.006 290.953 231.253 290.968C231.742 291.006 232.462 291.086 233.386 291.221C235.227 291.515 237.908 291.904 241.104 292.93C241.901 293.218 242.702 293.544 243.523 293.994C243.922 294.23 244.329 294.518 244.619 294.947C244.925 295.377 244.983 295.958 244.846 296.469C244.711 297.032 244.214 297.388 243.796 297.65C243.373 297.928 242.896 298.189 242.412 298.389C241.441 298.799 240.424 299.167 239.35 299.453C235.096 300.635 230.318 301.562 225.261 302.162C215.132 303.359 205.882 303.124 199.23 302.879C195.9 302.75 193.207 302.595 191.347 302.478C190.446 302.416 189.731 302.367 189.207 302.33C188.983 302.31 188.8 302.294 188.65 302.28C188.525 302.267 188.462 302.257 188.462 302.249C188.462 302.242 188.527 302.238 188.653 302.238C188.804 302.24 188.987 302.243 189.211 302.245C189.736 302.263 190.452 302.286 191.356 302.316C193.255 302.38 195.938 302.473 199.24 302.584C205.89 302.753 215.122 302.94 225.212 301.747C230.25 301.15 235.008 300.237 239.248 299.081C240.303 298.806 241.315 298.446 242.267 298.051C242.749 297.853 243.178 297.623 243.604 297.349C244.027 297.086 244.411 296.801 244.512 296.377C244.625 295.946 244.587 295.482 244.339 295.131C244.102 294.771 243.734 294.498 243.359 294.271C242.59 293.839 241.77 293.494 241.006 293.209C237.865 292.16 235.184 291.723 233.361 291.382C232.444 291.223 231.729 291.117 231.244 291.05C230.758 290.987 230.502 290.973 230.502 290.956Z" fill="#263238"/>
<path d="M234.396 281.079C234.466 281.177 232.97 282.339 231.264 283.922C229.55 285.5 228.274 286.898 228.181 286.82C228.096 286.752 229.243 285.214 230.98 283.615C232.709 282.011 234.335 280.988 234.396 281.079Z" fill="#EB996E"/>
<path d="M234.039 287.414C233.977 287.523 232.927 286.831 231.459 286.879C229.99 286.893 228.97 287.627 228.905 287.521C228.872 287.482 229.08 287.236 229.525 286.977C229.966 286.718 230.659 286.479 231.451 286.462C232.242 286.446 232.944 286.656 233.395 286.897C233.851 287.137 234.069 287.374 234.039 287.414Z" fill="#EB996E"/>
<path d="M88.4424 121.753C87.9737 122.119 62.524 133.548 62.524 133.548C62.524 133.548 69.5318 148.43 83.1323 141.799C95.5473 135.747 88.4424 121.753 88.4424 121.753Z" fill="#455A64"/>
<path d="M88.1587 39.5581C88.7358 39.5581 89.2037 59.3187 89.2037 83.688C89.2037 108.067 88.7358 127.823 88.1587 127.823C87.5816 127.823 87.1137 108.067 87.1137 83.688C87.1137 59.3187 87.5816 39.5581 88.1587 39.5581Z" fill="#455A64"/>
<path d="M70.0506 99.17C69.5827 99.5359 44.1323 110.965 44.1323 110.965C44.1323 110.965 51.14 125.847 64.7405 119.216C77.1563 113.164 70.0506 99.17 70.0506 99.17Z" fill="#455A64"/>
<path d="M69.7673 38.064C70.3444 38.064 70.8123 53.1028 70.8123 71.6507C70.8123 90.2042 70.3444 105.24 69.7673 105.24C69.1902 105.24 68.7223 90.2042 68.7223 71.6507C68.7223 53.1028 69.1902 38.064 69.7673 38.064Z" fill="#455A64"/>
<path d="M47.7707 76.8899C47.3028 77.2559 21.8524 88.6845 21.8524 88.6845C21.8524 88.6845 28.8601 103.567 42.4606 96.9363C54.8764 90.8837 47.7707 76.8899 47.7707 76.8899Z" fill="#455A64"/>
<path d="M47.4873 40.3353C48.0644 40.3353 48.5324 49.8777 48.5324 61.6466C48.5324 73.4195 48.0644 82.9595 47.4873 82.9595C46.9103 82.9595 46.4423 73.4195 46.4423 61.6466C46.4423 49.8777 46.9103 40.3353 47.4873 40.3353Z" fill="#455A64"/>
<path d="M144.441 99.804C144.441 114.165 132.799 125.807 118.439 125.807C104.077 125.807 92.4359 114.165 92.4359 99.804C92.4359 85.4434 104.077 73.8013 118.439 73.8013C132.799 73.8013 144.441 85.4434 144.441 99.804Z" fill="#455A64"/>
<path d="M117.463 76.7061L115.424 43.2679H125.007L122.357 76.7061H117.463Z" fill="#455A64"/>
<path d="M129.377 118.047C129.381 118.053 129.323 118.092 129.206 118.164C129.067 118.246 128.893 118.347 128.68 118.471C128.445 118.601 128.164 118.779 127.812 118.95C127.45 119.115 127.038 119.3 126.578 119.508C124.707 120.298 121.798 121.095 118.132 121.064C114.504 120.988 110.061 120.011 106.058 117.226C104.077 115.84 102.228 114.018 100.806 111.793C99.3718 109.581 98.2995 107.026 97.6983 104.295C97.1341 101.557 97.0715 98.7853 97.4792 96.18C97.8701 93.5683 98.8156 91.1492 100.061 89.076C102.582 84.9015 106.241 82.1991 109.523 80.65C112.857 79.1274 115.838 78.6691 117.869 78.6282C118.373 78.6306 118.825 78.6322 119.223 78.6346C119.614 78.6483 119.944 78.6956 120.21 78.7181C120.456 78.7454 120.655 78.7671 120.816 78.7847C120.952 78.8024 121.021 78.8152 121.02 78.8216C121.019 78.8289 120.949 78.8313 120.812 78.8273C120.65 78.8208 120.45 78.812 120.204 78.8016C119.937 78.7935 119.609 78.759 119.22 78.7582C118.825 78.7679 118.376 78.7783 117.876 78.7903C115.863 78.881 112.923 79.3803 109.649 80.9173C106.425 82.48 102.845 85.1688 100.392 89.2734C99.1792 91.3121 98.261 93.6822 97.8837 96.2442C97.4888 98.8006 97.5531 101.519 98.1069 104.209C98.6976 106.889 99.7466 109.397 101.15 111.57C102.539 113.754 104.342 115.543 106.28 116.911C110.193 119.659 114.558 120.655 118.14 120.768C121.755 120.837 124.643 120.095 126.518 119.357C126.981 119.164 127.394 118.991 127.758 118.839C128.114 118.679 128.4 118.514 128.64 118.397C128.861 118.288 129.04 118.198 129.185 118.127C129.308 118.068 129.374 118.04 129.377 118.047Z" fill="#263238"/>
<path d="M14.1777 0.000167847L23.3862 33.3115H62.385L71.5927 0.000167847H14.1777Z" fill="#455A64"/>
<path d="M69.7673 6.6035C69.7673 6.71908 57.7311 6.81299 42.8865 6.81299C28.0372 6.81299 16.0034 6.71908 16.0034 6.6035C16.0034 6.48793 28.0372 6.39482 42.8865 6.39482C57.7311 6.39482 69.7673 6.48793 69.7673 6.6035Z" fill="#263238"/>
<path d="M76.9172 8.59204H68.9351L70.2121 5.10784H76.9172C77.8796 5.10784 78.6589 5.888 78.6589 6.85034C78.6589 7.81189 77.8796 8.59204 76.9172 8.59204Z" fill="#263238"/>
<path d="M8.79248 8.59204H16.7746L15.4976 5.10784H8.79248C7.83013 5.10784 7.05078 5.888 7.05078 6.85034C7.05078 7.81189 7.83013 8.59204 8.79248 8.59204Z" fill="#263238"/>
<path d="M149.976 43.2708H4.3208V32.8575H149.976V43.2708Z" fill="#76B7AF"/>
<path d="M338.405 181.099C336.18 180.236 333.674 181.335 332.803 183.558L326.339 200.866L334.379 203.819L340.889 186.678C341.735 184.452 340.626 181.96 338.405 181.099Z" fill="#76B7AF"/>
<path d="M338.231 186.571C338.231 187.589 337.406 188.414 336.388 188.414C335.371 188.414 334.546 187.589 334.546 186.571C334.546 185.552 335.371 184.728 336.388 184.728C337.406 184.728 338.231 185.552 338.231 186.571Z" fill="#FAFAFA"/>
<path d="M333.652 197.923C333.652 198.941 332.828 199.766 331.809 199.766C330.793 199.766 329.967 198.941 329.967 197.923C329.967 196.905 330.793 196.08 331.809 196.08C332.828 196.08 333.652 196.905 333.652 197.923Z" fill="#FAFAFA"/>
<path d="M326.339 200.866L313.891 233.338L329.216 233.147L341.714 206.315L326.339 200.866Z" fill="#F5F5F5"/>
<path d="M294.973 282.721H337.914V233.339H294.973V282.721Z" fill="#76B7AF"/>
<path d="M337.915 245.641C337.915 245.757 328.301 245.85 316.445 245.85C304.586 245.85 294.973 245.757 294.973 245.641C294.973 245.525 304.586 245.432 316.445 245.432C328.301 245.432 337.915 245.525 337.915 245.641Z" fill="white"/>
<path d="M337.915 250.958C337.915 251.073 328.301 251.167 316.445 251.167C304.586 251.167 294.973 251.073 294.973 250.958C294.973 250.842 304.586 250.749 316.445 250.749C328.301 250.749 337.915 250.842 337.915 250.958Z" fill="white"/>
<path d="M337.915 256.274C337.915 256.39 328.301 256.483 316.445 256.483C304.586 256.483 294.973 256.39 294.973 256.274C294.973 256.158 304.586 256.064 316.445 256.064C328.301 256.064 337.915 256.158 337.915 256.274Z" fill="white"/>
<path d="M337.915 261.59C337.915 261.706 328.301 261.8 316.445 261.8C304.586 261.8 294.973 261.706 294.973 261.59C294.973 261.474 304.586 261.381 316.445 261.381C328.301 261.381 337.915 261.474 337.915 261.59Z" fill="white"/>
<path d="M337.915 266.906C337.915 267.022 328.301 267.116 316.445 267.116C304.586 267.116 294.973 267.022 294.973 266.906C294.973 266.791 304.586 266.697 316.445 266.697C328.301 266.697 337.915 266.791 337.915 266.906Z" fill="white"/>
<path d="M337.915 272.223C337.915 272.339 328.301 272.432 316.445 272.432C304.586 272.432 294.973 272.339 294.973 272.223C294.973 272.108 304.586 272.014 316.445 272.014C328.301 272.014 337.915 272.108 337.915 272.223Z" fill="white"/>
<path d="M269.737 206.156L298.448 208.452C298.448 208.452 299.269 194.506 285.815 193.029C272.362 191.554 269.737 206.156 269.737 206.156Z" fill="#455A64"/>
<path d="M306.324 233.338C305.778 233.528 302.795 226.372 299.662 217.358C296.527 208.34 294.429 200.878 294.973 200.688C295.519 200.5 298.501 207.653 301.636 216.671C304.769 225.686 306.869 233.15 306.324 233.338Z" fill="#455A64"/>
<path d="M308.04 327.919C308.042 327.933 307.847 327.974 307.472 328.041C307.055 328.11 306.509 328.2 305.828 328.313C305.466 328.37 305.068 328.432 304.637 328.5C304.2 328.557 303.722 328.592 303.21 328.643C302.186 328.732 301.022 328.883 299.726 328.899C299.077 328.92 298.398 328.944 297.693 328.968C296.987 328.988 296.251 328.948 295.488 328.939C293.963 328.941 292.341 328.785 290.633 328.654C287.225 328.29 283.501 327.659 279.678 326.631C275.864 325.565 272.337 324.21 269.22 322.786C267.682 322.028 266.208 321.335 264.896 320.554C264.236 320.175 263.582 319.835 262.984 319.457C262.389 319.076 261.818 318.71 261.271 318.361C260.165 317.686 259.24 316.963 258.403 316.365C257.989 316.06 257.596 315.785 257.25 315.514C256.913 315.236 256.603 314.98 256.32 314.747C255.792 314.302 255.368 313.946 255.045 313.674C254.756 313.426 254.61 313.29 254.618 313.279C254.628 313.268 254.793 313.383 255.099 313.61C255.434 313.865 255.874 314.201 256.421 314.619C256.71 314.843 257.026 315.089 257.37 315.356C257.723 315.617 258.122 315.88 258.54 316.175C259.387 316.752 260.319 317.457 261.432 318.112C261.98 318.453 262.553 318.809 263.15 319.18C263.75 319.549 264.404 319.879 265.065 320.252C266.375 321.015 267.848 321.692 269.381 322.437C272.489 323.833 275.998 325.169 279.789 326.228C283.588 327.249 287.287 327.888 290.672 328.271C292.37 328.411 293.982 328.58 295.499 328.592C296.256 328.608 296.987 328.657 297.691 328.646C298.394 328.631 299.069 328.617 299.715 328.603C301.005 328.606 302.167 328.476 303.189 328.411C303.701 328.37 304.177 328.346 304.614 328.302C305.047 328.247 305.444 328.198 305.806 328.151C306.49 328.071 307.039 328.007 307.458 327.958C307.837 327.918 308.037 327.903 308.04 327.919Z" fill="#455A64"/>
<path d="M273.868 324.749C267.842 323.947 259.98 326.279 255.472 330.356C261.855 329.503 268.095 327.601 273.868 324.749Z" fill="#455A64"/>
<path d="M274.173 324.825C276.379 319.161 273.118 311.181 273.118 311.181C272.483 310.105 272.769 318.54 274.173 324.825Z" fill="#455A64"/>
<path d="M264.67 320.331C266.28 316.173 263.942 310.331 263.942 310.331C263.484 309.544 263.67 315.728 264.67 320.331Z" fill="#455A64"/>
<path d="M282.677 326.8C284.287 322.642 281.947 316.8 281.947 316.8C281.491 316.014 281.677 322.197 282.677 326.8Z" fill="#455A64"/>
<path d="M264.851 320.419C260.368 319.823 254.518 321.557 251.163 324.591C255.913 323.956 260.556 322.541 264.851 320.419Z" fill="#455A64"/>
<path d="M283.593 327.474C277.23 327.559 269.441 331.17 265.391 336.081C271.872 334.226 278.047 331.306 283.593 327.474Z" fill="#455A64"/>
<path d="M307.851 297.08C305.271 293.206 300.482 290.921 295.847 291.354C291.213 291.788 286.93 294.921 285.113 299.206C283.583 302.816 283.784 307.038 285.294 310.654C286.806 314.271 289.549 317.296 292.789 319.502C301.273 325.28 313.579 325.02 321.463 318.447C324.39 316.006 326.741 312.674 327.281 308.901C327.903 304.538 325.866 299.903 322.231 297.413C318.597 294.923 313.538 294.697 309.697 296.855" fill="#76B7AF"/>
<path d="M307.882 297.063C307.384 294.995 305.194 293.485 303.084 293.754L305.923 297.135C304.383 297.329 302.988 298.422 302.433 299.871C302.3 300.22 302.26 300.704 302.59 300.878C302.809 300.993 303.073 300.899 303.301 300.804C304.452 300.327 305.601 299.85 306.751 299.373C306.985 301.29 307.698 303.147 308.807 304.728C309.592 303.043 310.038 301.199 310.108 299.341C311.378 299.903 312.648 300.466 313.919 301.03C313.622 299.938 312.989 298.94 312.128 298.207C313.254 297.991 314.341 297.567 315.316 296.963C315.61 296.781 315.932 296.467 315.799 296.148C315.696 295.903 315.387 295.835 315.122 295.809C312.621 295.565 310.051 296.099 307.854 297.317" fill="#455A64"/>
<path d="M307.631 298.486C308.226 294.648 307.898 290.67 306.683 286.982C307.591 286.779 308.711 286.643 309.298 287.365C309.639 287.783 309.676 288.363 309.684 288.902C309.73 292.527 309.033 296.162 307.646 299.512" fill="#455A64"/>
<path d="M289.123 312.303C289.105 312.32 288.881 312.119 288.527 311.706C288.172 311.295 287.709 310.652 287.253 309.789C286.336 308.087 285.552 305.35 286.041 302.367C286.538 299.384 288.162 297.044 289.578 295.729C290.288 295.058 290.934 294.599 291.402 294.325C291.87 294.048 292.147 293.929 292.158 293.952C292.205 294.022 291.123 294.574 289.786 295.938C288.456 297.277 286.933 299.563 286.453 302.435C285.983 305.306 286.689 307.961 287.517 309.657C288.343 311.381 289.19 312.251 289.123 312.303Z" fill="white"/>
<path d="M292.949 315.194C292.911 315.299 292.308 315.17 291.702 314.735C291.093 314.302 290.775 313.773 290.862 313.704C290.953 313.627 291.385 313.997 291.945 314.395C292.501 314.795 292.992 315.083 292.949 315.194Z" fill="white"/>
<path d="M131.653 253.039C131.306 253.118 133.894 266.136 133.894 266.136H140.528L143.458 253.557C143.458 253.557 138.547 251.488 131.653 253.039Z" fill="#455A64"/>
<path d="M127.659 326.325C127.659 326.325 117.897 298.991 119.264 291.572C120.63 284.154 123.559 282.592 125.902 280.249C128.244 277.906 130.197 275.953 130.783 273.61C131.369 271.268 130.783 261.897 130.783 261.897C130.783 261.897 129.026 259.162 129.611 258.186C130.197 257.21 144.645 258.186 144.645 258.186C144.645 258.186 144.645 259.749 143.473 261.505C143.473 261.505 143.083 272.439 143.668 273.61C144.254 274.781 153.235 284.739 154.602 289.815C155.968 294.892 149.211 326.325 149.211 326.325H127.659Z" fill="#F5F5F5"/>
<path d="M127.659 326.325C127.659 326.325 127.791 326.315 128.039 326.309C128.302 326.306 128.665 326.301 129.138 326.294C130.117 326.286 131.539 326.275 133.378 326.26C137.078 326.243 142.451 326.22 149.21 326.191L149.079 326.297C149.912 322.324 150.809 317.818 151.723 312.863C152.621 307.906 153.591 302.501 154.256 296.701C154.412 295.251 154.55 293.775 154.582 292.281C154.597 291.537 154.591 290.775 154.45 290.061C154.28 289.347 153.985 288.641 153.658 287.952C152.283 285.211 150.401 282.641 148.449 280.071C147.467 278.786 146.443 277.51 145.408 276.222C144.892 275.576 144.367 274.936 143.862 274.26C143.733 274.099 143.61 273.907 143.491 273.714C143.403 273.486 143.346 273.25 143.325 273.044C143.26 272.614 143.234 272.194 143.211 271.77C143.064 268.39 143.165 264.97 143.264 261.498L143.266 261.442L143.299 261.39C143.451 261.154 143.611 260.894 143.745 260.621C144.129 259.859 144.395 259.005 144.435 258.186L144.631 258.395C141.336 258.185 138.08 258.019 134.894 257.969C133.31 257.963 131.703 257.918 130.209 258.153C130.044 258.181 129.816 258.26 129.796 258.291C129.739 258.38 129.691 258.553 129.701 258.72C129.707 259.063 129.813 259.428 129.938 259.778C130.2 260.478 130.564 261.154 130.953 261.786L130.983 261.833L130.985 261.884C131.128 264.38 131.227 266.836 131.239 269.253C131.238 270.462 131.23 271.659 131.101 272.853C130.992 274.075 130.452 275.2 129.798 276.169C129.135 277.143 128.358 278.002 127.572 278.822C126.78 279.636 125.999 280.437 125.178 281.19C124.36 281.935 123.558 282.665 122.87 283.476C122.179 284.284 121.606 285.171 121.151 286.101C120.247 287.964 119.711 289.945 119.393 291.869C119.261 292.825 119.284 293.795 119.36 294.739C119.424 295.683 119.553 296.61 119.685 297.516C120.261 301.144 121.097 304.45 121.878 307.439C123.477 313.413 124.993 318.117 126.032 321.346C126.558 322.944 126.966 324.185 127.247 325.042C127.383 325.452 127.486 325.768 127.562 325.998C127.633 326.214 127.659 326.325 127.659 326.325C127.659 326.325 127.608 326.218 127.527 326.009C127.444 325.783 127.329 325.471 127.18 325.066C126.879 324.233 126.444 322.997 125.899 321.39C124.819 318.173 123.263 313.48 121.627 307.507C120.828 304.516 119.975 301.21 119.379 297.565C119.243 296.652 119.109 295.72 119.04 294.763C118.961 293.806 118.93 292.823 119.065 291.822C119.382 289.858 119.915 287.861 120.836 285.944C121.299 284.991 121.887 284.075 122.595 283.243C123.299 282.408 124.116 281.662 124.928 280.918C125.735 280.176 126.516 279.372 127.3 278.562C128.078 277.747 128.84 276.898 129.479 275.955C130.112 275.014 130.615 273.954 130.714 272.807C130.837 271.65 130.844 270.454 130.843 269.254C130.828 266.85 130.726 264.396 130.581 261.909L130.612 262.006C130.203 261.344 129.835 260.663 129.556 259.919C129.422 259.544 129.302 259.156 129.292 258.722C129.288 258.505 129.316 258.275 129.471 258.043C129.732 257.795 129.92 257.815 130.126 257.75C131.722 257.499 133.296 257.553 134.9 257.554C138.1 257.604 141.356 257.769 144.659 257.978L144.864 257.991L144.854 258.186C144.806 259.125 144.524 259.991 144.118 260.808C143.977 261.098 143.808 261.372 143.647 261.621L143.682 261.513C143.582 264.974 143.481 268.403 143.625 271.747C143.647 272.163 143.675 272.582 143.735 272.98C143.756 273.193 143.805 273.363 143.86 273.528C143.962 273.687 144.063 273.849 144.195 274.015C144.687 274.674 145.215 275.32 145.729 275.964C146.763 277.253 147.788 278.533 148.771 279.823C150.729 282.407 152.614 284.984 154.012 287.782C154.346 288.489 154.65 289.209 154.831 289.978C154.984 290.763 154.982 291.529 154.968 292.288C154.932 293.804 154.789 295.286 154.63 296.743C153.95 302.562 152.964 307.965 152.048 312.923C151.115 317.879 150.197 322.381 149.342 326.353L149.319 326.46L149.21 326.459C142.423 326.429 137.029 326.407 133.314 326.39C131.486 326.375 130.072 326.364 129.097 326.356C128.633 326.349 128.275 326.344 128.018 326.341C127.776 326.336 127.659 326.325 127.659 326.325Z" fill="#263238"/>
<path d="M147.338 323.491C149.572 315.629 151.556 304.543 152.238 295.586C152.321 294.51 152.321 293.266 151.507 292.554C150.513 291.685 148.99 292.149 147.731 292.551C144.048 293.726 140.063 293.938 136.277 293.159C132.575 292.398 128.907 290.703 125.179 291.32C124.243 291.475 123.263 291.826 122.733 292.612C122.128 293.51 122.275 294.697 122.445 295.766C123.909 304.941 126.902 315.491 129.338 323.491H147.338Z" fill="#76B7AF"/>
<path d="M149.79 293.68C149.808 293.697 149.568 293.979 149.086 294.445C148.605 294.91 147.865 295.541 146.877 296.223C144.918 297.588 141.837 299.07 138.175 299.53C134.512 299.99 131.16 299.316 128.924 298.478C127.798 298.062 126.925 297.635 126.344 297.302C125.762 296.971 125.46 296.756 125.472 296.736C125.511 296.662 126.773 297.448 129.022 298.199C131.25 298.954 134.539 299.566 138.123 299.115C141.706 298.665 144.74 297.26 146.714 295.975C148.706 294.694 149.735 293.618 149.79 293.68Z" fill="white"/>
</svg>
