<svg width="68" height="68" viewBox="0 0 68 68" fill="none" xmlns="http://www.w3.org/2000/svg">
<path opacity="0.9" d="M36.8192 8.5C22.7233 8.5 11.3333 19.9183 11.3333 34H2.83334L13.8692 45.0358L14.0675 45.4467L25.5 34H17C17 23.0492 25.8825 14.1667 36.8333 14.1667C47.7842 14.1667 56.6667 23.0492 56.6667 34C56.6667 44.9508 47.7842 53.8333 36.8333 53.8333C31.3508 53.8333 26.4067 51.595 22.8225 48.0108L18.8133 52.02C23.4175 56.6383 29.7783 59.5 36.8192 59.5C50.915 59.5 62.3333 48.0817 62.3333 34C62.3333 19.9183 50.915 8.5 36.8192 8.5ZM34 22.6667V36.8333L46.1267 44.03L48.1667 40.5875L38.25 34.7083V22.6667H34Z" fill="#373737"/>
</svg>
