<svg width="775" height="814" viewBox="0 0 775 814" fill="none" xmlns="http://www.w3.org/2000/svg">
<path d="M774.023 283.045H580.239V81.0418H774.023V283.045Z" fill="#E1E1E1"/>
<path d="M760.898 283.045H567.114V81.0418H760.898V283.045Z" fill="#FAFAFA"/>
<path d="M567.176 282.985H760.838V81.1017H567.176V282.985ZM760.96 283.105H567.056V80.9801H760.96V283.105Z" fill="#E1E1E1"/>
<path d="M734.851 255.89H593.165V108.197H734.851V255.89Z" fill="#FAFAFA"/>
<path d="M593.166 256.871C593.278 257.004 591.931 258.549 589.67 260.937C587.406 263.324 584.226 266.555 580.663 270.068C577.096 273.58 573.823 276.707 571.407 278.927C568.991 281.147 567.434 282.461 567.312 282.338C567.189 282.215 568.527 280.677 570.79 278.29C573.052 275.901 576.241 272.663 579.817 269.142C583.389 265.62 586.673 262.486 589.089 260.266C591.505 258.044 593.053 256.739 593.166 256.871Z" fill="#E1E1E1"/>
<path d="M734.85 256.509C734.981 256.396 736.527 257.743 738.914 260.005C741.303 262.268 744.534 265.449 748.046 269.012C751.557 272.577 754.684 275.853 756.904 278.269C759.126 280.683 760.438 282.241 760.315 282.362C760.193 282.486 758.656 281.148 756.267 278.886C753.879 276.623 750.64 273.435 747.119 269.858C743.598 266.285 740.465 263.002 738.243 260.586C736.023 258.17 734.718 256.622 734.85 256.509Z" fill="#E1E1E1"/>
<path d="M734.462 108.591C734.35 108.458 735.697 106.914 737.958 104.525C740.222 102.138 743.402 98.9069 746.965 95.3945C750.53 91.8822 753.805 88.7547 756.22 86.5348C758.636 84.3148 760.194 83.0007 760.315 83.1241C760.439 83.2475 759.101 84.785 756.838 87.1719C754.576 89.5606 751.387 92.7989 747.811 96.3203C744.237 99.8417 740.953 102.976 738.537 105.196C736.123 107.418 734.575 108.723 734.462 108.591Z" fill="#E1E1E1"/>
<path d="M592.777 108.953C592.647 109.066 591.1 107.719 588.713 105.457C586.324 103.194 583.093 100.014 579.581 96.4505C576.071 92.8855 572.943 89.6091 570.723 87.195C568.501 84.779 567.189 83.2216 567.312 83.1C567.434 82.9766 568.971 84.3143 571.36 86.576C573.749 88.8395 576.987 92.0269 580.509 95.6046C584.03 99.1786 587.163 102.46 589.385 104.876C591.605 107.292 592.91 108.841 592.777 108.953Z" fill="#E1E1E1"/>
<path d="M734.462 255.89C734.451 255.879 734.44 255.638 734.429 255.171C734.424 254.669 734.413 253.99 734.4 253.111C734.386 251.26 734.364 248.595 734.337 245.137C734.302 238.142 734.255 227.962 734.193 215.037C734.125 189.169 734.03 152.319 733.914 108.197L734.462 108.743C693.216 108.767 644.777 108.794 593.18 108.825H593.165L593.793 108.197C593.76 162.406 593.73 213.12 593.704 255.89L593.165 255.351C635.505 255.466 670.757 255.56 695.474 255.625C707.821 255.687 717.536 255.734 724.21 255.767C727.508 255.794 730.046 255.814 731.814 255.829C732.649 255.843 733.295 255.852 733.778 255.859C734.221 255.87 734.451 255.879 734.462 255.89C734.473 255.899 734.262 255.91 733.838 255.921C733.369 255.928 732.743 255.937 731.93 255.95C730.189 255.965 727.684 255.986 724.432 256.012C717.784 256.045 708.112 256.092 695.816 256.153C671.017 256.221 635.649 256.315 593.165 256.428L592.626 256.429V255.89C592.602 213.12 592.57 162.406 592.539 108.197V107.569H593.165H593.18C644.777 107.598 693.216 107.627 734.462 107.65H735.01L735.008 108.197C734.892 152.465 734.8 189.436 734.731 215.387C734.669 228.26 734.622 238.396 734.587 245.364C734.56 248.777 734.538 251.405 734.524 253.231C734.509 254.084 734.5 254.745 734.493 255.233C734.482 255.68 734.473 255.899 734.462 255.89Z" fill="#E1E1E1"/>
<path d="M668.158 166.151C663.121 158.587 653.769 154.126 644.72 154.971C635.672 155.817 627.308 161.934 623.761 170.302C620.775 177.349 621.165 185.593 624.115 192.654C627.066 199.715 632.423 205.623 638.749 209.931C655.314 221.21 679.341 220.704 694.735 207.87C700.453 203.104 705.042 196.596 706.094 189.229C707.311 180.712 703.334 171.664 696.236 166.801C689.139 161.938 679.263 161.499 671.761 165.71" fill="#E1E1E1"/>
<path d="M668.218 166.117C667.245 162.08 662.969 159.131 658.85 159.655C660.696 161.857 662.546 164.057 664.393 166.259C661.384 166.636 658.663 168.771 657.579 171.601C657.318 172.281 657.24 173.227 657.886 173.567C658.311 173.792 658.828 173.606 659.275 173.423C661.52 172.49 663.765 171.559 666.009 170.628C666.466 174.371 667.859 177.995 670.024 181.083C671.558 177.792 672.425 174.193 672.565 170.564C675.045 171.664 677.524 172.762 680.006 173.862C679.427 171.73 678.189 169.782 676.508 168.35C678.706 167.929 680.828 167.101 682.732 165.923C683.307 165.569 683.937 164.952 683.678 164.331C683.476 163.852 682.87 163.719 682.353 163.668C677.472 163.193 672.453 164.235 668.164 166.614" fill="#ECECEC"/>
<path d="M667.729 168.897C668.89 161.404 668.25 153.635 665.877 146.434C667.651 146.037 669.836 145.772 670.983 147.182C671.648 147.995 671.722 149.13 671.735 150.181C671.827 157.26 670.464 164.357 667.759 170.901" fill="#ECECEC"/>
<path d="M631.59 195.873C631.554 195.906 631.118 195.514 630.427 194.708C629.735 193.906 628.83 192.651 627.938 190.965C626.149 187.643 624.618 182.296 625.573 176.473C626.544 170.65 629.715 166.081 632.478 163.511C633.865 162.204 635.125 161.307 636.039 160.77C636.952 160.229 637.493 159.998 637.517 160.04C637.606 160.178 635.495 161.256 632.885 163.921C630.287 166.535 627.314 171 626.379 176.605C625.459 182.212 626.838 187.396 628.454 190.707C630.067 194.073 631.721 195.772 631.59 195.873Z" fill="white"/>
<path d="M639.06 201.519C638.988 201.724 637.81 201.472 636.624 200.621C635.437 199.778 634.815 198.745 634.987 198.608C635.165 198.459 636.005 199.183 637.1 199.958C638.187 200.74 639.146 201.303 639.06 201.519Z" fill="white"/>
<path d="M336.559 303.538H66.6653V22.1963H336.559V303.538Z" fill="#E1E1E1"/>
<path d="M318.28 303.538H48.3867V22.1963H318.28V303.538Z" fill="#FAFAFA"/>
<path d="M48.4702 303.454H318.197V22.2798H48.4702V303.454ZM318.364 303.621H48.3032V22.1129H318.364V303.621Z" fill="#E1E1E1"/>
<path d="M281.999 265.717H84.6679V60.0169H281.999V265.717Z" fill="#FAFAFA"/>
<path d="M84.6682 267.085C84.8225 267.27 82.9493 269.421 79.7982 272.747C76.6471 276.074 72.2181 280.573 67.2555 285.464C62.2892 290.355 57.7277 294.71 54.3624 297.803C50.9971 300.896 48.8298 302.724 48.6592 302.553C48.4904 302.383 50.3509 300.243 53.5038 296.915C56.6531 293.59 61.0948 289.077 66.0756 284.175C71.0528 279.27 75.6251 274.905 78.9904 271.812C82.3557 268.719 84.5121 266.9 84.6682 267.085Z" fill="#E1E1E1"/>
<path d="M281.999 266.581C282.184 266.425 284.335 268.298 287.66 271.451C290.987 274.6 295.487 279.029 300.377 283.994C305.269 288.96 309.624 293.521 312.717 296.885C315.81 300.25 317.638 302.419 317.467 302.588C317.296 302.759 315.156 300.896 311.829 297.745C308.504 294.594 303.991 290.152 299.088 285.174C294.184 280.195 289.818 275.622 286.725 272.257C283.632 268.893 281.814 266.735 281.999 266.581Z" fill="#E1E1E1"/>
<path d="M281.459 60.5661C281.305 60.381 283.178 58.23 286.329 54.9047C289.48 51.5775 293.907 47.0777 298.872 42.1877C303.838 37.2959 308.399 32.9413 311.765 29.8483C315.128 26.7553 317.297 24.9274 317.466 25.098C317.637 25.2687 315.774 27.4087 312.623 30.7359C309.472 34.0613 305.032 38.5737 300.052 43.4765C295.073 48.381 290.5 52.7465 287.137 55.8395C283.771 58.9325 281.615 60.7513 281.459 60.5661Z" fill="#E1E1E1"/>
<path d="M84.1275 61.0705C83.9423 61.2266 81.7914 59.3534 78.466 56.2005C75.1406 53.0512 70.639 48.6222 65.749 43.6578C60.859 38.6915 56.5026 34.13 53.4096 30.7665C50.3184 27.4013 48.4887 25.2321 48.6594 25.0633C48.8318 24.8927 50.9719 26.7551 54.2972 29.9062C57.6226 33.0573 62.1351 37.499 67.0396 42.4779C71.9423 47.4569 76.3078 52.0293 79.4008 55.3946C82.4938 58.758 84.3126 60.9163 84.1275 61.0705Z" fill="#E1E1E1"/>
<path d="M281.459 265.718C281.444 265.704 281.43 265.366 281.417 264.718C281.406 264.018 281.392 263.072 281.374 261.849C281.352 259.269 281.323 255.559 281.285 250.743C281.238 240.998 281.17 226.822 281.083 208.821C280.991 172.793 280.856 121.47 280.698 60.0179L281.459 60.7785C224.015 60.8112 156.551 60.8493 84.6872 60.891H84.6672L85.5403 60.0179C85.4968 135.517 85.455 206.151 85.4187 265.718L84.6672 264.967C143.636 265.127 192.734 265.259 227.157 265.352C244.355 265.435 257.884 265.502 267.181 265.548C271.773 265.584 275.309 265.613 277.771 265.635C278.934 265.651 279.834 265.666 280.506 265.677C281.123 265.689 281.446 265.704 281.459 265.718C281.473 265.731 281.181 265.746 280.59 265.76C279.938 265.771 279.065 265.784 277.934 265.802C275.505 265.822 272.018 265.851 267.49 265.889C258.232 265.934 244.76 266 227.634 266.085C193.095 266.178 143.834 266.31 84.6672 266.468L83.9176 266.47V265.718C83.8813 206.151 83.8395 135.517 83.7941 60.0179V59.143H84.6672H84.6872C156.551 59.1848 224.015 59.2229 281.459 59.2556H282.221L282.22 60.0179C282.062 121.671 281.927 173.162 281.835 209.307C281.748 227.235 281.68 241.355 281.635 251.059C281.595 255.811 281.566 259.471 281.544 262.016C281.528 263.204 281.513 264.123 281.503 264.804C281.488 265.424 281.473 265.733 281.459 265.718Z" fill="#E1E1E1"/>
<path d="M182.485 98.7482C181.812 101.021 170.251 119.234 153.588 125.433C136.923 131.632 124.52 138.471 129.152 146.637C133.783 154.804 154.256 150.349 154.256 150.349C154.256 150.349 112.716 195.512 151.822 221.317C199.517 252.788 249.354 140.139 249.354 140.139L182.485 98.7482Z" fill="#ECECEC"/>
<path d="M241.505 155.599C241.375 155.812 225.652 146.444 206.391 134.674C187.123 122.901 171.615 113.188 171.743 112.976C171.874 112.762 187.593 122.132 206.861 133.903C226.122 145.672 241.634 155.387 241.505 155.599Z" fill="#E1E1E1"/>
<path d="M234.121 169.107C233.992 169.321 217.008 159.354 196.19 146.847C175.365 134.337 158.593 124.026 158.722 123.811C158.851 123.597 175.831 133.562 196.655 146.072C217.475 158.579 234.25 168.893 234.121 169.107Z" fill="#E1E1E1"/>
<path d="M225.209 181.908C225.08 182.122 206.01 170.901 182.618 156.849C159.219 142.791 140.359 131.227 140.488 131.013C140.617 130.798 159.684 142.016 183.083 156.074C206.475 170.127 225.338 181.694 225.209 181.908Z" fill="#E1E1E1"/>
<path d="M214.084 197.747C213.951 197.957 199.172 188.943 181.075 177.615C162.973 166.283 148.411 156.928 148.544 156.717C148.676 156.505 163.452 165.517 181.554 176.851C199.651 188.179 214.216 197.534 214.084 197.747Z" fill="#E1E1E1"/>
<path d="M201.012 213.043C200.874 213.251 187.111 204.37 170.274 193.21C153.433 182.047 139.897 172.832 140.035 172.623C140.171 172.416 153.932 181.294 170.775 192.459C187.61 203.618 201.15 212.836 201.012 213.043Z" fill="#E1E1E1"/>
<path d="M184.321 223.654C184.29 223.708 183.551 223.356 182.237 222.673C180.923 221.993 179.044 220.969 176.739 219.669C172.13 217.072 165.841 213.342 159.043 208.985C152.245 204.625 146.23 200.469 141.946 197.363C139.804 195.813 138.087 194.533 136.922 193.622C135.753 192.714 135.125 192.188 135.161 192.137C135.197 192.086 135.896 192.516 137.127 193.337C138.499 194.264 140.238 195.439 142.313 196.84C146.685 199.806 152.744 203.874 159.531 208.225C166.316 212.574 172.54 216.384 177.062 219.117C179.202 220.417 180.994 221.508 182.411 222.368C183.669 223.143 184.352 223.599 184.321 223.654Z" fill="#E1E1E1"/>
<path d="M145.209 151.377C145.142 151.593 140.747 150.199 135.992 147.153C131.22 144.133 128.099 140.74 128.266 140.588C128.453 140.388 131.797 143.43 136.478 146.391C141.139 149.38 145.311 151.125 145.209 151.377Z" fill="#E1E1E1"/>
<path d="M246.257 137.791C246.282 137.809 246.075 138.145 245.66 138.768C245.182 139.461 244.569 140.358 243.806 141.465C242.184 143.801 239.789 147.144 236.794 151.252C230.806 159.464 222.357 170.685 212.711 182.834C203.06 194.983 194.042 205.754 187.397 213.447C184.075 217.295 181.36 220.382 179.454 222.491C178.546 223.484 177.813 224.287 177.245 224.909C176.733 225.454 176.453 225.732 176.43 225.712C176.406 225.69 176.64 225.372 177.108 224.789C177.642 224.138 178.334 223.301 179.187 222.261C181.082 219.997 183.703 216.866 186.91 213.035C193.427 205.24 202.359 194.411 212.003 182.271C221.641 170.133 230.165 158.983 236.281 150.871C239.288 146.878 241.746 143.616 243.521 141.26C244.34 140.191 245.001 139.33 245.513 138.66C245.975 138.072 246.231 137.773 246.257 137.791Z" fill="#E1E1E1"/>
<path d="M232.737 128.154C232.933 128.307 216.368 149.925 195.742 176.432C175.108 202.947 158.227 224.312 158.031 224.158C157.833 224.005 174.394 202.392 195.029 175.876C215.656 149.37 232.541 128.002 232.737 128.154Z" fill="#E1E1E1"/>
<path d="M213.879 117.466C213.906 117.483 213.72 117.851 213.34 118.539C212.906 119.303 212.344 120.294 211.645 121.528C210.144 124.11 207.902 127.802 204.992 132.28C199.206 141.25 190.594 153.246 180.446 165.982C170.303 178.731 160.712 189.925 153.79 198.043C150.362 202.021 147.561 205.271 145.544 207.61C144.604 208.672 143.849 209.525 143.268 210.182C142.74 210.763 142.449 211.061 142.426 211.039C142.402 211.019 142.645 210.685 143.128 210.066C143.676 209.38 144.39 208.491 145.275 207.385C147.239 204.998 149.964 201.687 153.302 197.631C160.1 189.41 169.609 178.152 179.738 165.419C189.874 152.7 198.547 140.793 204.46 131.928C207.432 127.504 209.753 123.866 211.343 121.345C212.102 120.149 212.714 119.187 213.184 118.446C213.614 117.789 213.852 117.45 213.879 117.466Z" fill="#E1E1E1"/>
<path d="M198.405 108.602C198.603 108.755 184.485 127.443 166.874 150.342C149.26 173.247 134.824 191.685 134.626 191.533C134.428 191.38 148.543 172.697 166.159 149.79C183.768 126.893 198.207 108.452 198.405 108.602Z" fill="#E1E1E1"/>
<path d="M186.764 101.022C186.816 101.057 186.286 101.941 185.279 103.516C184.783 104.311 184.155 105.266 183.36 106.33C182.574 107.401 181.719 108.653 180.645 109.935C178.586 112.574 175.927 115.551 172.792 118.678C169.619 121.764 165.947 124.973 161.84 128.017C157.705 131.029 153.543 133.574 149.649 135.679C145.727 137.736 142.089 139.382 138.956 140.558C137.411 141.199 135.961 141.64 134.705 142.072C133.451 142.511 132.351 142.825 131.445 143.061C129.642 143.55 128.639 143.791 128.622 143.731C128.604 143.671 129.577 143.316 131.341 142.724C132.229 142.439 133.307 142.078 134.54 141.595C135.772 141.121 137.199 140.64 138.72 139.965C141.802 138.721 145.385 137.026 149.253 134.946C153.094 132.817 157.206 130.274 161.304 127.29C165.376 124.273 169.031 121.109 172.211 118.081C175.352 115.014 178.04 112.102 180.149 109.532C181.249 108.283 182.133 107.065 182.953 106.03C183.783 104.999 184.451 104.077 184.988 103.317C186.081 101.808 186.711 100.988 186.764 101.022Z" fill="#E1E1E1"/>
<path d="M135.729 645.472C134.945 645.648 140.797 675.092 140.797 675.092H155.801L162.426 646.641C162.426 646.641 151.32 641.963 135.729 645.472Z" fill="#E1E1E1"/>
<path d="M126.697 811.208C126.697 811.208 104.619 749.393 107.71 732.615C110.801 715.836 117.425 712.304 122.723 707.005C128.022 701.707 132.436 697.29 133.761 691.992C135.086 686.694 133.761 665.502 133.761 665.502C133.761 665.502 129.788 659.319 131.113 657.11C132.436 654.905 165.111 657.11 165.111 657.11C165.111 657.11 165.111 660.644 162.461 664.618C162.461 664.618 161.579 689.344 162.904 691.992C164.227 694.642 184.538 717.161 187.628 728.642C190.719 740.121 175.437 811.208 175.437 811.208H126.697Z" fill="#F5F5F5"/>
<path d="M126.697 811.208C126.697 811.208 126.996 811.184 127.557 811.173C128.151 811.166 128.973 811.153 130.042 811.137C132.257 811.119 135.473 811.095 139.63 811.061C147.998 811.024 160.148 810.972 175.435 810.904L175.14 811.144C177.022 802.161 179.051 791.969 181.12 780.764C183.15 769.553 185.343 757.328 186.847 744.214C187.199 740.934 187.512 737.594 187.584 734.216C187.617 732.535 187.604 730.813 187.285 729.195C186.902 727.58 186.234 725.986 185.493 724.427C182.384 718.23 178.129 712.416 173.713 706.602C171.493 703.698 169.177 700.814 166.837 697.9C165.67 696.437 164.483 694.992 163.339 693.462C163.049 693.097 162.771 692.665 162.501 692.226C162.305 691.711 162.172 691.179 162.127 690.712C161.98 689.739 161.92 688.79 161.867 687.832C161.535 680.186 161.764 672.454 161.989 664.601L161.992 664.472L162.069 664.356C162.41 663.823 162.773 663.234 163.076 662.617C163.944 660.893 164.545 658.962 164.637 657.112L165.078 657.582C157.629 657.108 150.265 656.733 143.059 656.618C139.477 656.607 135.843 656.504 132.463 657.036C132.091 657.099 131.576 657.279 131.53 657.348C131.4 657.549 131.293 657.94 131.314 658.319C131.331 659.094 131.569 659.92 131.854 660.71C132.444 662.294 133.266 663.824 134.146 665.253L134.213 665.358L134.221 665.473C134.544 671.119 134.767 676.672 134.792 682.139C134.79 684.871 134.772 687.579 134.482 690.28C134.235 693.043 133.013 695.59 131.534 697.779C130.035 699.982 128.278 701.926 126.501 703.778C124.709 705.62 122.945 707.43 121.086 709.134C119.236 710.821 117.423 712.469 115.868 714.304C114.303 716.132 113.007 718.136 111.978 720.239C109.936 724.454 108.721 728.936 108.002 733.287C107.705 735.447 107.757 737.641 107.928 739.774C108.073 741.912 108.365 744.007 108.663 746.058C109.968 754.259 111.856 761.736 113.622 768.497C117.24 782.007 120.669 792.644 123.017 799.946C124.206 803.564 125.13 806.37 125.767 808.305C126.072 809.235 126.306 809.95 126.477 810.467C126.639 810.957 126.697 811.208 126.697 811.208C126.697 811.208 126.581 810.966 126.401 810.492C126.21 809.982 125.951 809.276 125.613 808.36C124.932 806.476 123.949 803.682 122.718 800.048C120.273 792.773 116.755 782.158 113.056 768.65C111.248 761.886 109.318 754.41 107.972 746.167C107.665 744.101 107.36 741.994 107.204 739.829C107.026 737.667 106.957 735.441 107.26 733.178C107.979 728.738 109.184 724.22 111.266 719.887C112.313 717.729 113.644 715.66 115.245 713.779C116.837 711.888 118.685 710.203 120.522 708.521C122.346 706.84 124.112 705.021 125.887 703.19C127.646 701.349 129.369 699.429 130.813 697.294C132.244 695.168 133.382 692.769 133.607 690.177C133.883 687.559 133.899 684.857 133.897 682.141C133.865 676.703 133.632 671.156 133.304 665.529L133.375 665.748C132.451 664.253 131.619 662.714 130.986 661.029C130.685 660.183 130.412 659.303 130.389 658.321C130.381 657.831 130.445 657.31 130.794 656.785C131.385 656.226 131.81 656.272 132.277 656.126C135.885 655.558 139.445 655.678 143.071 655.682C150.308 655.794 157.672 656.166 165.142 656.642L165.606 656.669L165.583 657.112C165.474 659.236 164.839 661.192 163.92 663.042C163.601 663.696 163.218 664.316 162.855 664.881L162.933 664.636C162.708 672.461 162.479 680.215 162.804 687.779C162.853 688.721 162.916 689.669 163.052 690.569C163.101 691.048 163.212 691.433 163.336 691.805C163.566 692.166 163.795 692.531 164.093 692.907C165.205 694.399 166.4 695.858 167.563 697.318C169.901 700.233 172.219 703.124 174.443 706.043C178.87 711.886 183.133 717.716 186.295 724.042C187.051 725.639 187.737 727.269 188.147 729.01C188.492 730.784 188.488 732.517 188.457 734.232C188.376 737.661 188.054 741.014 187.693 744.308C186.154 757.466 183.925 769.686 181.852 780.9C179.743 792.109 177.666 802.29 175.733 811.271L175.68 811.513L175.435 811.511C160.088 811.445 147.887 811.393 139.486 811.355C135.351 811.322 132.153 811.297 129.949 811.278C128.899 811.264 128.091 811.251 127.508 811.244C126.962 811.233 126.697 811.208 126.697 811.208Z" fill="#E1E1E1"/>
<path d="M171.202 804.8C176.253 787.02 180.74 761.948 182.283 741.692C182.47 739.256 182.47 736.443 180.63 734.835C178.382 732.867 174.937 733.918 172.089 734.827C163.761 737.483 154.751 737.962 146.187 736.201C137.817 734.481 129.52 730.647 121.091 732.043C118.972 732.393 116.754 733.188 115.556 734.967C114.188 736.996 114.52 739.681 114.905 742.097C118.215 762.848 124.988 786.706 130.493 804.8H171.202Z" fill="#E1E1E1"/>
<path d="M176.747 737.38C176.787 737.42 176.244 738.059 175.155 739.11C174.068 740.163 172.395 741.591 170.158 743.131C165.727 746.218 158.763 749.571 150.48 750.611C142.194 751.653 134.616 750.126 129.559 748.233C127.012 747.293 125.037 746.323 123.723 745.572C122.407 744.822 121.725 744.339 121.752 744.29C121.839 744.125 124.694 745.904 129.778 747.601C134.821 749.308 142.256 750.692 150.362 749.672C158.465 748.656 165.326 745.476 169.79 742.573C174.295 739.673 176.622 737.242 176.747 737.38Z" fill="white"/>
<path d="M770.877 248.975C767.428 189.663 753.963 128.887 718.312 81.3568C679.678 29.8464 615.483 -1.74092 551.12 0.0742326C486.756 1.88757 424.068 37.4337 390.301 92.2604C369.416 126.171 357.359 168.511 323.627 189.682C286.412 213.037 238.273 201.251 194.506 205.098C134.097 210.405 78.2451 248.981 49.5675 302.413C20.8898 355.848 19.2507 422.368 42.8187 478.244C66.3866 534.118 114.071 578.776 170.415 601.199C263.048 638.064 367.43 615.537 464.45 592.573C586.514 587.567 695.43 519.134 740.052 432.284C768.684 376.557 774.514 311.522 770.877 248.975Z" fill="#ECECEC"/>
<path d="M247.786 82.621C247.861 82.5774 247.941 82.5484 248.015 82.5066C248.652 82.1109 249.282 81.7079 249.941 81.3467L247.786 82.621Z" fill="#ECECEC"/>
<path d="M302.268 93.7547C289.382 80.6148 263.99 73.3669 248.015 82.5062C232.956 91.8198 223.889 110.244 226.198 127.832C228.603 146.164 243.324 162.297 261.41 166.134C279.497 169.975 299.625 161.09 308.775 145.024C317.925 128.96 315.212 106.956 302.268 93.7547Z" fill="#ECECEC"/>
<path d="M544.913 402.154C544.913 402.416 541.107 402.628 536.411 402.628C531.715 402.628 527.911 402.416 527.911 402.154C527.911 401.893 531.715 401.683 536.411 401.683C541.107 401.683 544.913 401.893 544.913 402.154Z" fill="#FAFAFA"/>
<path d="M632.23 711.055C641.077 704.693 650.068 698.253 660.309 694.53C670.55 690.807 682.383 690.083 692.072 695.071C700.192 699.255 706.024 707.055 709.389 715.548C713.531 726.001 714.243 737.787 711.387 748.665C709.837 754.574 706.781 760.702 701.157 763.087C695.518 765.475 689.041 763.422 683.454 760.918C665.195 752.74 649.131 739.729 637.338 723.571C639.526 721.447 643.138 721.518 645.897 722.812C648.658 724.104 650.81 726.372 653.067 728.421C660.124 734.832 668.773 739.477 678.014 741.822C684.872 743.563 694.107 742.81 696.405 736.119C697.912 731.743 695.519 727.076 693.205 723.07C690.555 718.479 687.52 713.555 682.543 711.729C678.809 710.36 674.678 711.017 670.761 711.691L627.967 719.044C628.852 718.781 629.735 718.516 630.617 718.252" fill="#375A64"/>
<path d="M525.367 133.759C497.147 125.881 455.329 136.852 439.356 161.413C423.38 185.974 430.427 222.406 429.174 251.679C427.92 280.95 429.076 310.66 422.07 339.109C417.61 357.212 409.052 375.469 393.329 385.487C375.373 396.927 348.429 398.053 339.923 417.571C332.822 433.868 343.833 453.878 336.674 470.151C333.505 477.355 327.103 482.839 324.344 490.21C320.528 500.406 324.709 512.279 332.2 520.175C339.693 528.074 349.954 532.697 360.173 536.449C391.2 547.841 424.511 552.969 457.529 551.43C481.614 550.308 507.446 544.61 523.245 526.395C535.65 512.094 539.734 492.495 541.977 473.696C555.803 357.847 558.259 230.541 525.367 133.759Z" fill="#1A2E35"/>
<path d="M368.024 485.352C368.252 485.238 366.956 483.043 365.677 478.718C364.384 474.416 363.475 467.832 364.613 459.869C365.746 451.931 369.042 442.72 374.829 433.805C380.621 424.878 389 416.487 398.201 408.226C407.433 399.958 416.57 392.333 423.954 384.353C431.344 376.407 436.936 368.229 440.405 360.753C443.879 353.267 445.278 346.638 445.591 342.06C445.727 339.762 445.758 337.985 445.631 336.778C445.556 335.575 445.48 334.948 445.404 334.952C444.843 334.812 446.311 345.48 439.007 360.079C435.437 367.302 429.833 375.221 422.477 382.97C415.138 390.743 406.013 398.285 396.734 406.593C387.479 414.904 378.996 423.461 373.126 432.709C367.276 441.932 364.041 451.46 363.074 459.666C362.097 467.894 363.288 474.661 364.862 478.975C365.677 481.135 366.388 482.767 367.033 483.8C367.619 484.857 367.957 485.388 368.024 485.352Z" fill="#375A64"/>
<path d="M438.972 692.861L429.527 811.489L713.111 812.875L636.019 704.48L438.972 692.861Z" fill="#1A2E35"/>
<path d="M214.778 407.555C215.58 408.245 198.169 501.139 189.395 547.634C186.402 563.495 192.697 579.671 205.62 589.339C218.996 599.349 237.01 600.547 251.593 592.397L369.66 530.951L333.494 455.281L259.042 497.525L263.929 418.763L214.778 407.555Z" fill="#FFBF9D"/>
<path d="M255.099 333.709C254.252 330.38 250.062 328.868 246.732 329.708C243.401 330.549 240.772 333.034 238.306 335.426L228.752 341.218C225.017 343.362 223.069 347.794 222.795 352.093C222.521 356.391 223.659 360.64 224.786 364.797C225.772 368.424 227.188 372.548 230.707 373.867C234.597 375.327 238.919 372.303 240.758 368.576C242.597 364.851 242.774 360.559 243.733 356.514C244.88 351.681 247.194 347.13 250.422 343.353C252.849 340.519 256.021 337.325 255.099 333.709Z" fill="#FF9A6C"/>
<path d="M175.764 337.405C174.494 333.388 177.698 329.358 181.898 329.703C201.275 331.297 247.329 337.742 274.647 345.606C313.382 356.752 338.885 363.962 338.885 363.962L421.144 362.125C421.144 362.125 411.268 390.476 379.917 390.627C356.194 390.741 331.318 375.481 331.318 375.481C331.318 375.481 225.89 339.583 181.616 341.529C178.948 341.645 176.569 339.951 175.764 337.405Z" fill="#375A64"/>
<path d="M405.778 362.422C406.785 365.294 403.434 367.844 400.443 368.403C397.45 368.962 394.01 368.81 391.85 370.955C390.156 372.638 389.821 375.268 390.042 377.648C390.262 380.026 390.937 382.367 390.882 384.756C390.844 386.362 390.427 388.043 389.3 389.19C387.143 391.385 383.177 390.644 381.086 388.388C378.993 386.132 378.363 382.899 378.12 379.832C377.946 377.639 377.917 375.392 377.16 373.324C376.403 371.257 374.722 369.356 372.539 369.079C369.932 368.748 367.659 370.719 365.174 371.576C359.978 373.371 353.648 369.166 353.291 363.678L405.778 362.422Z" fill="#76B7AF"/>
<path d="M205.419 332.923C205.419 332.923 203.953 333.778 201.419 334.818C198.89 335.861 195.26 337.01 191.123 337.633C186.981 338.245 183.173 338.203 180.45 337.941C177.724 337.686 176.072 337.295 176.072 337.295C176.072 337.295 176.493 337.339 177.248 337.45C178.003 337.571 179.101 337.698 180.461 337.809C183.18 338.034 186.97 338.056 191.094 337.446C195.214 336.827 198.836 335.702 201.37 334.694C202.638 334.193 203.651 333.75 204.337 333.414C205.027 333.088 205.419 332.923 205.419 332.923Z" fill="#1A2E35"/>
<path d="M241.505 338.13C241.504 338.142 241.384 338.137 241.157 338.117C240.841 338.083 240.516 338.046 240.173 338.008C239.32 337.896 238.082 337.781 236.55 337.689C233.488 337.5 229.226 337.556 224.604 338.318C219.983 339.092 215.932 340.419 213.096 341.588C211.675 342.168 210.541 342.678 209.771 343.06C209.459 343.207 209.163 343.346 208.874 343.483C208.667 343.575 208.557 343.617 208.549 343.608C208.542 343.595 208.644 343.53 208.838 343.415C209.118 343.259 209.403 343.098 209.704 342.929C210.455 342.506 211.579 341.956 212.993 341.341C215.815 340.101 219.887 338.725 224.543 337.945C229.199 337.179 233.495 337.164 236.568 337.422C238.106 337.549 239.345 337.705 240.193 337.863C240.532 337.925 240.856 337.985 241.17 338.043C241.393 338.088 241.507 338.117 241.505 338.13Z" fill="#1A2E35"/>
<path d="M268.474 351.792C268.474 351.792 267.121 351.405 264.686 350.674C263.426 350.295 261.945 349.848 260.247 349.336C259.4 349.06 258.42 348.732 257.746 347.9C257.421 347.486 257.289 346.887 257.472 346.352C257.635 345.798 258.153 345.414 258.686 345.219C259.779 344.809 261.039 344.894 262.242 345.165C263.464 345.399 264.725 345.688 266.016 346.049C268.592 346.777 271.287 347.777 273.988 349.109C275.339 349.777 276.689 350.527 278.025 351.364C278.677 351.79 279.421 352.168 279.893 352.879C280.127 353.224 280.221 353.709 280.042 354.115C279.866 354.527 279.494 354.792 279.125 354.979C276.061 356.241 272.565 356.519 269.118 356.085C262.143 355.197 256.231 351.832 250.943 349.067C245.657 346.232 240.682 343.949 236.188 343.177C231.715 342.341 227.958 342.783 225.554 343.58C224.346 343.965 223.451 344.384 222.859 344.693C222.273 345.018 221.96 345.179 221.96 345.179C221.96 345.179 222.26 344.996 222.839 344.658C223.427 344.339 224.322 343.907 225.533 343.509C227.94 342.689 231.715 342.223 236.211 343.047C240.731 343.805 245.732 346.085 251.025 348.913C256.319 351.672 262.213 355.018 269.142 355.896C272.558 356.332 276.039 356.047 279.042 354.816C279.394 354.638 279.726 354.391 279.871 354.045C280.022 353.698 279.949 353.295 279.739 352.977C279.312 352.324 278.582 351.943 277.929 351.516C276.6 350.681 275.255 349.933 273.91 349.265C271.222 347.933 268.539 346.933 265.972 346.2C264.689 345.836 263.431 345.546 262.215 345.308C261.015 345.034 259.792 344.954 258.734 345.345C258.218 345.53 257.743 345.889 257.594 346.392C257.421 346.887 257.539 347.437 257.842 347.83C258.474 348.619 259.442 348.96 260.278 349.234C261.972 349.757 263.449 350.215 264.707 350.603C267.136 351.356 268.474 351.792 268.474 351.792Z" fill="#1A2E35"/>
<path d="M287.613 350.191C287.613 350.191 288.014 350.793 288.25 351.922C288.489 353.035 288.486 354.71 287.723 356.315C286.955 357.916 285.656 358.972 284.641 359.488C283.616 360.016 282.895 360.083 282.895 360.083C282.882 360.041 283.588 359.918 284.578 359.37C285.558 358.834 286.808 357.789 287.553 356.233C288.293 354.674 288.32 353.046 288.117 351.948C287.921 350.833 287.573 350.205 287.613 350.191Z" fill="#1A2E35"/>
<path d="M321.005 358.883C321.005 358.883 319.224 358.899 316.353 358.703C313.481 358.534 309.526 358.089 305.144 358.035C300.762 357.96 296.787 358.618 294.157 359.781C293.482 360.026 292.916 360.342 292.416 360.62C291.906 360.874 291.491 361.133 291.171 361.378C290.514 361.836 290.137 362.075 290.137 362.075C290.137 362.075 290.481 361.796 291.131 361.318C291.445 361.063 291.855 360.792 292.366 360.527C292.863 360.24 293.427 359.914 294.104 359.658C296.742 358.454 300.75 357.772 305.146 357.846C309.542 357.899 313.496 358.365 316.362 358.57C317.794 358.679 318.956 358.766 319.758 358.799C320.56 358.841 321.005 358.883 321.005 358.883Z" fill="#1A2E35"/>
<path d="M355.838 386.268C355.838 386.268 355.179 385.701 354.014 384.656C353.436 384.124 352.719 383.489 351.844 382.801C350.975 382.105 350.018 381.272 348.873 380.466C346.644 378.769 343.856 376.93 340.65 375.079C337.421 373.273 333.758 371.481 329.774 369.933C325.775 368.421 321.853 367.308 318.242 366.491C314.619 365.727 311.318 365.232 308.526 365.005C307.134 364.838 305.865 364.82 304.754 364.754C303.645 364.682 302.686 364.676 301.902 364.685C300.336 364.685 299.468 364.665 299.468 364.665C299.468 364.665 300.334 364.635 301.902 364.611C302.686 364.591 303.647 364.586 304.759 364.649C305.872 364.704 307.143 364.713 308.537 364.871C311.334 365.081 314.647 365.564 318.28 366.321C321.9 367.13 325.833 368.241 329.843 369.757C333.835 371.307 337.503 373.11 340.738 374.928C343.945 376.792 346.731 378.646 348.953 380.359C350.097 381.172 351.048 382.016 351.912 382.719C352.783 383.416 353.493 384.06 354.063 384.601C355.213 385.665 355.838 386.268 355.838 386.268Z" fill="#1A2E35"/>
<path d="M379.625 386.89C379.625 386.89 379.026 387.238 377.841 387.625C376.659 388.013 374.861 388.36 372.63 388.26C370.404 388.153 367.767 387.563 365.095 386.313C362.42 385.067 359.771 383.143 357.254 380.874C354.736 378.595 352.538 376.222 350.496 374.115C348.457 372.004 346.557 370.165 344.854 368.744C343.152 367.322 341.667 366.308 340.603 365.669C340.071 365.351 339.654 365.11 339.365 364.957C339.078 364.801 338.933 364.71 338.933 364.71C338.933 364.71 341.505 365.79 344.94 368.64C346.659 370.054 348.574 371.886 350.621 373.995C352.672 376.095 354.87 378.462 357.381 380.733C359.889 382.995 362.518 384.909 365.17 386.155C367.816 387.405 370.43 388.004 372.635 388.128C374.848 388.244 376.638 387.919 377.818 387.554C378.409 387.365 378.863 387.206 379.161 387.071C379.462 386.946 379.625 386.89 379.625 386.89Z" fill="#1A2E35"/>
<path d="M410.806 378.155C410.805 378.168 410.58 378.159 410.171 378.132C409.766 378.101 409.178 378.077 408.45 378.072C406.996 378.055 404.983 378.183 402.814 378.645C400.643 379.114 398.756 379.823 397.438 380.433C396.777 380.738 396.249 381.001 395.893 381.196C395.534 381.388 395.332 381.488 395.325 381.477C395.325 381.477 396.066 380.956 397.382 380.314C398.69 379.669 400.589 378.932 402.774 378.46C404.96 377.994 406.993 377.888 408.452 377.937C409.915 377.985 410.806 378.155 410.806 378.155Z" fill="#1A2E35"/>
<path d="M184.287 385.417L183.412 368.444C183.318 366.616 183.821 364.808 184.844 363.289L184.951 363.129C187.878 358.789 191.691 355.121 196.14 352.362L232.712 329.692C235.042 328.247 238.181 329.576 238.604 332.286C239.074 335.285 237.747 342.102 235.091 344.818C229.777 350.258 219.726 356.036 219.726 356.036L256.427 348.924C256.427 348.924 259.618 357.048 251.617 361.695L266.701 358.493C266.701 358.493 271.623 365.513 264.896 370.143C258.169 374.775 246.144 378.787 246.144 378.787C246.144 378.787 264.869 386.677 264.421 392.988C263.974 399.3 263.731 419.461 263.731 419.461L213.455 415.765L184.287 385.417Z" fill="#FFBF9D"/>
<path d="M221.062 354.929C221.067 354.941 220.946 355.012 220.708 355.137C220.381 355.304 220.036 355.479 219.664 355.669C218.757 356.129 217.435 356.78 215.841 357.646C214.244 358.51 212.414 359.657 210.409 360.988C208.436 362.353 206.098 363.661 203.938 365.346C202.879 366.212 201.983 367.232 201.471 368.404C200.95 369.572 200.796 370.83 200.817 372.009C200.879 374.393 201.56 376.473 202.023 378.228C202.513 379.982 202.794 381.443 202.865 382.465C202.937 383.487 202.845 384.051 202.845 384.051C202.81 384.049 202.836 383.485 202.718 382.479C202.604 381.474 202.288 380.041 201.767 378.299C201.273 376.56 200.554 374.469 200.471 372.018C200.438 370.804 200.587 369.488 201.133 368.254C201.669 367.012 202.613 365.941 203.698 365.054C204.784 364.157 205.952 363.451 207.049 362.743C208.142 362.037 209.2 361.354 210.22 360.695C212.235 359.383 214.093 358.249 215.714 357.41C217.333 356.57 218.673 355.954 219.601 355.535C219.984 355.37 220.338 355.216 220.677 355.069C220.924 354.967 221.056 354.918 221.062 354.929Z" fill="#FF9A6C"/>
<path d="M224.476 393.038C224.476 393.038 224.31 392.853 224.027 392.479C223.672 392.02 223.258 391.488 222.771 390.86C222.187 390.117 221.519 389.268 220.764 388.31C220.007 387.297 219.121 386.137 218.466 384.656C217.168 381.719 217.658 377.228 220.765 374.177C222.312 372.674 224.35 371.676 226.418 370.71C228.491 369.728 230.671 368.782 232.92 367.858C241.947 364.201 250.451 361.819 256.629 360.285C259.721 359.514 262.24 358.971 263.982 358.599C264.761 358.443 265.424 358.311 265.994 358.198C266.455 358.109 266.7 358.084 266.7 358.084C266.7 358.084 266.466 358.16 266.01 358.272C265.444 358.405 264.787 358.559 264.013 358.743C262.284 359.158 259.773 359.741 256.695 360.543C250.538 362.142 242.063 364.562 233.063 368.209C230.818 369.129 228.643 370.071 226.576 371.046C224.507 372.004 222.504 372.984 221.007 374.429C217.999 377.346 217.486 381.71 218.713 384.55C219.333 385.997 220.196 387.164 220.932 388.183C221.668 389.155 222.319 390.016 222.887 390.771C223.421 391.486 223.824 392.047 224.089 392.435C224.354 392.822 224.476 393.038 224.476 393.038Z" fill="#FF9A6C"/>
<path d="M263.39 370.497C263.401 370.52 263.105 370.698 262.557 370.999C261.807 371.399 261.034 371.809 260.217 372.241C258.231 373.267 255.47 374.659 252.334 376.016C249.195 377.371 246.268 378.389 244.128 379.041C243.055 379.362 242.183 379.609 241.575 379.759C240.969 379.912 240.632 379.986 240.624 379.959C240.617 379.935 240.942 379.814 241.535 379.618C242.34 379.351 243.169 379.077 244.046 378.785C246.16 378.071 249.057 377.018 252.185 375.67C255.307 374.316 258.082 372.965 260.099 372.003C260.932 371.607 261.724 371.232 262.49 370.869C263.058 370.607 263.377 370.473 263.39 370.497Z" fill="#FF9A6C"/>
<path d="M371.302 289.533C371.349 289.565 370.679 290.375 369.859 292.061C369.069 293.742 368.184 296.378 368.204 299.732C368.227 303.041 369.247 307.132 372.139 310.501C373.569 312.184 375.337 313.707 377.083 315.391C378.804 317.072 380.597 318.974 381.501 321.459C382.407 323.937 382.166 326.64 381.285 328.914C380.403 331.207 379.058 333.169 377.68 334.919C376.294 336.669 374.814 338.195 373.498 339.66C372.19 341.132 371.037 342.564 370.122 343.965C368.258 346.75 367.428 349.416 367.39 351.284C367.327 353.156 367.71 354.161 367.641 354.17C367.641 354.17 367.561 353.923 367.445 353.441C367.33 352.96 367.214 352.224 367.243 351.279C367.236 349.38 368.042 346.65 369.897 343.82C370.808 342.395 371.957 340.941 373.264 339.451C374.582 337.966 376.038 336.445 377.408 334.703C378.766 332.962 380.084 331.022 380.94 328.785C381.792 326.562 382.015 323.972 381.146 321.588C380.28 319.2 378.534 317.33 376.824 315.656C375.094 313.981 373.319 312.442 371.872 310.726C368.933 307.27 367.924 303.09 367.937 299.734C367.949 296.33 368.888 293.673 369.726 291.996C370.596 290.315 371.302 289.533 371.302 289.533Z" fill="#1A2E35"/>
<path d="M387.954 288.675C388.003 288.707 387.331 289.517 386.511 291.203C385.721 292.884 384.835 295.52 384.855 298.874C384.879 302.183 385.899 306.275 388.791 309.642C390.221 311.326 391.989 312.849 393.735 314.533C395.456 316.213 397.249 318.117 398.153 320.602C399.059 323.079 398.818 325.782 397.939 328.056C397.055 330.349 395.71 332.311 394.334 334.061C392.946 335.811 391.468 337.337 390.152 338.802C388.841 340.274 387.689 341.706 386.774 343.108C384.91 345.89 384.082 348.559 384.042 350.426C383.979 352.298 384.362 353.303 384.293 353.312C384.293 353.312 384.215 353.066 384.097 352.583C383.982 352.102 383.866 351.367 383.895 350.421C383.888 348.522 384.696 345.792 386.551 342.962C387.46 341.538 388.609 340.084 389.916 338.593C391.234 337.109 392.69 335.587 394.06 333.845C395.418 332.104 396.736 330.162 397.592 327.926C398.444 325.704 398.667 323.114 397.797 320.73C396.932 318.342 395.185 316.472 393.477 314.799C391.748 313.123 389.971 311.584 388.526 309.867C385.585 306.411 384.578 302.232 384.589 298.876C384.601 295.473 385.54 292.815 386.378 291.138C387.248 289.457 387.954 288.675 387.954 288.675Z" fill="#1A2E35"/>
<path d="M257.54 556.127C257.437 556.122 257.963 542.39 258.72 525.458C259.475 508.523 260.172 494.802 260.278 494.808C260.381 494.811 259.853 508.539 259.098 525.476C258.343 542.406 257.646 556.131 257.54 556.127Z" fill="#FF9A6C"/>
<path d="M225.977 426.615C225.901 426.687 223.638 424.389 220.924 421.487C218.208 418.581 216.07 416.169 216.146 416.098C216.223 416.027 218.486 418.323 221.2 421.227C223.915 424.132 226.053 426.544 225.977 426.615Z" fill="#FF9A6C"/>
<path d="M437.881 688.983L423.11 812.876H629.326L594.97 724.761L642.251 713.547C642.251 713.547 639.073 704.662 636.018 704.48C632.963 704.299 437.881 688.983 437.881 688.983Z" fill="#375A64"/>
<path d="M331.986 452.124C331.986 452.124 411.971 400.324 433.021 393.259C445.962 388.917 484.822 388.22 484.822 388.22L411.971 512.718L370.571 532.857L331.986 452.124Z" fill="#76B7AF"/>
<path d="M732.973 539.181C708.547 480.179 668.996 413.538 657.292 402.106C645.586 390.674 573.813 381.477 573.813 381.477L479.687 391.693L404.216 495.078L437.256 656.429L436.134 658.584C431.084 668.268 431.756 679.943 437.882 688.982L636.019 704.48L636.275 551.697L732.973 539.181Z" fill="#76B7AF"/>
<path d="M608.983 625.649C609.01 625.671 608.672 626.117 608.01 626.954C607.327 627.773 606.394 629.045 605.027 630.543C602.381 633.614 598.297 637.856 592.768 642.557C587.25 647.267 580.174 652.317 571.708 656.861C563.255 661.409 553.361 665.339 542.572 667.917C531.759 670.411 521.146 671.295 511.551 670.982C501.945 670.681 493.361 669.307 486.324 667.545C479.279 665.791 473.734 663.811 470.002 662.237C468.11 661.506 466.707 660.779 465.733 660.349C464.767 659.897 464.266 659.645 464.28 659.616C464.295 659.587 464.821 659.781 465.811 660.175C466.809 660.549 468.23 661.219 470.136 661.896C473.901 663.359 479.455 665.234 486.48 666.895C493.499 668.565 502.036 669.859 511.574 670.111C521.106 670.374 531.63 669.472 542.356 666.996C553.058 664.439 562.883 660.567 571.298 656.091C579.728 651.624 586.798 646.665 592.339 642.045C597.894 637.433 602.032 633.284 604.753 630.298C606.158 628.844 607.133 627.609 607.863 626.831C608.572 626.037 608.957 625.629 608.983 625.649Z" fill="#1A2E35"/>
<path d="M636.274 546.016C636.241 546.022 636.116 545.519 635.907 544.555C635.691 543.506 635.401 542.101 635.034 540.335C634.299 536.568 633.268 531.277 631.999 524.779C629.509 511.548 626.102 493.42 622.335 473.395C621.87 470.885 621.411 468.404 620.957 465.961C620.553 463.507 619.937 461.111 619.692 458.698C619.059 453.895 618.883 449.201 619.182 444.76C619.482 440.316 620.177 436.132 621.094 432.284C622.097 428.456 623.254 424.951 624.595 421.867C627.212 415.663 630.247 411.088 632.524 408.117C633.602 406.581 634.629 405.534 635.246 404.766C635.883 404.015 636.248 403.646 636.274 403.67C636.299 403.69 635.981 404.098 635.391 404.888C634.823 405.694 633.849 406.774 632.819 408.333C630.647 411.355 627.724 415.949 625.212 422.125C623.922 425.194 622.816 428.677 621.854 432.469C620.981 436.283 620.324 440.421 620.052 444.81C619.779 449.201 619.972 453.835 620.611 458.573C620.858 460.956 621.471 463.32 621.879 465.774C622.333 468.219 622.794 470.698 623.261 473.21C626.924 493.259 630.236 511.407 632.656 524.654C633.801 531.175 634.733 536.487 635.397 540.268C635.689 542.045 635.922 543.464 636.094 544.52C636.243 545.495 636.308 546.009 636.274 546.016Z" fill="#1A2E35"/>
<path d="M413.919 542.462C413.856 542.475 413.623 541.525 413.258 539.803C412.881 537.904 412.391 535.445 411.801 532.486C410.612 526.3 409.035 517.743 407.348 508.281C405.662 498.817 404.188 490.238 403.166 484.025C402.696 481.045 402.308 478.567 402.006 476.655C401.752 474.913 401.643 473.944 401.707 473.933C401.772 473.92 402.004 474.869 402.369 476.594C402.747 478.492 403.235 480.952 403.825 483.911C405.014 490.097 406.593 498.653 408.279 508.118C409.964 517.576 411.44 526.151 412.458 532.366C412.928 535.347 413.318 537.824 413.62 539.736C413.874 541.48 413.983 542.451 413.919 542.462Z" fill="#1A2E35"/>
<path d="M643.082 457.774C642.832 457.703 643.948 453.069 645.574 447.429C647.203 441.786 648.724 437.272 648.976 437.344C649.227 437.415 648.112 442.047 646.484 447.691C644.857 453.332 643.335 457.847 643.082 457.774Z" fill="#FAFAFA"/>
<path d="M653.702 494.182C653.559 494.401 650.015 492.337 645.788 489.577C641.559 486.814 638.246 484.398 638.389 484.178C638.533 483.96 642.076 486.022 646.305 488.785C650.533 491.548 653.844 493.964 653.702 494.182Z" fill="#FAFAFA"/>
<path d="M673.74 480.116C673.493 480.121 673.279 475.863 673.959 470.67C674.624 465.473 675.914 461.412 676.154 461.478C676.421 461.547 675.553 465.662 674.898 470.791C674.226 475.917 674.014 480.119 673.74 480.116Z" fill="#FAFAFA"/>
<path d="M677.753 515.364C677.49 515.433 676.286 511.567 674.549 506.9C672.825 502.226 671.215 498.511 671.46 498.391C671.683 498.278 673.692 501.845 675.437 506.57C677.192 511.291 677.996 515.306 677.753 515.364Z" fill="#FAFAFA"/>
<path d="M662.218 537.119C662.04 537.312 658.843 534.674 655.073 531.227C651.305 527.779 648.393 524.829 648.57 524.637C648.746 524.444 651.944 527.083 655.712 530.53C659.48 533.977 662.394 536.929 662.218 537.119Z" fill="#FAFAFA"/>
<path d="M709.795 511.764C709.998 511.956 707.132 515.128 704.273 519.513C701.387 523.884 699.622 527.774 699.363 527.665C699.136 527.587 700.537 523.455 703.481 518.994C706.402 514.519 709.631 511.586 709.795 511.764Z" fill="#FAFAFA"/>
<path d="M657.914 422.377C657.738 422.569 655.354 420.699 652.59 418.198C649.824 415.697 647.725 413.511 647.899 413.319C648.076 413.125 650.459 414.996 653.223 417.498C655.988 419.997 658.09 422.184 657.914 422.377Z" fill="#FAFAFA"/>
<path d="M599.387 423.786C599.52 424.011 596.474 426.053 592.584 428.349C588.693 430.645 585.433 432.324 585.298 432.099C585.166 431.874 588.213 429.832 592.103 427.534C595.993 425.24 599.255 423.561 599.387 423.786Z" fill="#FAFAFA"/>
<path d="M589.152 475.023C588.94 475.174 586.682 472.355 584.112 468.728C581.54 465.1 579.628 462.038 579.841 461.885C580.053 461.734 582.309 464.552 584.881 468.18C587.452 471.808 589.365 474.872 589.152 475.023Z" fill="#FAFAFA"/>
<path d="M611.312 491.702C611.537 491.803 610.021 495.51 607.269 499.589C604.536 503.68 601.675 506.484 601.497 506.314C601.292 506.13 603.793 503.085 606.487 499.062C609.192 495.051 611.063 491.582 611.312 491.702Z" fill="#FAFAFA"/>
<path d="M557.462 495.465C557.197 495.556 555.687 491.495 553.165 486.821C550.666 482.133 548.119 478.633 548.341 478.46C548.524 478.303 551.45 481.601 553.998 486.375C556.567 491.136 557.696 495.4 557.462 495.465Z" fill="#FAFAFA"/>
<path d="M568.703 530.323C568.471 530.205 570.205 526.379 572.575 521.781C574.944 517.182 577.055 513.551 577.287 513.669C577.518 513.791 575.784 517.614 573.416 522.213C571.045 526.811 568.936 530.441 568.703 530.323Z" fill="#FAFAFA"/>
<path d="M606.294 556.446C606.038 556.493 605.016 552.072 604.012 546.572C603.008 541.066 602.402 536.57 602.66 536.521C602.917 536.476 603.937 540.898 604.943 546.401C605.947 551.901 606.551 556.401 606.294 556.446Z" fill="#FAFAFA"/>
<path d="M538.014 537.313C537.811 537.492 535.027 534.617 531.467 531.219C527.913 527.809 524.92 525.153 525.089 524.942C525.245 524.745 528.53 527.092 532.121 530.535C535.715 533.967 538.205 537.149 538.014 537.313Z" fill="#FAFAFA"/>
<path d="M507.772 486.839C507.946 487.033 505.049 489.912 501.303 493.269C497.553 496.625 494.374 499.188 494.2 498.992C494.026 498.799 496.921 495.92 500.671 492.562C504.417 489.208 507.598 486.645 507.772 486.839Z" fill="#FAFAFA"/>
<path d="M495.832 472.137C495.612 472.279 493.241 468.997 490.537 464.806C487.832 460.613 485.816 457.101 486.037 456.961C486.257 456.819 488.625 460.101 491.332 464.292C494.036 468.483 496.051 471.996 495.832 472.137Z" fill="#FAFAFA"/>
<path d="M449.733 497.473C449.519 497.622 446.571 493.712 443.151 488.74C439.732 483.769 437.134 479.619 437.348 479.472C437.564 479.323 440.51 483.233 443.93 488.207C447.35 493.175 449.947 497.326 449.733 497.473Z" fill="#FAFAFA"/>
<path d="M463.324 527.78C463.318 528.052 457.374 528.141 450.059 528.513C442.742 528.874 436.819 529.381 436.788 529.11C436.773 528.983 438.24 528.693 440.629 528.382C443.019 528.072 446.337 527.754 450.013 527.571C453.685 527.386 457.018 527.369 459.428 527.44C461.839 527.511 463.326 527.654 463.324 527.78Z" fill="#FAFAFA"/>
<path d="M466.681 439.904C466.946 439.977 465.908 444.467 464.969 450.058C464.013 455.647 463.513 460.227 463.239 460.208C462.992 460.196 463.074 455.543 464.038 449.9C464.986 444.253 466.441 439.835 466.681 439.904Z" fill="#FAFAFA"/>
<path d="M448.299 413.276C448.097 413.109 451.185 408.987 455.196 404.066C459.208 399.143 462.624 395.288 462.826 395.453C463.027 395.616 459.939 399.74 455.928 404.663C451.916 409.584 448.5 413.441 448.299 413.276Z" fill="#FAFAFA"/>
<path d="M429.866 438.107C429.664 438.296 425.368 433.941 419.715 428.966C414.076 423.972 409.22 420.249 409.383 420.026C409.456 419.924 410.768 420.727 412.783 422.179C414.796 423.629 417.499 425.747 420.342 428.256C423.18 430.764 425.618 433.182 427.308 435.001C428.998 436.818 429.958 438.021 429.866 438.107Z" fill="#FAFAFA"/>
<path d="M399.16 446.754C399.295 447.011 393.895 449.881 387.926 454.426C381.931 458.941 377.705 463.359 377.496 463.159C377.408 463.077 378.353 461.865 380.078 460.079C381.8 458.293 384.332 455.964 387.356 453.673C390.38 451.384 393.308 449.58 395.494 448.404C397.681 447.227 399.106 446.647 399.16 446.754Z" fill="#FAFAFA"/>
<path d="M357.986 472.242C357.716 472.229 357.754 467.307 357.518 461.253C357.298 455.198 356.888 450.295 357.157 450.262C357.405 450.228 358.24 455.114 358.464 461.219C358.701 467.319 358.237 472.256 357.986 472.242Z" fill="#FAFAFA"/>
<path d="M388.351 499.092C388.18 499.289 384.399 496.32 379.909 492.457C375.414 488.595 371.909 485.302 372.08 485.106C372.251 484.908 376.03 487.878 380.524 491.74C385.017 495.603 388.522 498.896 388.351 499.092Z" fill="#FAFAFA"/>
<path d="M436.362 460.608C436.418 460.864 431.732 462.106 425.896 463.384C420.058 464.662 415.283 465.489 415.225 465.235C415.17 464.979 419.855 463.739 425.693 462.462C431.53 461.182 436.308 460.352 436.362 460.608Z" fill="#FAFAFA"/>
<path d="M530.507 473.072C530.319 473.251 528.4 471.54 526.225 469.251C524.047 466.958 522.439 464.956 522.626 464.776C522.817 464.597 524.733 466.306 526.91 468.599C529.086 470.888 530.696 472.89 530.507 473.072Z" fill="#FAFAFA"/>
<path d="M572.754 448.544C572.928 448.738 570.469 451.218 567.265 454.08C564.056 456.943 561.315 459.104 561.142 458.912C560.968 458.716 563.426 456.238 566.633 453.374C569.841 450.511 572.58 448.35 572.754 448.544Z" fill="#FAFAFA"/>
<path d="M608.873 458.552C608.608 458.472 609.673 454.365 610.583 449.231C611.512 444.098 611.937 439.878 612.213 439.894C612.459 439.903 612.454 444.198 611.514 449.398C610.592 454.597 609.107 458.628 608.873 458.552Z" fill="#FAFAFA"/>
<path d="M423.279 516.936C423.046 517.054 421.823 515.116 420.545 512.606C419.269 510.093 418.421 507.964 418.654 507.844C418.888 507.728 420.111 509.667 421.389 512.177C422.665 514.688 423.513 516.82 423.279 516.936Z" fill="#FAFAFA"/>
<path d="M488.326 519.475C488.081 519.564 486.889 516.872 485.662 513.467C484.435 510.06 483.641 507.228 483.888 507.139C484.131 507.05 485.326 509.74 486.551 513.147C487.776 516.554 488.573 519.386 488.326 519.475Z" fill="#FAFAFA"/>
<path d="M523.787 501.612C523.591 501.44 524.648 499.915 526.145 498.205C527.643 496.497 529.017 495.248 529.211 495.421C529.409 495.593 528.354 497.118 526.855 498.83C525.357 500.538 523.983 501.785 523.787 501.612Z" fill="#FAFAFA"/>
<path d="M450.915 615.3C450.705 615.422 448.499 611.859 446.844 606.985C445.167 602.119 444.727 597.949 444.971 597.918C445.243 597.869 446.091 601.901 447.737 606.68C449.363 611.465 451.162 615.17 450.915 615.3Z" fill="#FAFAFA"/>
<path d="M478.602 617.367C478.355 617.282 479.355 613.775 480.836 609.535C482.317 605.295 483.717 601.928 483.964 602.013C484.211 602.1 483.21 605.607 481.729 609.845C480.248 614.086 478.849 617.454 478.602 617.367Z" fill="#FAFAFA"/>
<path d="M470.51 648.838C470.277 648.958 468.301 645.635 466.094 641.414C463.886 637.192 462.285 633.674 462.516 633.553C462.748 633.433 464.723 636.755 466.93 640.977C469.139 645.197 470.74 648.717 470.51 648.838Z" fill="#FAFAFA"/>
<path d="M521.797 639.786C521.73 640.027 517.6 639.034 512.761 637.068C507.918 635.115 504.26 632.955 504.378 632.734C504.506 632.494 508.319 634.257 513.117 636.193C517.907 638.139 521.875 639.524 521.797 639.786Z" fill="#FAFAFA"/>
<path d="M505.209 621.123C505.069 620.884 508.285 618.807 511.927 615.834C515.584 612.877 518.276 610.155 518.481 610.341C518.668 610.498 516.247 613.556 512.524 616.567C508.814 619.593 505.325 621.34 505.209 621.123Z" fill="#FAFAFA"/>
<path d="M547.925 634.393C547.767 634.622 544.476 632.511 540.136 630.471C535.807 628.407 532.088 627.198 532.164 626.931C532.222 626.693 536.123 627.512 540.541 629.616C544.966 631.7 548.074 634.199 547.925 634.393Z" fill="#FAFAFA"/>
<path d="M557.049 651.398C556.86 651.196 559.356 648.646 562.084 645.224C564.827 641.812 566.765 638.817 567.001 638.957C567.219 639.073 565.616 642.335 562.823 645.814C560.042 649.303 557.21 651.585 557.049 651.398Z" fill="#FAFAFA"/>
<path d="M463.839 684.422C463.694 684.638 459.848 682.334 455.247 679.274C450.642 676.215 447.028 673.558 447.173 673.342C447.318 673.122 451.166 675.428 455.769 678.486C460.371 681.546 463.985 684.204 463.839 684.422Z" fill="#FAFAFA"/>
<path d="M498.57 675.855C498.677 676.116 494.907 677.764 490.696 680.521C486.465 683.253 483.43 686.027 483.236 685.824C483.058 685.662 485.855 682.525 490.18 679.73C494.49 676.911 498.494 675.626 498.57 675.855Z" fill="#FAFAFA"/>
<path d="M529.617 689.591C529.398 689.732 527.65 687.429 525.715 684.443C523.778 681.459 522.388 678.923 522.606 678.781C522.825 678.64 524.571 680.943 526.508 683.929C528.445 686.911 529.835 689.447 529.617 689.591Z" fill="#FAFAFA"/>
<path d="M567.048 677.214C567.159 677.47 563.643 679.142 559.638 681.736C555.62 684.313 552.645 686.824 552.46 686.619C552.287 686.444 555.026 683.573 559.127 680.943C563.214 678.296 566.961 676.986 567.048 677.214Z" fill="#FAFAFA"/>
<path d="M584.345 660.974C584.096 661.101 583.018 659.211 580.992 657.572C578.994 655.902 576.932 655.207 577.01 654.938C577.037 654.695 579.401 655.022 581.593 656.842C583.802 658.643 584.579 660.901 584.345 660.974Z" fill="#FAFAFA"/>
<path d="M603.947 679.668C604.066 679.9 601.286 681.573 597.735 683.407C594.185 685.238 591.21 686.536 591.092 686.304C590.972 686.071 593.753 684.398 597.303 682.566C600.852 680.733 603.827 679.435 603.947 679.668Z" fill="#FAFAFA"/>
<path d="M621.605 689.513C621.34 689.438 622.335 685.349 622.983 680.224C623.655 675.1 623.725 670.891 624.001 670.886C624.246 670.871 624.6 675.135 623.92 680.344C623.261 685.554 621.84 689.589 621.605 689.513Z" fill="#FAFAFA"/>
<path d="M618.819 658.063C618.655 658.301 614.994 655.814 609.959 653.844C604.94 651.839 600.566 651.149 600.611 650.866C600.618 650.632 605.154 650.911 610.307 652.966C615.472 654.99 618.973 657.885 618.819 658.063Z" fill="#FAFAFA"/>
<path d="M579.456 563.044C579.313 563.262 575.764 561.209 571.53 558.459C567.293 555.707 563.977 553.3 564.118 553.081C564.26 552.863 567.808 554.914 572.045 557.666C576.28 560.417 579.598 562.824 579.456 563.044Z" fill="#FAFAFA"/>
<g opacity="0.300003">
<g opacity="0.300003">
<path opacity="0.300003" d="M487.392 667.975C486.016 665.843 486.92 662.824 488.802 661.121C490.685 659.419 493.277 658.76 495.785 658.368C508.782 656.34 522.697 659.874 534.877 654.903C543.047 651.568 549.336 644.758 554.202 637.394C559.067 630.031 562.772 621.958 567.518 614.516C571.775 607.834 577.204 601.428 584.594 598.571C591.981 595.712 601.64 597.54 605.648 604.376C609.557 611.045 606.973 619.618 603.215 626.374C592.608 645.438 573.469 658.927 552.62 665.351C531.767 671.776 509.316 671.602 487.822 667.845" fill="black"/>
</g>
</g>
<path d="M744.779 611.83L724.533 539.557L641.15 550.349L650.903 588.677L526.196 555.397L498.571 591.923L687.905 681.323C705.677 688.897 726.286 684.655 739.622 670.679C751.323 658.416 749.923 627.979 744.779 611.83Z" fill="#FFBF9D"/>
<path d="M400.102 542.627C397.31 541.885 393.941 541.275 391.861 543.279C390.051 545.025 390.182 548.1 391.472 550.258C392.763 552.418 393.738 552.741 397.139 553.846L430.342 561.367L443.11 551.43L400.102 542.627Z" fill="#FF9A6C"/>
<path d="M503.728 593.662C463.169 583.739 425.523 570.61 385.444 562.995C383.436 562.616 381.189 562.075 380.136 560.321C378.704 557.933 380.558 554.674 383.121 553.587C385.684 552.498 388.602 552.926 391.36 553.313C412.753 556.301 434.662 555.56 455.805 551.133C469.536 548.26 482.97 543.842 496.9 542.154C510.828 540.465 514.503 547.646 526.196 555.397" fill="#FFBF9D"/>
<path d="M526.196 555.397C519.613 543.519 506.088 535.84 492.513 536.274C484.212 536.537 476.291 539.554 468.277 541.734C460.263 543.912 451.53 545.228 443.803 542.19C440.846 541.024 438.078 539.237 434.932 538.795C431.783 538.351 427.989 539.899 427.421 543.025C426.991 545.386 428.523 547.643 430.173 549.385C435.983 555.528 454.476 562.362 469.044 561.63" fill="#FFBF9D"/>
<path d="M469.044 561.629C469.04 561.49 466.82 561.608 462.852 561.232C458.893 560.834 453.167 559.88 446.425 557.587C443.067 556.431 439.444 554.942 435.854 552.859C434.073 551.815 432.256 550.626 430.764 549.087C429.292 547.562 427.867 545.607 428.014 543.541C428.136 541.465 430.185 539.924 432.412 539.541C434.663 539.072 437.023 539.889 439.317 540.931C441.599 541.999 444.054 543.233 446.73 543.852C449.389 544.489 452.165 544.758 454.944 544.663C466.172 544.269 475.858 539.612 485.035 537.845C489.62 536.912 494.082 536.58 498.19 537.168C502.299 537.704 506.026 538.884 509.231 540.365C515.67 543.362 519.932 547.435 522.48 550.444C525.036 553.494 526.065 555.476 526.196 555.396C526.239 555.374 525.994 554.875 525.488 553.946C524.994 553.009 524.148 551.684 522.91 550.096C520.454 546.932 516.21 542.65 509.663 539.457C506.401 537.878 502.586 536.606 498.346 536.001C494.109 535.341 489.461 535.642 484.777 536.56C475.384 538.319 465.724 542.884 454.907 543.242C452.228 543.334 449.583 543.073 447.069 542.478C444.537 541.897 442.268 540.762 439.889 539.659C437.551 538.61 434.853 537.642 432.158 538.207C430.849 538.464 429.577 538.993 428.548 539.887C427.502 540.753 426.803 542.087 426.709 543.442C426.585 546.248 428.317 548.341 429.867 549.956C431.524 551.628 433.414 552.819 435.264 553.879C438.985 555.979 442.682 557.429 446.107 558.542C452.98 560.742 458.797 561.551 462.809 561.786C464.82 561.878 466.383 561.893 467.437 561.802C468.496 561.737 469.047 561.677 469.044 561.629Z" fill="#FF9A6C"/>
<path d="M688.041 600.205C688.036 600.218 687.892 600.174 687.625 600.083C687.259 599.953 686.874 599.815 686.453 599.664C685.235 599.219 683.808 598.7 682.162 598.099C678.531 596.796 673.493 595.061 667.877 593.304C662.259 591.543 657.129 590.098 653.402 589.105C651.705 588.668 650.235 588.288 648.977 587.963C648.547 587.851 648.149 587.751 647.775 587.653C647.501 587.579 647.358 587.533 647.362 587.521C647.363 587.508 647.512 587.53 647.792 587.579C648.171 587.653 648.574 587.733 649.012 587.82C650.068 588.042 651.593 588.386 653.468 588.846C657.218 589.773 662.364 591.178 667.989 592.944C673.612 594.701 678.644 596.478 682.254 597.847C684.057 598.539 685.511 599.109 686.507 599.528C686.919 599.702 687.295 599.862 687.651 600.012C687.912 600.127 688.046 600.194 688.041 600.205Z" fill="#FF9A6C"/>
<path d="M531.358 451.126C555.099 450.097 573.815 430.55 573.815 406.788V354.17L576.71 185.938L572.947 176.479L484.366 148.524C457.126 146.4 438.851 183.836 437.885 211.143C436.812 241.482 436.7 278.565 440.911 301.064C449.379 346.303 484.366 351.126 484.366 351.126L485.055 407.332C485.362 432.381 506.329 452.214 531.358 451.126Z" fill="#FFBF9D"/>
<path d="M449.589 240.646C449.566 243.726 452.154 246.285 455.373 246.371C458.582 246.454 461.208 244.031 461.232 240.951C461.257 237.87 458.669 235.307 455.458 235.222C452.241 235.139 449.613 237.565 449.589 240.646Z" fill="#1A2E35"/>
<path d="M446.455 229.905C447.198 230.644 451.523 227.257 457.795 227.101C464.055 226.854 468.747 229.953 469.408 229.167C469.731 228.816 468.958 227.466 466.914 226.063C464.901 224.663 461.498 223.344 457.591 223.467C453.685 223.596 450.44 225.126 448.594 226.651C446.706 228.183 446.089 229.575 446.455 229.905Z" fill="#1A2E35"/>
<path d="M510.448 240.646C510.423 243.726 513.013 246.285 516.23 246.371C519.439 246.454 522.067 244.031 522.091 240.951C522.116 237.87 519.526 235.307 516.315 235.222C513.099 235.137 510.472 237.565 510.448 240.646Z" fill="#1A2E35"/>
<path d="M508.128 229.375C508.872 230.116 513.203 226.727 519.469 226.571C525.73 226.324 530.422 229.423 531.083 228.637C531.404 228.286 530.638 226.936 528.587 225.533C526.576 224.133 523.172 222.814 519.268 222.939C515.36 223.068 512.114 224.596 510.266 226.121C508.384 227.653 507.765 229.045 508.128 229.375Z" fill="#1A2E35"/>
<path d="M486.653 276.508C486.673 276.153 482.754 275.586 476.415 274.953C474.811 274.831 473.286 274.555 472.987 273.47C472.576 272.323 473.199 270.578 473.923 268.694C475.323 264.777 476.786 260.671 478.323 256.369C484.422 238.828 488.787 224.421 488.08 224.181C487.372 223.943 481.852 237.967 475.755 255.509C474.29 259.832 472.89 263.955 471.558 267.901C471.001 269.738 470.017 271.829 470.899 274.207C471.364 275.392 472.564 276.229 473.598 276.476C474.633 276.761 475.533 276.753 476.328 276.779C482.692 276.946 486.638 276.866 486.653 276.508Z" fill="#1A2E35"/>
<path d="M484.366 350.836C484.366 350.836 514.992 351.965 544.773 332.924C544.773 332.924 530.871 364.546 485.276 361.547L484.366 350.836Z" fill="#FF9A6C"/>
<path d="M505.831 204.845C506.495 206.533 512.736 205.551 520.116 206.236C527.511 206.773 533.505 208.762 534.438 207.205C534.853 206.463 533.775 204.887 531.332 203.301C528.909 201.72 525.071 200.258 520.641 199.888C516.212 199.527 512.186 200.34 509.537 201.504C506.865 202.665 505.544 204.043 505.831 204.845Z" fill="#1A2E35"/>
<path d="M448.26 211.693C449.403 213.087 453.68 211.489 458.875 211.277C464.059 210.881 468.493 211.969 469.466 210.451C469.889 209.716 469.158 208.308 467.199 207.013C465.266 205.721 462.068 204.71 458.503 204.917C454.936 205.129 451.877 206.505 450.113 208.013C448.316 209.527 447.753 211.012 448.26 211.693Z" fill="#1A2E35"/>
<path d="M468.76 151.618C472.657 180.009 492.061 205.779 518.267 217.374C517.495 213.76 516.722 210.148 515.947 206.536C527.163 225.083 550.981 240.626 566.308 246.895C571.048 248.834 577.096 247.097 581.409 244.342C587.437 240.493 587.787 231.855 586.531 224.814C582.592 202.776 569.51 182.993 552.491 168.446C535.471 153.9 514.705 144.268 493.283 137.761C487.603 136.035 484.487 134.844 478.865 136.752C473.245 138.658 465.863 145.067 468.588 150.34" fill="#1A2E35"/>
<path d="M559.117 213.462C572.114 260.022 554.919 311.765 559.35 359.903C560.337 370.647 564.24 383.063 573.279 388.956C577.732 391.859 578.645 390.024 583.865 391.037C596.971 393.576 609.373 388.089 622.481 390.628C634.315 392.921 653.137 399.731 660.517 390.202C667.762 380.848 659.39 369.554 652.084 360.248C644.778 350.943 634.989 343.004 631.386 331.735C627.516 319.623 631.698 306.632 633.517 294.047C639.734 251.041 624.407 207.47 599.009 172.214C590.147 159.915 576.797 148.291 564.786 139.041C552.777 129.79 525.588 122.016 510.449 122.773C495.307 123.528 470.095 135.425 463.932 152.46" fill="#1A2E35"/>
<path d="M508.848 186.894C508.77 187.048 509.757 187.722 511.676 188.838L515.108 190.833L512.199 188.039C508.469 184.46 500.418 176.584 494.169 165.33C485.14 149.692 483.712 134.728 482.995 134.902C482.744 134.924 482.757 138.651 483.949 144.539C485.127 150.409 487.694 158.421 492.257 166.412C498.685 177.98 507.352 185.736 511.581 188.776L512.104 187.978C510.057 187.121 508.924 186.741 508.848 186.894Z" fill="#375A64"/>
<path d="M591.235 380.605C591.311 380.6 591.324 379.563 591.277 377.605C591.201 375.65 591.215 372.758 591.369 369.048C591.656 361.624 592.996 350.931 595.976 337.963C598.775 324.961 603.409 309.741 606.19 292.203C607.417 283.434 608.229 274.09 607.513 264.412C606.856 254.779 604.796 244.69 600.091 235.436C595.595 226.039 588.253 218.574 580.488 212.854C572.701 207.065 564.551 202.587 557.098 197.946C542.153 188.736 530.066 178.388 520.822 168.871C511.574 159.334 505.077 150.712 500.792 144.642C498.675 141.586 497.049 139.193 495.989 137.543C494.91 135.906 494.311 135.066 494.244 135.104C494.179 135.142 494.651 136.058 495.611 137.774C496.553 139.502 498.065 141.976 500.084 145.122C504.171 151.366 510.519 160.189 519.702 169.946C528.876 179.677 540.988 190.264 556.028 199.661C563.501 204.381 571.595 208.884 579.199 214.578C586.797 220.22 593.791 227.366 598.129 236.424C602.665 245.338 604.698 255.133 605.366 264.564C606.099 274.032 605.344 283.244 604.188 291.913C601.556 309.239 597.078 324.542 594.457 337.637C591.656 350.706 590.54 361.54 590.516 369.024C590.493 372.767 590.616 375.671 590.834 377.63C591.026 379.589 591.161 380.612 591.235 380.605Z" fill="#375A64"/>
<path d="M437.871 173.259C436.252 184.996 435.3 196.825 435.024 208.671C444.22 201.269 453.488 193.696 460.399 184.125C467.311 174.555 471.705 162.597 469.875 150.936C456.554 154.654 445.681 166.057 442.597 179.538" fill="#1A2E35"/>
<path d="M484.675 297.774C486.227 294.735 486.657 293.94 489.311 292.504C490.287 291.976 494.344 291.814 495.453 291.874C497.466 291.983 498.815 293.978 499.55 295.853C500.623 298.587 501.095 301.703 500.042 304.444C498.989 307.185 489.489 310.463 484.366 303.266" fill="#FF9A6C"/>
<path d="M492.499 308.04C492.512 307.964 493.069 308.039 494.056 307.982C495.026 307.908 496.503 307.677 497.866 306.621C499.239 305.615 500.179 303.608 500.616 301.379C500.956 299.181 500.38 296.436 498.378 294.764C496.409 293.08 493.719 292.477 491.481 292.501C489.208 292.537 487.358 293.791 486.273 295.1C485.191 296.449 484.83 297.888 484.65 298.85C484.469 299.829 484.451 300.391 484.367 300.39C484.32 300.391 484.213 299.83 484.285 298.803C484.362 297.796 484.623 296.238 485.745 294.69C486.3 293.924 487.097 293.216 488.035 292.65C488.998 292.058 490.188 291.691 491.441 291.63C492.693 291.559 493.998 291.746 495.285 292.111C496.579 292.474 497.899 293.085 498.999 294.051C500.095 295.009 500.93 296.273 501.263 297.627C501.626 298.921 501.713 300.291 501.473 301.528C501.237 302.766 500.792 303.851 500.286 304.82C499.761 305.808 499.05 306.617 498.266 307.158C496.681 308.265 495.073 308.385 494.062 308.349C493.027 308.291 492.488 308.091 492.499 308.04Z" fill="#1A2E35"/>
<path d="M514.077 261.732C514.24 261.928 513.645 262.621 512.598 262.737C511.549 262.857 510.813 262.314 510.931 262.086C511.035 261.841 511.716 261.895 512.491 261.799C513.269 261.721 513.921 261.516 514.077 261.732Z" fill="#FF9A6C"/>
<path d="M524.154 261.195C523.898 261.251 523.564 260.719 523.405 260.004C523.247 259.291 523.325 258.666 523.581 258.61C523.833 258.552 524.169 259.085 524.329 259.799C524.487 260.514 524.408 261.138 524.154 261.195Z" fill="#FF9A6C"/>
<path d="M536.219 257.174C536.162 257.428 535.536 257.506 534.821 257.348C534.11 257.188 533.576 256.854 533.632 256.598C533.688 256.344 534.313 256.266 535.028 256.424C535.741 256.584 536.273 256.918 536.219 257.174Z" fill="#FF9A6C"/>
<path d="M519.271 271.822C519.009 271.822 518.797 271.243 518.797 270.53C518.797 269.817 519.009 269.238 519.271 269.238C519.532 269.238 519.745 269.817 519.745 270.53C519.745 271.243 519.532 271.822 519.271 271.822Z" fill="#FF9A6C"/>
<path d="M530.186 266.94C529.923 266.94 529.713 266.811 529.713 266.653C529.713 266.493 529.923 266.366 530.186 266.366C530.448 266.366 530.658 266.493 530.658 266.653C530.658 266.811 530.448 266.94 530.186 266.94Z" fill="#FF9A6C"/>
<path d="M452.057 263.493C452.057 263.747 451.149 263.925 450.16 263.473C449.169 263.025 448.704 262.224 448.898 262.055C449.091 261.872 449.746 262.253 450.552 262.613C451.351 262.983 452.069 263.226 452.057 263.493Z" fill="#FF9A6C"/>
<path d="M460.166 261.786C459.912 261.724 459.771 261.416 459.847 261.098C459.925 260.78 460.196 260.573 460.448 260.635C460.702 260.697 460.844 261.004 460.767 261.323C460.689 261.639 460.422 261.848 460.166 261.786Z" fill="#FF9A6C"/>
<path d="M455.838 273.54C455.578 273.575 455.308 273.154 455.232 272.596C455.157 272.041 455.306 271.562 455.566 271.527C455.823 271.493 456.094 271.914 456.17 272.471C456.245 273.027 456.098 273.504 455.838 273.54Z" fill="#FF9A6C"/>
<path d="M445.163 272.971C444.947 272.826 445.027 272.323 445.345 271.848C445.661 271.372 446.096 271.103 446.312 271.249C446.53 271.392 446.448 271.897 446.131 272.372C445.813 272.848 445.381 273.116 445.163 272.971Z" fill="#FF9A6C"/>
<path d="M404.466 679.253V763.478C404.466 777.825 397.537 791.288 385.862 799.625C378.329 805.007 369.301 807.9 360.042 807.9H247.455C239.029 807.9 230.779 805.506 223.666 800.991L219.828 798.561C206.981 790.413 199.195 776.256 199.195 761.045V679.253H404.466Z" fill="#1A2E35"/>
<path d="M199.196 699.533H142.12V709.44L175.06 714.508C184.812 716.007 193.529 722.094 197.41 731.166C198.497 733.705 199.196 736.464 199.196 739.356C199.196 739.356 210.807 739.162 212.789 725.29C212.829 725.011 212.867 724.735 212.904 724.461C214.291 714.18 208.825 704.213 199.493 699.678L199.196 699.533Z" fill="#375A64"/>
<path d="M404.469 699.608H461.545V709.515L428.605 714.583C418.854 716.082 410.136 722.168 406.254 731.24C405.168 733.78 404.469 736.539 404.469 739.428C404.469 739.428 392.858 739.234 390.877 725.365C390.836 725.085 390.797 724.809 390.761 724.533C389.376 714.252 394.84 704.285 404.172 699.751L404.469 699.608Z" fill="#375A64"/>
<path d="M404.469 699.608C404.473 699.631 404.19 699.789 403.634 700.116C403.07 700.424 402.249 700.904 401.238 701.611C399.229 703.016 396.395 705.427 394.092 709.393C391.814 713.303 390.146 718.919 391.206 725.199C391.647 728.311 392.732 731.592 394.998 734.261C397.236 736.887 400.728 738.759 404.477 739.007L404.048 739.428C404.041 736.181 404.914 732.85 406.453 729.775C407.973 726.69 410.14 723.791 412.873 721.397C415.58 718.975 418.831 717.035 422.381 715.726C425.933 714.319 429.812 713.953 433.583 713.337C443.306 711.849 452.682 710.415 461.476 709.068L461.093 709.515C461.1 706.118 461.106 702.815 461.113 699.608L461.545 700.04C444.798 699.969 430.566 699.909 420.441 699.865C415.458 699.813 411.49 699.773 408.688 699.744C407.375 699.716 406.335 699.693 405.56 699.676C404.847 699.653 404.475 699.631 404.469 699.608C404.464 699.582 404.825 699.56 405.527 699.539C406.297 699.52 407.326 699.499 408.63 699.471C411.425 699.442 415.386 699.401 420.355 699.348C430.502 699.306 444.762 699.246 461.545 699.174L461.979 699.172V699.608C461.986 702.815 461.99 706.118 461.997 709.515V709.901L461.614 709.959C452.821 711.319 443.448 712.769 433.726 714.272C429.912 714.893 426.135 715.249 422.708 716.605C419.263 717.872 416.106 719.748 413.483 722.085C408.245 726.726 404.938 733.219 404.892 739.428L404.889 739.882L404.462 739.851C400.389 739.563 396.782 737.564 394.404 734.763C392.028 731.926 390.937 728.488 390.514 725.296C389.487 718.852 391.271 713.085 393.66 709.137C396.076 705.126 399.013 702.742 401.089 701.392C402.137 700.709 402.986 700.266 403.573 699.996C404.146 699.707 404.467 699.582 404.469 699.608Z" fill="#1A2E35"/>
<path d="M400.796 681.5C400.804 681.515 400.646 681.607 400.328 681.771C399.963 681.958 399.497 682.194 398.912 682.488C397.598 683.127 395.761 684.022 393.425 685.156C392.224 685.733 390.897 686.37 389.446 687.064C387.976 687.723 386.335 688.343 384.594 689.059C381.089 690.433 377.167 692.193 372.627 693.578C370.376 694.326 368.018 695.11 365.563 695.925C363.101 696.726 360.473 697.327 357.786 698.074C352.432 699.654 346.565 700.734 340.423 701.997C328.065 704.133 314.313 705.593 299.829 705.671C285.336 705.6 271.581 704.148 259.222 702.017C253.077 700.754 247.211 699.679 241.854 698.102C239.168 697.354 236.538 696.755 234.075 695.958C231.619 695.143 229.263 694.361 227.01 693.613C222.47 692.23 218.548 690.469 215.043 689.099C213.3 688.383 211.659 687.764 210.187 687.107C208.739 686.414 207.41 685.775 206.208 685.201C203.872 684.065 202.035 683.174 200.721 682.535C200.139 682.241 199.67 682.005 199.305 681.822C198.988 681.655 198.83 681.562 198.837 681.547C198.844 681.535 199.017 681.598 199.349 681.734C199.725 681.898 200.206 682.105 200.805 682.364C202.137 682.963 203.998 683.802 206.363 684.866C207.572 685.417 208.907 686.027 210.367 686.693C211.846 687.325 213.494 687.919 215.239 688.608C218.757 689.932 222.685 691.642 227.224 692.979C229.475 693.707 231.831 694.468 234.285 695.259C236.745 696.036 239.369 696.615 242.05 697.345C247.398 698.882 253.25 699.924 259.374 701.16C271.695 703.235 285.394 704.656 299.829 704.727C314.254 704.649 327.951 703.22 340.268 701.14C346.393 699.904 352.243 698.859 357.587 697.318C360.268 696.588 362.894 696.007 365.354 695.226C367.806 694.435 370.162 693.673 372.413 692.947C376.953 691.603 380.879 689.892 384.395 688.568C386.141 687.879 387.789 687.283 389.267 686.652C390.726 685.986 392.062 685.376 393.273 684.822C395.636 683.755 397.498 682.916 398.829 682.315C399.428 682.058 399.909 681.849 400.286 681.687C400.615 681.547 400.789 681.486 400.796 681.5Z" fill="#375A64"/>
<path d="M400.928 688.481C400.935 688.495 400.775 688.588 400.459 688.753C400.093 688.938 399.626 689.174 399.044 689.468C397.728 690.107 395.892 691.002 393.555 692.138C392.355 692.714 391.028 693.351 389.578 694.046C388.105 694.703 386.466 695.324 384.724 696.039C381.219 697.413 377.296 699.174 372.758 700.559C370.506 701.307 368.148 702.091 365.694 702.906C363.232 703.706 360.602 704.307 357.918 705.055C352.561 706.634 346.696 707.714 340.552 708.978C328.196 711.114 314.445 712.573 299.958 712.653C285.468 712.581 271.712 711.129 259.351 708.998C253.207 707.736 247.34 706.661 241.984 705.082C239.297 704.336 236.667 703.735 234.206 702.939C231.75 702.124 229.392 701.341 227.139 700.593C222.6 699.21 218.677 697.45 215.172 696.079C213.431 695.364 211.791 694.745 210.318 694.09C208.868 693.394 207.541 692.757 206.34 692.182C204.003 691.047 202.167 690.154 200.851 689.515C200.268 689.221 199.801 688.985 199.437 688.802C199.119 688.635 198.961 688.544 198.968 688.528C198.976 688.515 199.148 688.579 199.48 688.715C199.856 688.878 200.335 689.085 200.936 689.345C202.266 689.946 204.127 690.782 206.492 691.846C207.701 692.398 209.039 693.01 210.496 693.674C211.977 694.306 213.624 694.899 215.37 695.589C218.886 696.912 222.814 698.622 227.355 699.96C229.604 700.688 231.962 701.448 234.416 702.24C236.876 703.017 239.501 703.596 242.182 704.325C247.529 705.863 253.379 706.906 259.505 708.141C271.827 710.216 285.526 711.637 299.958 711.708C314.385 711.63 328.082 710.201 340.4 708.121C346.522 706.885 352.374 705.839 357.718 704.298C360.399 703.568 363.025 702.988 365.483 702.207C367.937 701.416 370.293 700.653 372.544 699.927C377.082 698.584 381.01 696.872 384.526 695.551C386.272 694.859 387.919 694.264 389.398 693.632C390.857 692.966 392.193 692.356 393.404 691.803C395.767 690.735 397.628 689.897 398.958 689.298C399.559 689.038 400.04 688.829 400.416 688.668C400.746 688.528 400.919 688.466 400.928 688.481Z" fill="#375A64"/>
<path d="M362.212 810.509C377.189 808.179 384.878 800.007 389.238 785.491C390.596 780.973 391.187 776.023 389.583 771.587C387.978 767.151 383.733 763.441 379.02 763.627C373.315 763.853 369.257 769.245 366.926 774.459C364.595 779.672 362.876 785.547 358.397 789.089C353.921 792.632 345.5 791.566 344.551 785.936C344.3 784.456 344.605 782.886 344.081 781.481C342.806 778.067 337.39 778.243 335.037 781.028C332.685 783.812 332.574 787.802 332.68 791.447C332.787 795.09 332.916 799.018 330.881 802.043C327.84 806.56 321.505 807.066 316.06 807.117C305.338 807.22 294.616 807.32 283.896 807.424C283.896 807.424 289.435 810.088 303.753 810.088C323.275 810.088 362.212 810.509 362.212 810.509Z" fill="#76B7AF"/>
<path d="M299.997 807.425C289.239 807.607 277.829 807.617 268.629 802.038C262.821 798.514 257.958 792.809 251.24 791.786C249.322 791.493 247.234 791.653 245.64 792.762C244.047 793.871 243.155 796.113 244.014 797.856C241.046 796.728 238.772 794.343 236.218 792.459C233.664 790.575 230.333 789.128 227.367 790.259C224.218 791.463 222.69 795.387 223.499 798.66C224.311 801.931 226.982 804.488 230.005 805.978C233.027 807.47 236.403 808.053 239.725 808.619L317.168 810.088C317.168 807.935 299.997 807.425 299.997 807.425Z" fill="#76B7AF"/>
<path d="M239.557 812.876L239.726 808.619L362.212 810.509V812.876H239.557Z" fill="#375A64"/>
<path d="M354.389 763.475C351.444 758.668 351.185 752.328 353.722 747.295C354.83 745.098 357.108 742.925 359.44 743.704C361.669 744.45 362.268 747.309 362.208 749.658C362.079 754.728 358.426 764.958 354.389 763.475Z" fill="#76B7AF"/>
<path d="M282.745 611.486C282.854 611.504 282.634 612.366 282.72 613.927C282.781 615.49 283.355 617.692 284.444 620.284C285.482 622.887 287.161 625.885 287.882 629.685C288.706 633.538 287.256 637.878 284.931 641.528C282.603 645.248 279.844 648.321 278.022 651.535C277.096 653.129 276.399 654.735 275.978 656.306C275.586 657.865 275.494 659.397 275.659 660.762C275.955 663.523 277.165 665.536 278.249 666.619C279.362 667.701 280.209 668.021 280.162 668.106C280.149 668.137 279.942 668.068 279.55 667.903C279.164 667.732 278.619 667.413 277.997 666.886C276.779 665.835 275.394 663.748 274.996 660.845C274.778 659.408 274.833 657.789 275.219 656.113C275.626 654.454 276.33 652.759 277.265 651.105C279.106 647.767 281.872 644.647 284.126 641.031C286.392 637.453 287.744 633.436 287.022 629.826C286.395 626.227 284.8 623.194 283.823 620.529C282.798 617.873 282.299 615.554 282.351 613.936C282.38 613.129 282.442 612.511 282.56 612.101C282.651 611.689 282.712 611.479 282.745 611.486Z" fill="#1A2E35"/>
<path d="M301.756 609.89C301.864 609.909 301.643 610.771 301.728 612.332C301.792 613.893 302.365 616.096 303.455 618.689C304.493 621.291 306.172 624.29 306.891 628.087C307.717 631.943 306.266 636.283 303.941 639.933C301.614 643.652 298.855 646.725 297.033 649.94C296.107 651.532 295.408 653.14 294.987 654.708C294.597 656.269 294.504 657.801 294.669 659.166C294.965 661.927 296.176 663.94 297.259 665.024C298.372 666.104 299.22 666.423 299.173 666.511C299.16 666.541 298.951 666.472 298.561 666.305C298.172 666.137 297.63 665.817 297.007 665.291C295.787 664.24 294.404 662.152 294.007 659.25C293.789 657.812 293.843 656.193 294.228 654.516C294.637 652.859 295.341 651.163 296.276 649.51C298.116 646.172 300.882 643.052 303.137 639.436C305.402 635.858 306.754 631.841 306.032 628.231C305.406 624.631 303.808 621.598 302.834 618.934C301.806 616.276 301.309 613.956 301.362 612.341C301.391 611.533 301.452 610.914 301.57 610.506C301.661 610.094 301.723 609.883 301.756 609.89Z" fill="#1A2E35"/>
<path d="M320.766 608.295C320.875 608.313 320.653 609.176 320.739 610.735C320.802 612.298 321.376 614.501 322.465 617.091C323.501 619.696 325.182 622.695 325.901 626.492C326.727 630.346 325.276 634.687 322.951 638.338C320.624 642.055 317.865 645.128 316.043 648.343C315.115 649.937 314.418 651.545 313.997 653.113C313.607 654.674 313.512 656.206 313.679 657.569C313.975 660.332 315.186 662.345 316.27 663.429C317.382 664.509 318.23 664.828 318.183 664.915C318.17 664.946 317.961 664.875 317.571 664.71C317.183 664.541 316.64 664.22 316.017 663.695C314.798 662.644 313.414 660.557 313.017 657.655C312.799 656.217 312.854 654.598 313.238 652.921C313.647 651.263 314.351 649.568 315.284 647.913C317.126 644.576 319.893 641.454 322.145 637.84C324.412 634.261 325.765 630.246 325.042 626.635C324.414 623.036 322.819 620.001 321.844 617.338C320.817 614.681 320.319 612.361 320.372 610.746C320.401 609.938 320.463 609.319 320.579 608.91C320.671 608.497 320.733 608.288 320.766 608.295Z" fill="#1A2E35"/>
<path d="M55.8268 813.542C55.8268 813.542 31.3567 694.014 55.8268 627.596H82.9179C82.9179 627.596 103.711 697.639 82.9179 813.542H55.8268Z" fill="#76B7AF"/>
<g opacity="0.699997">
<g opacity="0.699997">
<path opacity="0.699997" d="M55.8268 813.542C55.8268 813.542 31.3567 694.014 55.8268 627.596H82.9179C82.9179 627.596 103.711 697.639 82.9179 813.542H55.8268Z" fill="white"/>
</g>
</g>
<path d="M75.8246 565.552C84.6136 550.087 102.068 539.949 119.858 539.975C111.745 556.894 92.878 568.026 74.1456 566.946" fill="#375A64"/>
<path d="M82.5588 515.728C70.1086 503.021 65.1641 483.452 70.0832 466.357C84.118 478.811 89.6288 500.012 83.4373 517.724" fill="#375A64"/>
<path d="M58.1003 516.426C43.3431 510.565 32.3505 496.559 30.3738 481.089C46.3489 486.193 58.3816 501.313 59.5306 517.724" fill="#375A64"/>
<path d="M51.3927 463.352C48.8406 452.058 52.7432 439.677 61.2363 432.115C64.745 443.83 60.6028 457.299 51.2003 464.748" fill="#375A64"/>
<path d="M70.2577 612.206C71.3286 600.677 78.876 590.113 89.2932 585.554C89.001 597.78 80.889 609.301 69.6423 613.473" fill="#375A64"/>
<path d="M40.6762 413.333C40.6762 413.333 45.568 431.639 51.2876 461.716C51.9828 465.48 52.7089 469.423 53.4658 473.53C54.2136 477.642 54.8417 481.942 55.5714 486.382C57.087 495.256 58.3122 504.795 59.6845 514.82C62.1767 534.906 64.3404 557.062 65.6654 580.383C66.8943 603.719 67.1629 625.983 66.878 646.222C66.6093 656.34 66.4314 665.959 65.8941 674.944C65.6527 679.438 65.4984 683.782 65.2044 687.949C64.9013 692.115 64.609 696.112 64.3295 699.931C61.928 730.453 59.0619 749.178 59.0619 749.178C59.0619 749.178 59.0655 748.88 59.1164 748.307C59.1763 747.691 59.2598 746.844 59.3668 745.756C59.6137 743.473 59.9677 740.178 60.4215 735.96C60.6574 733.831 60.9206 731.469 61.2074 728.886C61.4434 726.291 61.6993 723.475 61.9734 720.451C62.4925 714.398 63.2186 707.517 63.6633 699.88C63.9229 696.065 64.1933 692.07 64.4765 687.904C64.7506 683.74 64.8867 679.398 65.1118 674.905C65.6146 665.926 65.7635 656.317 66.0085 646.21C66.2427 625.987 65.9486 603.746 64.7216 580.436C63.3965 557.138 61.2619 535.001 58.8205 514.931C57.4736 504.909 56.2775 495.374 54.7963 486.505C54.0847 482.065 53.4749 477.765 52.747 473.654C52.0118 469.546 51.3057 465.604 50.6305 461.839C49.3563 454.295 47.8824 447.536 46.7061 441.575C46.1035 438.598 45.5408 435.828 45.0235 433.274C44.4572 430.738 43.938 428.418 43.4715 426.326C42.5585 422.182 41.847 418.947 41.3533 416.703C41.1282 415.633 40.9521 414.799 40.8251 414.195C40.7107 413.629 40.6762 413.333 40.6762 413.333Z" fill="#1A2E35"/>
<path d="M100.845 456.902C100.86 456.907 100.805 457.125 100.68 457.544C100.536 458.005 100.346 458.617 100.104 459.394C99.5617 461.069 98.7902 463.444 97.8064 466.48C97.3 468.021 96.7373 469.728 96.1238 471.592C95.5556 473.479 94.9403 475.525 94.2778 477.722C92.9818 482.127 91.3808 487.108 89.9396 492.709C89.1863 495.499 88.3949 498.422 87.5726 501.467C86.7576 504.513 86.0479 507.721 85.2347 511.019C83.5611 517.608 82.1308 524.73 80.5461 532.203C77.6129 547.202 74.9028 563.794 72.9261 581.32C71.0402 598.861 70.0709 615.65 69.6697 630.928C69.5899 638.57 69.4338 645.832 69.6334 652.628C69.7079 656.024 69.7024 659.309 69.8349 662.461C69.9747 665.612 70.1108 668.636 70.2397 671.525C70.4248 677.305 70.904 682.514 71.209 687.096C71.3778 689.383 71.5339 691.514 71.6791 693.48C71.8715 695.433 72.0476 697.221 72.2073 698.834C72.5068 702.011 72.741 704.498 72.9062 706.249C72.9733 707.059 73.026 707.698 73.0641 708.183C73.0949 708.618 73.1022 708.841 73.0877 708.843C73.0713 708.845 73.0314 708.625 72.9697 708.192C72.9062 707.712 72.8227 707.077 72.7174 706.273C72.5105 704.525 72.2164 702.042 71.8407 698.873C71.6555 697.259 71.4522 695.473 71.2308 693.522C71.062 691.556 70.8786 689.427 70.6826 687.139C70.3268 682.556 69.8004 677.343 69.5717 671.56C69.4229 668.668 69.2686 665.641 69.1052 662.488C68.9546 659.331 68.9419 656.044 68.8493 652.642C68.6151 645.837 68.7422 638.564 68.7985 630.91C69.1524 615.608 70.0963 598.789 71.9859 581.216C73.9662 563.66 76.7071 547.044 79.693 532.033C81.3031 524.552 82.7624 517.426 84.4723 510.835C85.3037 507.535 86.0315 504.33 86.8665 501.282C87.7106 498.238 88.5219 495.318 89.297 492.528C90.78 486.933 92.4263 481.962 93.7732 477.565C94.4611 475.376 95.1037 473.336 95.6972 471.454C96.338 469.597 96.9261 467.9 97.4579 466.364C98.5143 463.353 99.3421 460.993 99.9247 459.332C100.202 458.568 100.422 457.967 100.587 457.512C100.743 457.103 100.83 456.896 100.845 456.902Z" fill="#1A2E35"/>
<path d="M96.8857 470.411C90.9302 465.408 90.5635 456.075 93.4932 448.87C96.4247 441.668 101.91 435.87 106.502 429.597C111.097 423.322 114.997 415.807 113.945 408.104C113.696 406.269 113.168 404.408 113.562 402.598C113.954 400.791 115.743 399.095 117.511 399.643C119.076 400.126 119.704 401.969 120.034 403.573C121.053 408.534 121.358 413.64 120.935 418.686C123.258 412.796 128.449 408.117 134.548 406.412C135.924 412.295 134.015 418.839 129.686 423.055C133.621 421.418 137.843 419.748 142.029 420.558C146.213 421.367 149.957 425.809 148.387 429.77C146.599 434.282 140.448 434.371 135.672 435.231C130.381 436.188 125.462 439.083 122.056 443.245C117.751 448.511 116.008 455.389 112.518 461.224C109.029 467.062 102.311 472.162 95.8438 470.059" fill="#76B7AF"/>
<path d="M45.7823 433.505C52.3804 429.39 54.0539 420.198 52.1644 412.656C50.273 405.112 45.657 398.601 41.9904 391.745C38.3238 384.888 35.514 376.901 37.6377 369.421C38.1441 367.64 38.9283 365.87 38.7921 364.024C38.656 362.178 37.1222 360.251 35.2961 360.543C33.6788 360.803 32.7967 362.538 32.2449 364.081C30.5404 368.849 29.5221 373.863 29.2317 378.918C27.7578 372.759 23.2762 367.397 17.4768 364.854C15.2877 370.486 16.2606 377.233 19.9545 382.016C16.2878 379.842 12.3417 377.595 8.08516 377.809C3.82863 378.025 -0.502329 381.895 0.496006 386.039C1.63229 390.756 7.71124 391.706 12.3181 393.232C17.4223 394.92 21.8858 398.478 24.6739 403.076C28.1971 408.891 28.9576 415.947 31.5932 422.216C34.2288 428.486 40.1644 434.478 46.8623 433.303" fill="#76B7AF"/>
<path d="M38.0103 523.362C38.0394 523.348 38.2699 523.752 38.6801 524.538C39.123 525.411 39.7075 526.562 40.4354 528C41.1996 529.503 42.1072 531.352 43.0764 533.543C44.053 535.727 45.2274 538.192 46.3437 540.991C47.5072 543.772 48.7651 546.825 49.974 550.159C51.2664 553.461 52.4499 557.059 53.7314 560.836C56.171 568.425 58.5561 576.869 60.5709 585.849C62.5367 594.843 63.938 603.505 64.9291 611.417C65.3593 615.381 65.8058 619.144 66.0309 622.684C66.3395 626.216 66.4883 629.514 66.6063 632.527C66.7769 635.537 66.7515 638.265 66.7878 640.657C66.8332 643.052 66.7932 645.112 66.7333 646.798C66.6789 648.408 66.6371 649.697 66.6027 650.675C66.5627 651.561 66.5246 652.026 66.4919 652.026C66.4611 652.024 66.4338 651.557 66.4121 650.672C66.4012 649.693 66.3848 648.404 66.3667 646.794C66.3685 645.112 66.3558 643.053 66.2596 640.666C66.1743 638.28 66.1507 635.559 65.9383 632.556C65.7768 629.554 65.5916 626.267 65.2485 622.747C64.9926 619.222 64.517 615.472 64.0651 611.524C63.0286 603.645 61.6073 595.017 59.647 586.052C57.6394 577.102 55.2888 568.683 52.9037 561.103C51.6458 557.333 50.495 553.733 49.2407 550.43C48.0663 547.093 46.8465 544.037 45.7248 541.247C44.652 538.437 43.523 535.959 42.5918 533.759C41.6733 531.552 40.8148 529.681 40.1032 528.158C39.4407 526.689 38.9125 525.515 38.5095 524.622C38.1537 523.81 37.9813 523.377 38.0103 523.362Z" fill="#1A2E35"/>
<path d="M42.5073 540.851C45.7945 538.177 46.0741 533.098 44.5403 529.15C43.0065 525.202 40.0695 521.997 37.6227 518.541C35.1741 515.083 33.1139 510.957 33.7528 506.771C33.9053 505.775 34.2102 504.766 34.0106 503.776C33.8109 502.787 32.8525 501.85 31.885 502.134C31.0283 502.384 30.6707 503.381 30.4764 504.252C29.8793 506.944 29.6687 509.723 29.8557 512.474C28.6413 509.247 25.8551 506.653 22.5479 505.673C21.7474 508.864 22.7312 512.445 25.0528 514.78C22.9236 513.852 20.6383 512.905 18.353 513.311C16.0678 513.718 13.9894 516.103 14.8099 518.274C15.7447 520.746 19.0936 520.846 21.6875 521.358C24.5609 521.924 27.2146 523.543 29.0334 525.838C31.3332 528.744 32.2226 532.505 34.0723 535.714C35.9237 538.923 39.5359 541.758 43.0772 540.667" fill="#76B7AF"/>
</svg>
